spectral-extrabolditalic.ufo
<glyph name="exclam" format="2">
  <advance width="268"/>
  <unicode hex="0021"/>
  <outline>
    <contour>
      <point x="108" y="230" type="line"/>
      <point x="143" y="230" type="line"/>
      <point x="283" y="660" type="line"/>
      <point x="118" y="660" type="line"/>
    </contour>
    <contour>
      <point x="92" y="-5" type="curve" smooth="yes"/>
      <point x="139" y="-5"/>
      <point x="170" y="31"/>
      <point x="170" y="79" type="curve" smooth="yes"/>
      <point x="170" y="116"/>
      <point x="151" y="143"/>
      <point x="108" y="143" type="curve" smooth="yes"/>
      <point x="62" y="143"/>
      <point x="30" y="102"/>
      <point x="30" y="59" type="curve" smooth="yes"/>
      <point x="30" y="22"/>
      <point x="49" y="-5"/>
    </contour>
  </outline>
</glyph>
<glyph name="dollar" format="2">
  <advance width="600"/>
  <unicode hex="0024"/>
  <outline>
    <contour>
      <point x="259" y="-10" type="curve" smooth="yes"/>
      <point x="416.235494881" y="-10.0"/>
      <point x="530.0" y="82.0"/>
      <point x="530" y="209" type="curve" smooth="yes"/>
      <point x="530" y="290"/>
      <point x="492" y="340"/>
      <point x="392" y="394" type="curve" smooth="yes"/>
      <point x="280.80648164" y="455.207441299"/>
      <point x="235" y="476"/>
      <point x="235" y="525" type="curve" smooth="yes"/>
      <point x="235" y="590"/>
      <point x="300.172413793" y="616.0"/>
      <point x="355" y="616" type="curve" smooth="yes"/>
      <point x="427.378378378" y="616.0"/>
      <point x="467.797527539" y="586.906648713"/>
      <point x="458" y="534" type="curve" smooth="yes"/>
      <point x="453" y="507" type="line"/>
      <point x="458" y="503" type="line"/>
      <point x="516" y="503" type="line" smooth="yes"/>
      <point x="534" y="503"/>
      <point x="558" y="522"/>
      <point x="558" y="553" type="curve" smooth="yes"/>
      <point x="558" y="578"/>
      <point x="539" y="603"/>
      <point x="515" y="623" type="curve" smooth="yes"/>
      <point x="485.886865408" y="647.260945494"/>
      <point x="445.696202532" y="670.0"/>
      <point x="365" y="670" type="curve" smooth="yes"/>
      <point x="224" y="670"/>
      <point x="107" y="573"/>
      <point x="107" y="453" type="curve" smooth="yes"/>
      <point x="107" y="379"/>
      <point x="144" y="337"/>
      <point x="201" y="301" type="curve" smooth="yes"/>
      <point x="341.051614617" y="212.334229595"/>
      <point x="392.0" y="206.0"/>
      <point x="392" y="139" type="curve" smooth="yes"/>
      <point x="392.0" y="75.0"/>
      <point x="327.007751938" y="44.0"/>
      <point x="261" y="44" type="curve" smooth="yes"/>
      <point x="187.19047619" y="44.0"/>
      <point x="150.499880524" y="84.2993548321"/>
      <point x="161" y="141" type="curve" smooth="yes"/>
      <point x="166" y="168" type="line"/>
      <point x="161" y="172" type="line"/>
      <point x="107" y="172" type="line" smooth="yes"/>
      <point x="88" y="172"/>
      <point x="61.0" y="157.0"/>
      <point x="61" y="123" type="curve" smooth="yes"/>
      <point x="61.0" y="98.3333333333"/>
      <point x="73" y="73"/>
      <point x="95" y="49" type="curve" smooth="yes"/>
      <point x="121" y="22"/>
      <point x="183.397163121" y="-10.0"/>
    </contour>
    <contour>
      <point x="170" y="-80" type="line"/>
      <point x="211" y="-80" type="line"/>
      <point x="355" y="740" type="line"/>
      <point x="314" y="740" type="line"/>
    </contour>
    <contour>
      <point x="267" y="-80" type="line"/>
      <point x="308" y="-80" type="line"/>
      <point x="452" y="740" type="line"/>
      <point x="411" y="740" type="line"/>
    </contour>
  </outline>
</glyph>
<glyph name="asterisk" format="2">
  <advance width="350"/>
  <unicode hex="002A"/>
  <outline>
    <contour>
      <point x="45" y="478" type="line"/>
      <point x="108" y="425" type="line"/>
      <point x="190" y="553" type="line"/>
      <point x="226" y="427" type="line"/>
      <point x="307" y="474" type="line"/>
      <point x="215" y="573" type="line"/>
      <point x="361" y="587" type="line"/>
      <point x="345" y="669" type="line"/>
      <point x="211" y="601" type="line"/>
      <point x="268" y="740" type="line"/>
      <point x="178" y="740" type="line"/>
      <point x="185" y="601" type="line"/>
      <point x="73" y="669" type="line"/>
      <point x="35" y="587" type="line"/>
      <point x="171" y="573" type="line"/>
    </contour>
  </outline>
</glyph>
<glyph name="two" format="2">
  <advance width="600"/>
  <unicode hex="0032"/>
  <outline>
    <contour>
      <point x="23" y="0" type="line"/>
      <point x="473" y="0" type="line"/>
      <point x="519" y="233" type="line"/>
      <point x="503" y="233" type="line"/>
      <point x="422" y="132" type="line"/>
      <point x="129" y="132" type="line"/>
      <point x="86" y="56" type="line"/>
      <point x="454" y="332"/>
      <point x="544" y="411"/>
      <point x="544" y="524" type="curve" smooth="yes"/>
      <point x="544" y="616"/>
      <point x="466" y="670"/>
      <point x="365" y="670" type="curve" smooth="yes"/>
      <point x="269" y="670"/>
      <point x="231" y="642"/>
      <point x="188" y="611" type="curve" smooth="yes"/>
      <point x="125" y="566"/>
      <point x="97" y="525"/>
      <point x="89" y="483" type="curve" smooth="yes"/>
      <point x="84" y="446"/>
      <point x="95" y="441"/>
      <point x="119" y="441" type="curve" smooth="yes"/>
      <point x="191" y="441" type="line"/>
      <point x="203" y="454" type="line"/>
      <point x="210" y="500" type="line" smooth="yes"/>
      <point x="221" y="572"/>
      <point x="250" y="615"/>
      <point x="300" y="615" type="curve" smooth="yes"/>
      <point x="351" y="615"/>
      <point x="370" y="580"/>
      <point x="370" y="537" type="curve" smooth="yes"/>
      <point x="370" y="427"/>
      <point x="322" y="337"/>
      <point x="32" y="45" type="curve"/>
    </contour>
  </outline>
</glyph>
<glyph name="four" format="2">
  <advance width="600"/>
  <unicode hex="0034"/>
  <outline>
    <contour>
      <point x="231" y="0" type="line"/>
      <point x="399" y="0" type="line"/>
      <point x="513" y="660" type="line"/>
      <point x="424" y="660" type="line"/>
      <point x="22" y="202" type="line"/>
      <point x="14" y="163" type="line"/>
      <point x="535" y="163" type="line"/>
      <point x="549" y="250" type="line"/>
      <point x="63" y="250" type="line"/>
      <point x="84" y="206" type="line"/>
      <point x="403" y="576" type="line"/>
      <point x="325" y="536" type="line"/>
    </contour>
  </outline>
</glyph>
<glyph name="five" format="2">
  <advance width="600"/>
  <unicode hex="0035"/>
  <outline>
    <contour>
      <point x="202" y="-10" type="curve" smooth="yes"/>
      <point x="362" y="-10"/>
      <point x="502.0" y="101.0"/>
      <point x="502" y="239" type="curve" smooth="yes"/>
      <point x="502" y="361"/>
      <point x="416" y="435"/>
      <point x="264" y="435" type="curve" smooth="yes"/>
      <point x="213" y="435"/>
      <point x="183" y="432"/>
      <point x="159" y="430" type="curve"/>
      <point x="168" y="402" type="line"/>
      <point x="210" y="626" type="line"/>
      <point x="179" y="543" type="line"/>
      <point x="495" y="543" type="line"/>
      <point x="518" y="660" type="line"/>
      <point x="160" y="660" type="line"/>
      <point x="86" y="276" type="line"/>
      <point x="120" y="281"/>
      <point x="142" y="285"/>
      <point x="175" y="285" type="curve" smooth="yes"/>
      <point x="278" y="285"/>
      <point x="330.0" y="249.722222222"/>
      <point x="330" y="158" type="curve" smooth="yes"/>
      <point x="330.0" y="86.8951048951"/>
      <point x="291.53271028" y="34.0"/>
      <point x="232" y="34" type="curve" smooth="yes"/>
      <point x="175.662790698" y="34.0"/>
      <point x="156.20810184" y="66.3756944788"/>
      <point x="137" y="124" type="curve" smooth="yes"/>
      <point x="128" y="151" type="line"/>
      <point x="112" y="151" type="line"/>
      <point x="41" y="103" type="line" smooth="yes"/>
      <point x="27" y="94"/>
      <point x="18" y="85"/>
      <point x="17" y="76" type="curve" smooth="yes"/>
      <point x="13.001080052399999" y="41.0094504583"/>
      <point x="81" y="-10"/>
    </contour>
  </outline>
</glyph>
<glyph name="nine" format="2">
  <advance width="600"/>
  <unicode hex="0039"/>
  <outline>
    <contour>
      <point x="44" y="-10" type="line"/>
      <point x="340" y="39"/>
      <point x="536" y="223"/>
      <point x="536" y="456" type="curve" smooth="yes"/>
      <point x="536" y="593"/>
      <point x="450" y="670"/>
      <point x="315" y="670" type="curve" smooth="yes"/>
      <point x="157" y="670"/>
      <point x="59" y="579"/>
      <point x="59" y="430" type="curve" smooth="yes"/>
      <point x="59" y="333"/>
      <point x="106" y="262"/>
      <point x="209" y="262" type="curve" smooth="yes"/>
      <point x="287" y="262"/>
      <point x="348" y="315"/>
      <point x="385" y="411" type="curve"/>
      <point x="383" y="444" type="line"/>
      <point x="355" y="373"/>
      <point x="322" y="341"/>
      <point x="282" y="341" type="curve" smooth="yes"/>
      <point x="247" y="341"/>
      <point x="229" y="371"/>
      <point x="229" y="429" type="curve" smooth="yes"/>
      <point x="229" y="545"/>
      <point x="260" y="620"/>
      <point x="313" y="620" type="curve" smooth="yes"/>
      <point x="348" y="620"/>
      <point x="366" y="586"/>
      <point x="366" y="519" type="curve" smooth="yes"/>
      <point x="366" y="341"/>
      <point x="289" y="108"/>
      <point x="51" y="29" type="curve"/>
    </contour>
  </outline>
</glyph>
<glyph name="question" format="2">
  <advance width="393"/>
  <unicode hex="003F"/>
  <outline>
    <contour>
      <point x="138" y="230" type="curve"/>
      <point x="173" y="230" type="line"/>
      <point x="168" y="240"/>
      <point x="164" y="250"/>
      <point x="164" y="265" type="curve" smooth="yes"/>
      <point x="164" y="372"/>
      <point x="378" y="317"/>
      <point x="378" y="486" type="curve" smooth="yes"/>
      <point x="378" y="590"/>
      <point x="253" y="670"/>
      <point x="138" y="670" type="curve" smooth="yes"/>
      <point x="90" y="670"/>
      <point x="77" y="659"/>
      <point x="77" y="644" type="curve" smooth="yes"/>
      <point x="77" y="639"/>
      <point x="79" y="632"/>
      <point x="82" y="625" type="curve" smooth="yes"/>
      <point x="115" y="543" type="line"/>
      <point x="130" y="537" type="line"/>
      <point x="168" y="545" type="line" smooth="yes"/>
      <point x="182" y="548"/>
      <point x="217" y="550"/>
      <point x="229" y="550" type="curve" smooth="yes"/>
      <point x="274" y="550"/>
      <point x="327" y="546"/>
      <point x="327" y="516" type="curve" smooth="yes"/>
      <point x="327" y="462"/>
      <point x="97" y="479"/>
      <point x="97" y="325" type="curve" smooth="yes"/>
      <point x="97" y="285"/>
      <point x="119" y="254"/>
    </contour>
    <contour>
      <point x="132" y="-5" type="curve" smooth="yes"/>
      <point x="179" y="-5"/>
      <point x="210" y="36"/>
      <point x="210" y="79" type="curve" smooth="yes"/>
      <point x="210" y="116"/>
      <point x="191" y="143"/>
      <point x="148" y="143" type="curve" smooth="yes"/>
      <point x="102" y="143"/>
      <point x="70" y="102"/>
      <point x="70" y="59" type="curve" smooth="yes"/>
      <point x="70" y="22"/>
      <point x="89" y="-5"/>
    </contour>
  </outline>
</glyph>
<glyph name="A" format="2">
  <advance width="719.0"/>
  <unicode hex="0041"/>
  <anchor x="421.0" y="710.0" name="top"/>
  <anchor x="516.0" y="0.0" name="right"/>
  <anchor x="252.0" y="0.0" name="bottom"/>
  <outline>
    <contour>
      <point x="-45" y="0" type="line"/>
      <point x="149" y="0" type="line"/>
      <point x="153" y="16" type="line"/>
      <point x="70" y="56" type="line"/>
      <point x="70" y="28" type="line"/>
      <point x="355" y="539" type="line"/>
      <point x="315" y="539" type="line"/>
      <point x="416" y="28" type="line"/>
      <point x="433" y="62" type="line"/>
      <point x="327" y="16" type="line"/>
      <point x="324" y="0" type="line"/>
      <point x="648" y="0" type="line"/>
      <point x="651" y="16" type="line"/>
      <point x="574" y="62" type="line"/>
      <point x="599" y="28" type="line"/>
      <point x="467" y="665" type="line"/>
      <point x="364" y="665" type="line"/>
      <point x="4" y="28" type="line"/>
      <point x="37" y="59" type="line"/>
      <point x="-42" y="16" type="line"/>
    </contour>
    <contour>
      <point x="139" y="207" type="line"/>
      <point x="490" y="207" type="line"/>
      <point x="501" y="262" type="line"/>
      <point x="150" y="262" type="line"/>
    </contour>
  </outline>
</glyph>
<glyph name="B" format="2">
  <advance width="678"/>
  <unicode hex="0042"/>
  <outline>
    <contour>
      <point x="-30" y="0" type="line"/>
      <point x="221" y="0" type="line"/>
      <point x="337" y="660" type="line"/>
      <point x="86" y="660" type="line"/>
      <point x="83" y="644" type="line"/>
      <point x="156" y="602" type="line"/>
      <point x="60" y="58" type="line"/>
      <point x="-27" y="16" type="line"/>
    </contour>
    <contour>
      <point x="329" y="0" type="line" smooth="yes"/>
      <point x="523" y="0"/>
      <point x="623" y="102"/>
      <point x="623" y="207" type="curve" smooth="yes"/>
      <point x="623" y="304"/>
      <point x="540" y="363"/>
      <point x="378" y="363" type="curve"/>
      <point x="367" y="348" type="line"/>
      <point x="521" y="348"/>
      <point x="623" y="434"/>
      <point x="623" y="523" type="curve" smooth="yes"/>
      <point x="623" y="615"/>
      <point x="530" y="660"/>
      <point x="401" y="660" type="curve" smooth="yes"/>
      <point x="263" y="660" type="line"/>
      <point x="252" y="605" type="line"/>
      <point x="342" y="605" type="line" smooth="yes"/>
      <point x="421" y="605"/>
      <point x="447" y="567"/>
      <point x="447" y="498" type="curve" smooth="yes"/>
      <point x="447" y="423"/>
      <point x="395" y="363"/>
      <point x="307" y="363" type="curve" smooth="yes"/>
      <point x="212" y="363" type="line"/>
      <point x="202" y="318" type="line"/>
      <point x="322" y="318" type="line" smooth="yes"/>
      <point x="406" y="318"/>
      <point x="440" y="280"/>
      <point x="440" y="205" type="curve" smooth="yes"/>
      <point x="440" y="130"/>
      <point x="396" y="55"/>
      <point x="293" y="55" type="curve" smooth="yes"/>
      <point x="157" y="55" type="line"/>
      <point x="147" y="0" type="line"/>
    </contour>
  </outline>
</glyph>
<glyph name="H" format="2">
  <advance width="769.0"/>
  <unicode hex="0048"/>
  <anchor x="450.0" y="710.0" name="top"/>
  <anchor x="324.0" y="0.0" name="bottom"/>
  <outline>
    <contour>
      <point x="-30" y="0" type="line"/>
      <point x="291" y="0" type="line"/>
      <point x="294" y="16" type="line"/>
      <point x="231" y="58" type="line"/>
      <point x="327" y="602" type="line"/>
      <point x="404" y="644" type="line"/>
      <point x="407" y="660" type="line"/>
      <point x="86" y="660" type="line"/>
      <point x="83" y="644" type="line"/>
      <point x="156" y="602" type="line"/>
      <point x="60" y="58" type="line"/>
      <point x="-27" y="16" type="line"/>
    </contour>
    <contour>
      <point x="192" y="313" type="line"/>
      <point x="579" y="313" type="line"/>
      <point x="590" y="368" type="line"/>
      <point x="203" y="368" type="line"/>
    </contour>
    <contour>
      <point x="363" y="0" type="line"/>
      <point x="683" y="0" type="line"/>
      <point x="686" y="16" type="line"/>
      <point x="615" y="58" type="line"/>
      <point x="711" y="602" type="line"/>
      <point x="796" y="644" type="line"/>
      <point x="799" y="660" type="line"/>
      <point x="479" y="660" type="line"/>
      <point x="476" y="644" type="line"/>
      <point x="540" y="602" type="line"/>
      <point x="444" y="58" type="line"/>
      <point x="366" y="16" type="line"/>
    </contour>
  </outline>
</glyph>
<glyph name="J" format="2">
  <advance width="397"/>
  <unicode hex="004A"/>
  <anchor x="279" y="710" name="top"/>
  <outline>
    <contour>
      <point x="-43" y="-173" type="curve" smooth="yes"/>
      <point x="10" y="-173"/>
      <point x="31" y="-151"/>
      <point x="109" y="-73" type="curve" smooth="yes"/>
      <point x="177" y="-5"/>
      <point x="254" y="88"/>
      <point x="280" y="229" type="curve" smooth="yes"/>
      <point x="349" y="602" type="line"/>
      <point x="427" y="644" type="line"/>
      <point x="429" y="660" type="line"/>
      <point x="97" y="660" type="line"/>
      <point x="95" y="644" type="line"/>
      <point x="178" y="602" type="line"/>
      <point x="87" y="87" type="line" smooth="yes"/>
      <point x="63" y="-47"/>
      <point x="40" y="-64"/>
      <point x="-5" y="-64" type="curve" smooth="yes"/>
      <point x="-22" y="-64"/>
      <point x="-36" y="-61"/>
      <point x="-53" y="-55" type="curve"/>
      <point x="-59" y="-55" type="line"/>
      <point x="-81" y="-122" type="line" smooth="yes"/>
      <point x="-91.5564086661" y="-154.149062756"/>
      <point x="-77.0" y="-173.0"/>
    </contour>
  </outline>
</glyph>
<glyph name="K" format="2">
  <advance width="734"/>
  <unicode hex="004B"/>
  <anchor x="454.0" y="710.0" name="top"/>
  <anchor x="340" y="0" name="bottom"/>
  <outline>
    <contour>
      <point x="-30" y="0" type="line"/>
      <point x="301" y="0" type="line"/>
      <point x="305" y="16" type="line"/>
      <point x="231" y="58" type="line"/>
      <point x="327" y="602" type="line"/>
      <point x="414" y="644" type="line"/>
      <point x="418" y="660" type="line"/>
      <point x="86" y="660" type="line"/>
      <point x="83" y="644" type="line"/>
      <point x="156" y="602" type="line"/>
      <point x="60" y="58" type="line"/>
      <point x="-27" y="16" type="line"/>
    </contour>
    <contour>
      <point x="460" y="0" type="line"/>
      <point x="683" y="0" type="line"/>
      <point x="686" y="16" type="line"/>
      <point x="630" y="52" type="line"/>
      <point x="416" y="416" type="line"/>
      <point x="368" y="338" type="line"/>
      <point x="682" y="632" type="line"/>
      <point x="610" y="597" type="line"/>
      <point x="730" y="644" type="line"/>
      <point x="734" y="660" type="line"/>
      <point x="508" y="660" type="line"/>
      <point x="505" y="644" type="line"/>
      <point x="591" y="597" type="line"/>
      <point x="594" y="632" type="line"/>
      <point x="282" y="331" type="line"/>
    </contour>
  </outline>
</glyph>
<glyph name="L" format="2">
  <advance width="570.0"/>
  <unicode hex="004C"/>
  <anchor x="260" y="710" name="top"/>
  <anchor x="530" y="660" name="right"/>
  <anchor x="484" y="355" name="mid"/>
  <anchor x="263" y="0" name="bottom"/>
  <outline>
    <contour>
      <point x="-30" y="0" type="line"/>
      <point x="489" y="0" type="line"/>
      <point x="535" y="245" type="line"/>
      <point x="519" y="245" type="line"/>
      <point x="395" y="55" type="line"/>
      <point x="230" y="55" type="line"/>
      <point x="327" y="602" type="line"/>
      <point x="424" y="644" type="line"/>
      <point x="427" y="660" type="line"/>
      <point x="86" y="660" type="line"/>
      <point x="83" y="644" type="line"/>
      <point x="156" y="602" type="line"/>
      <point x="60" y="58" type="line"/>
      <point x="-27" y="16" type="line"/>
    </contour>
  </outline>
</glyph>
<glyph name="M" format="2">
  <advance width="941"/>
  <unicode hex="004D"/>
  <anchor x="368" y="0" name="bottom"/>
  <outline>
    <contour>
      <point x="-30" y="0" type="line"/>
      <point x="199" y="0" type="line"/>
      <point x="203" y="16" type="line"/>
      <point x="126" y="57" type="line"/>
      <point x="245" y="642" type="line"/>
      <point x="183" y="642" type="line"/>
      <point x="60" y="58" type="line"/>
      <point x="-27" y="16" type="line"/>
    </contour>
    <contour>
      <point x="340" y="-5" type="line"/>
      <point x="397" y="-5" type="line"/>
      <point x="725" y="593" type="line"/>
      <point x="835" y="593" type="line"/>
      <point x="938" y="644" type="line"/>
      <point x="941" y="660" type="line"/>
      <point x="690" y="660" type="line"/>
      <point x="436" y="189" type="line"/>
      <point x="473" y="189" type="line"/>
      <point x="365" y="660" type="line"/>
      <point x="99" y="660" type="line"/>
      <point x="96" y="644" type="line"/>
      <point x="194" y="593" type="line"/>
      <point x="204" y="593" type="line"/>
    </contour>
    <contour>
      <point x="538" y="0" type="line"/>
      <point x="855" y="0" type="line"/>
      <point x="858" y="16" type="line"/>
      <point x="792" y="58" type="line"/>
      <point x="858" y="642" type="line"/>
      <point x="689" y="642" type="line"/>
      <point x="622" y="57" type="line"/>
      <point x="541" y="16" type="line"/>
    </contour>
  </outline>
</glyph>
<glyph name="O" format="2">
  <advance width="779.0"/>
  <unicode hex="004F"/>
  <anchor x="455" y="710" name="top"/>
  <anchor x="353" y="0" name="right"/>
  <anchor x="335" y="0" name="bottom"/>
  <outline>
    <contour>
      <point x="339" y="-10" type="curve" smooth="yes"/>
      <point x="575" y="-10"/>
      <point x="739" y="166"/>
      <point x="739" y="390" type="curve" smooth="yes"/>
      <point x="739" y="555"/>
      <point x="632" y="670"/>
      <point x="439" y="670" type="curve" smooth="yes"/>
      <point x="215" y="670"/>
      <point x="40" y="494"/>
      <point x="40" y="271" type="curve" smooth="yes"/>
      <point x="40" y="105"/>
      <point x="145" y="-10"/>
    </contour>
    <contour>
      <point x="349" y="42" type="curve" smooth="yes"/>
      <point x="263.314049587" y="42.0"/>
      <point x="221" y="125"/>
      <point x="221" y="245" type="curve" smooth="yes"/>
      <point x="221" y="445"/>
      <point x="312.935483871" y="617.0"/>
      <point x="431" y="617" type="curve" smooth="yes"/>
      <point x="526.20661157" y="617.0"/>
      <point x="558" y="535"/>
      <point x="558" y="416" type="curve" smooth="yes"/>
      <point x="558" y="214"/>
      <point x="474.806451613" y="42.0"/>
    </contour>
  </outline>
</glyph>
<glyph name="Z" format="2">
  <advance width="606.0"/>
  <unicode hex="005A"/>
  <anchor x="373.0" y="710.0" name="top"/>
  <anchor x="263.0" y="0.0" name="bottom"/>
  <outline>
    <contour>
      <point x="-10" y="0" type="line"/>
      <point x="509" y="0" type="line"/>
      <point x="552" y="229" type="line"/>
      <point x="536" y="229" type="line"/>
      <point x="424" y="65" type="line"/>
      <point x="167" y="65" type="line"/>
      <point x="167" y="16" type="line"/>
      <point x="604" y="623" type="line"/>
      <point x="610" y="660" type="line"/>
      <point x="112" y="660" type="line"/>
      <point x="71" y="441" type="line"/>
      <point x="87" y="441" type="line"/>
      <point x="195" y="605" type="line"/>
      <point x="431" y="605" type="line"/>
      <point x="431" y="643" type="line"/>
      <point x="-4" y="37" type="line"/>
    </contour>
  </outline>
</glyph>
<glyph name="underscore" format="2">
  <advance width="500"/>
  <unicode hex="005F"/>
  <outline>
    <contour>
      <point x="25" y="-133" type="line"/>
      <point x="461" y="-133" type="line"/>
      <point x="468" y="-97" type="line"/>
      <point x="32" y="-97" type="line"/>
    </contour>
  </outline>
</glyph>
<glyph name="a" format="2">
  <advance width="562.0"/>
  <unicode hex="0061"/>
  <anchor x="353" y="510" name="top"/>
  <anchor x="462" y="0" name="right"/>
  <anchor x="262" y="0" name="bottom"/>
  <outline>
    <contour>
      <point x="126" y="-10" type="curve" smooth="yes"/>
      <point x="189" y="-10"/>
      <point x="227" y="16"/>
      <point x="289" y="94" type="curve"/>
      <point x="308" y="94" type="line"/>
      <point x="308" y="160" type="line"/>
      <point x="280" y="123"/>
      <point x="258" y="99"/>
      <point x="231" y="99" type="curve" smooth="yes"/>
      <point x="209" y="99"/>
      <point x="200.0" y="122.0"/>
      <point x="200.0" y="178.0" type="curve" smooth="yes"/>
      <point x="200.0" y="307.0"/>
      <point x="245.0" y="420.0"/>
      <point x="308.0" y="420.0" type="curve" smooth="yes"/>
      <point x="327.0" y="420.0"/>
      <point x="342.0" y="413.0"/>
      <point x="352.0" y="402.0" type="curve"/>
      <point x="344.0" y="414.0" type="line"/>
      <point x="299" y="150" type="line" smooth="yes"/>
      <point x="281" y="43"/>
      <point x="321" y="-10"/>
      <point x="399" y="-10" type="curve" smooth="yes"/>
      <point x="474" y="-10"/>
      <point x="522" y="55"/>
      <point x="558" y="153" type="curve"/>
      <point x="536" y="160" type="line"/>
      <point x="512" y="106"/>
      <point x="493" y="89"/>
      <point x="475" y="89" type="curve" smooth="yes"/>
      <point x="459" y="89"/>
      <point x="453" y="107"/>
      <point x="457" y="131" type="curve" smooth="yes"/>
      <point x="514.0" y="460.0" type="line"/>
      <point x="498.0" y="460.0" type="line"/>
      <point x="406.0" y="433.0" type="line"/>
      <point x="442.0" y="436.0" type="line"/>
      <point x="422.0" y="458.0"/>
      <point x="390.0" y="470.0"/>
      <point x="348.0" y="470.0" type="curve" smooth="yes"/>
      <point x="204.0" y="470.0"/>
      <point x="30.0" y="324.0"/>
      <point x="30.0" y="115.0" type="curve" smooth="yes"/>
      <point x="30.0" y="36.0"/>
      <point x="70" y="-10"/>
    </contour>
  </outline>
</glyph>
<glyph name="b" format="2">
  <advance width="528.0"/>
  <unicode hex="0062"/>
  <outline>
    <contour>
      <point x="230" y="-10" type="curve" smooth="yes"/>
      <point x="374" y="-10"/>
      <point x="498" y="135"/>
      <point x="498" y="321" type="curve" smooth="yes"/>
      <point x="498" y="414"/>
      <point x="453" y="470"/>
      <point x="389" y="470" type="curve" smooth="yes"/>
      <point x="327" y="470"/>
      <point x="304" y="449"/>
      <point x="243" y="375" type="curve"/>
      <point x="219" y="375" type="line"/>
      <point x="219" y="307" type="line"/>
      <point x="241" y="336"/>
      <point x="267" y="361"/>
      <point x="296" y="361" type="curve" smooth="yes"/>
      <point x="323" y="361"/>
      <point x="333" y="330"/>
      <point x="333" y="291" type="curve" smooth="yes"/>
      <point x="333" y="146"/>
      <point x="281" y="34"/>
      <point x="224" y="34" type="curve" smooth="yes"/>
      <point x="199" y="34"/>
      <point x="186" y="53"/>
      <point x="182" y="83" type="curve"/>
      <point x="182" y="58" type="line"/>
      <point x="304" y="750" type="line"/>
      <point x="301" y="750" type="line"/>
      <point x="57" y="710" type="line"/>
      <point x="57" y="694" type="line"/>
      <point x="126" y="661" type="line"/>
      <point x="10" y="0" type="line"/>
      <point x="26" y="0" type="line"/>
      <point x="138" y="42" type="line"/>
      <point x="90" y="42" type="line"/>
      <point x="121" y="9"/>
      <point x="166" y="-10"/>
    </contour>
  </outline>
</glyph>
<glyph name="c" format="2">
  <advance width="449.0"/>
  <unicode hex="0063"/>
  <anchor x="306" y="510" name="top"/>
  <anchor x="195" y="0" name="bottom"/>
  <outline>
    <contour>
      <point x="196" y="-10" type="curve" smooth="yes"/>
      <point x="299" y="-10"/>
      <point x="375" y="73"/>
      <point x="419" y="152" type="curve"/>
      <point x="401" y="170" type="line"/>
      <point x="398" y="170" type="line"/>
      <point x="353" y="137"/>
      <point x="323" y="121"/>
      <point x="283" y="121" type="curve" smooth="yes"/>
      <point x="234" y="121"/>
      <point x="188" y="163"/>
      <point x="188" y="227" type="curve" smooth="yes"/>
      <point x="188" y="338"/>
      <point x="240" y="425"/>
      <point x="289" y="425" type="curve" smooth="yes"/>
      <point x="316" y="425"/>
      <point x="323" y="412"/>
      <point x="345" y="367" type="curve" smooth="yes"/>
      <point x="367" y="322" type="line"/>
      <point x="373" y="322" type="line"/>
      <point x="429" y="367" type="line" smooth="yes"/>
      <point x="440" y="376"/>
      <point x="444" y="386"/>
      <point x="444" y="396" type="curve" smooth="yes"/>
      <point x="444" y="403"/>
      <point x="444" y="409"/>
      <point x="436" y="421" type="curve" smooth="yes"/>
      <point x="416" y="452"/>
      <point x="373" y="470"/>
      <point x="313" y="470" type="curve" smooth="yes"/>
      <point x="161" y="470"/>
      <point x="25" y="329"/>
      <point x="25" y="170" type="curve" smooth="yes"/>
      <point x="25" y="57"/>
      <point x="76" y="-10"/>
    </contour>
  </outline>
</glyph>
<glyph name="e" format="2">
  <advance width="437.0"/>
  <unicode hex="0065"/>
  <anchor x="292" y="0" name="right"/>
  <anchor x="194" y="0" name="bottom"/>
  <anchor x="320" y="510" name="top"/>
  <outline>
    <contour>
      <point x="190" y="-10" type="curve" smooth="yes"/>
      <point x="296" y="-10"/>
      <point x="375" y="72"/>
      <point x="419" y="152" type="curve"/>
      <point x="401" y="170" type="line"/>
      <point x="398" y="170" type="line"/>
      <point x="353" y="137"/>
      <point x="323" y="121"/>
      <point x="283" y="121" type="curve" smooth="yes"/>
      <point x="234" y="121"/>
      <point x="188" y="163"/>
      <point x="188" y="227" type="curve" smooth="yes"/>
      <point x="188" y="342"/>
      <point x="240" y="425"/>
      <point x="282" y="425" type="curve" smooth="yes"/>
      <point x="307" y="425"/>
      <point x="312" y="409"/>
      <point x="312" y="394" type="curve" smooth="yes"/>
      <point x="312" y="351"/>
      <point x="271" y="303"/>
      <point x="144" y="268" type="curve"/>
      <point x="156" y="236" type="line"/>
      <point x="373" y="290"/>
      <point x="427" y="332"/>
      <point x="427" y="388" type="curve" smooth="yes"/>
      <point x="427" y="434"/>
      <point x="389" y="470"/>
      <point x="319" y="470" type="curve" smooth="yes"/>
      <point x="145" y="470"/>
      <point x="25" y="315"/>
      <point x="25" y="171" type="curve" smooth="yes"/>
      <point x="25" y="60"/>
      <point x="76" y="-10"/>
    </contour>
  </outline>
</glyph>
<glyph name="k" format="2">
  <advance width="549.0"/>
  <unicode hex="006B"/>
  <anchor x="246" y="0" name="bottom"/>
  <outline>
    <contour>
      <point x="20" y="0" type="line"/>
      <point x="183" y="0" type="line"/>
      <point x="313" y="750" type="line"/>
      <point x="310" y="750" type="line"/>
      <point x="66" y="710" type="line"/>
      <point x="66" y="694" type="line"/>
      <point x="135" y="661" type="line"/>
    </contour>
    <contour>
      <point x="401" y="-10" type="curve" smooth="yes"/>
      <point x="468" y="-10"/>
      <point x="513" y="36"/>
      <point x="536" y="152" type="curve"/>
      <point x="514" y="157" type="line"/>
      <point x="502" y="105"/>
      <point x="487" y="89"/>
      <point x="469" y="89" type="curve" smooth="yes"/>
      <point x="450.513513514" y="89.0"/>
      <point x="442.122201047" y="108.924617546"/>
      <point x="431" y="135" type="curve" smooth="yes"/>
      <point x="341" y="346" type="line"/>
      <point x="267" y="280" type="line"/>
      <point x="354" y="345" type="line" smooth="yes"/>
      <point x="371.605489951" y="358.153526975"/>
      <point x="391.397260274" y="367.0"/>
      <point x="419" y="367" type="curve" smooth="yes"/>
      <point x="443.652173913" y="367.0"/>
      <point x="462.616353119" y="361.450134378"/>
      <point x="473" y="357" type="curve" smooth="yes"/>
      <point x="487" y="351" type="line"/>
      <point x="491" y="351" type="line"/>
      <point x="523" y="432" type="line" smooth="yes"/>
      <point x="528" y="444"/>
      <point x="522" y="454"/>
      <point x="513" y="461" type="curve" smooth="yes"/>
      <point x="506" y="466"/>
      <point x="495" y="470"/>
      <point x="479" y="470" type="curve" smooth="yes"/>
      <point x="437" y="470"/>
      <point x="367" y="417"/>
      <point x="224" y="267" type="curve"/>
      <point x="224" y="262" type="line"/>
      <point x="289" y="83" type="line" smooth="yes"/>
      <point x="308" y="31"/>
      <point x="335" y="-10"/>
    </contour>
  </outline>
</glyph>
<glyph name="l" format="2">
  <advance width="308.0"/>
  <unicode hex="006C"/>
  <anchor x="236" y="765" name="top"/>
  <anchor x="431" y="740" name="right"/>
  <anchor x="358" y="300" name="mid"/>
  <anchor x="137" y="0" name="bottom"/>
  <outline>
    <contour>
      <point x="145" y="-10" type="curve" smooth="yes"/>
      <point x="220" y="-10"/>
      <point x="268" y="55"/>
      <point x="304" y="153" type="curve"/>
      <point x="282" y="160" type="line"/>
      <point x="258" y="106"/>
      <point x="239" y="89"/>
      <point x="221" y="89" type="curve" smooth="yes"/>
      <point x="205" y="89"/>
      <point x="199" y="107"/>
      <point x="203" y="131" type="curve" smooth="yes"/>
      <point x="313" y="750" type="line"/>
      <point x="310" y="750" type="line"/>
      <point x="66" y="710" type="line"/>
      <point x="66" y="694" type="line"/>
      <point x="135" y="661" type="line"/>
      <point x="45" y="150" type="line" smooth="yes"/>
      <point x="26" y="43"/>
      <point x="67" y="-10"/>
    </contour>
  </outline>
</glyph>
<glyph name="o" format="2">
  <advance width="506.0"/>
  <unicode hex="006F"/>
  <anchor x="303" y="510" name="top"/>
  <anchor x="247" y="0" name="right"/>
  <anchor x="214" y="0" name="bottom"/>
  <outline>
    <contour>
      <point x="218" y="-10" type="curve" smooth="yes"/>
      <point x="377" y="-10"/>
      <point x="481" y="128"/>
      <point x="481" y="263" type="curve" smooth="yes"/>
      <point x="481" y="379"/>
      <point x="415" y="470"/>
      <point x="275" y="470" type="curve" smooth="yes"/>
      <point x="136" y="470"/>
      <point x="25" y="339"/>
      <point x="25" y="197" type="curve" smooth="yes"/>
      <point x="25" y="83"/>
      <point x="89" y="-10"/>
    </contour>
    <contour>
      <point x="233" y="43" type="curve" smooth="yes"/>
      <point x="198.0" y="43.0"/>
      <point x="185.0" y="94.0"/>
      <point x="185" y="166" type="curve" smooth="yes"/>
      <point x="185.0" y="299.0"/>
      <point x="226.0" y="418.0"/>
      <point x="274" y="418" type="curve" smooth="yes"/>
      <point x="305.0" y="418.0"/>
      <point x="321.0" y="381.0"/>
      <point x="321" y="299" type="curve" smooth="yes"/>
      <point x="321.0" y="167.0"/>
      <point x="281.0" y="43.0"/>
    </contour>
  </outline>
</glyph>
<glyph name="p" format="2">
  <advance width="548"/>
  <unicode hex="0070"/>
  <outline>
    <contour>
      <point x="-64" y="-230" type="line"/>
      <point x="247" y="-230" type="line"/>
      <point x="247" y="-214" type="line"/>
      <point x="161" y="-181" type="line"/>
      <point x="198" y="27" type="line"/>
      <point x="110" y="41" type="line"/>
      <point x="141" y="8"/>
      <point x="186" y="-10"/>
      <point x="250" y="-10" type="curve" smooth="yes"/>
      <point x="394" y="-10"/>
      <point x="518" y="135"/>
      <point x="518" y="321" type="curve" smooth="yes"/>
      <point x="518" y="414"/>
      <point x="473" y="470"/>
      <point x="409" y="470" type="curve" smooth="yes"/>
      <point x="346" y="470"/>
      <point x="323" y="448"/>
      <point x="261" y="372" type="curve"/>
      <point x="239" y="372" type="line"/>
      <point x="239" y="307" type="line"/>
      <point x="261" y="336"/>
      <point x="287" y="361"/>
      <point x="316" y="361" type="curve" smooth="yes"/>
      <point x="343" y="361"/>
      <point x="353" y="330"/>
      <point x="353" y="291" type="curve" smooth="yes"/>
      <point x="353" y="140"/>
      <point x="302.065420561" y="34.0"/>
      <point x="244" y="34" type="curve" smooth="yes"/>
      <point x="219" y="34"/>
      <point x="205" y="53"/>
      <point x="201" y="83" type="curve"/>
      <point x="201" y="46" type="line"/>
      <point x="253" y="358" type="line"/>
      <point x="253" y="470" type="line"/>
      <point x="250" y="470" type="line"/>
      <point x="38" y="430" type="line"/>
      <point x="38" y="414" type="line"/>
      <point x="96" y="381" type="line"/>
      <point x="-3" y="-182" type="line"/>
      <point x="-64" y="-214" type="line"/>
    </contour>
  </outline>
</glyph>
<glyph name="q" format="2">
  <advance width="545.0"/>
  <unicode hex="0071"/>
  <outline>
    <contour>
      <point x="157" y="-230" type="line"/>
      <point x="468" y="-230" type="line"/>
      <point x="468" y="-214" type="line"/>
      <point x="403" y="-183" type="line"/>
      <point x="514" y="460" type="line"/>
      <point x="498" y="460" type="line"/>
      <point x="406" y="433" type="line"/>
      <point x="442" y="436" type="line"/>
      <point x="422" y="458"/>
      <point x="390" y="470"/>
      <point x="348" y="470" type="curve" smooth="yes"/>
      <point x="204" y="470"/>
      <point x="30" y="324"/>
      <point x="30" y="115" type="curve" smooth="yes"/>
      <point x="30" y="36"/>
      <point x="70" y="-10"/>
      <point x="126" y="-10" type="curve" smooth="yes"/>
      <point x="185" y="-10"/>
      <point x="222" y="13"/>
      <point x="277" y="80" type="curve"/>
      <point x="308" y="80" type="line"/>
      <point x="308" y="160" type="line"/>
      <point x="280" y="123"/>
      <point x="258" y="99"/>
      <point x="231" y="99" type="curve" smooth="yes"/>
      <point x="209" y="99"/>
      <point x="200" y="122"/>
      <point x="200" y="178" type="curve" smooth="yes"/>
      <point x="200.0" y="312.536480687"/>
      <point x="242.8" y="421.0"/>
      <point x="307" y="421" type="curve" smooth="yes"/>
      <point x="330" y="421"/>
      <point x="348" y="410"/>
      <point x="358" y="394" type="curve"/>
      <point x="350" y="447" type="line"/>
      <point x="239" y="-182" type="line"/>
      <point x="157" y="-214" type="line"/>
    </contour>
  </outline>
</glyph>
<glyph name="s" format="2">
  <advance width="399.0"/>
  <unicode hex="0073"/>
  <anchor x="256" y="510" name="top"/>
  <anchor x="155" y="0" name="bottom"/>
  <outline>
    <contour>
      <point x="144" y="-10" type="curve"/>
      <point x="273" y="-10"/>
      <point x="353" y="82"/>
      <point x="353" y="179" type="curve" smooth="yes"/>
      <point x="353" y="244"/>
      <point x="308" y="273"/>
      <point x="258" y="299" type="curve" smooth="yes"/>
      <point x="192" y="333"/>
      <point x="181" y="350"/>
      <point x="181" y="373" type="curve" smooth="yes"/>
      <point x="181.0" y="396.806451613"/>
      <point x="196.105263158" y="414.0"/>
      <point x="222" y="414" type="curve" smooth="yes"/>
      <point x="244.75862069" y="414.0"/>
      <point x="255.608493912" y="400.85975679"/>
      <point x="277" y="377" type="curve" smooth="yes"/>
      <point x="303" y="348" type="line"/>
      <point x="310" y="348" type="line"/>
      <point x="362" y="389" type="line" smooth="yes"/>
      <point x="366" y="392"/>
      <point x="366" y="396"/>
      <point x="366" y="402" type="curve" smooth="yes"/>
      <point x="366" y="412"/>
      <point x="359" y="426"/>
      <point x="347" y="440" type="curve" smooth="yes"/>
      <point x="334" y="455"/>
      <point x="314" y="470"/>
      <point x="270" y="470" type="curve" smooth="yes"/>
      <point x="162" y="470"/>
      <point x="55" y="381"/>
      <point x="55" y="307" type="curve" smooth="yes"/>
      <point x="55" y="233"/>
      <point x="88" y="209"/>
      <point x="144" y="178" type="curve" smooth="yes"/>
      <point x="225.144778104" y="133.370372043"/>
      <point x="239" y="121"/>
      <point x="239" y="89" type="curve" smooth="yes"/>
      <point x="239" y="67"/>
      <point x="223" y="46"/>
      <point x="183" y="46" type="curve" smooth="yes"/>
      <point x="148" y="46"/>
      <point x="123" y="65"/>
      <point x="99" y="95" type="curve" smooth="yes"/>
      <point x="82" y="116" type="line"/>
      <point x="76" y="116" type="line"/>
      <point x="29" y="79" type="line" smooth="yes"/>
      <point x="21.0" y="73.0"/>
      <point x="18" y="65"/>
      <point x="18" y="57" type="curve" smooth="yes"/>
      <point x="18" y="44"/>
      <point x="29" y="30"/>
      <point x="48" y="17" type="curve" smooth="yes"/>
      <point x="69" y="2"/>
      <point x="100" y="-10"/>
    </contour>
  </outline>
</glyph>
<glyph name="w" format="2">
  <advance width="686.0"/>
  <unicode hex="0077"/>
  <anchor x="427.0" y="510.0" name="top"/>
  <outline>
    <contour>
      <point x="154" y="0" type="line"/>
      <point x="196" y="0" type="line"/>
      <point x="285" y="155" type="line"/>
      <point x="285" y="207" type="line"/>
      <point x="272" y="207" type="line"/>
      <point x="213" y="470" type="line"/>
      <point x="210" y="470" type="line"/>
      <point x="5" y="430" type="line"/>
      <point x="5" y="414" type="line"/>
      <point x="93" y="375" type="line"/>
      <point x="57" y="410" type="line"/>
    </contour>
    <contour>
      <point x="402" y="460" type="line"/>
      <point x="188" y="23" type="line"/>
      <point x="188" y="0" type="line"/>
      <point x="204" y="0" type="line"/>
      <point x="366" y="282" type="line"/>
      <point x="333" y="282" type="line"/>
      <point x="420" y="0" type="line"/>
      <point x="459" y="0" type="line"/>
      <point x="547" y="151" type="line"/>
      <point x="452" y="460" type="line"/>
    </contour>
    <contour>
      <point x="470" y="0" type="line"/>
      <point x="615" y="231" type="line" smooth="yes"/>
      <point x="661" y="305"/>
      <point x="684" y="336"/>
      <point x="684" y="380" type="curve" smooth="yes"/>
      <point x="684" y="427"/>
      <point x="646" y="470"/>
      <point x="610" y="470" type="curve" smooth="yes"/>
      <point x="591" y="470"/>
      <point x="585" y="466"/>
      <point x="571" y="439" type="curve" smooth="yes"/>
      <point x="540" y="377" type="line"/>
      <point x="540" y="372" type="line"/>
      <point x="557" y="363" type="line" smooth="yes"/>
      <point x="579" y="351"/>
      <point x="588" y="332"/>
      <point x="588" y="305" type="curve" smooth="yes"/>
      <point x="588" y="287"/>
      <point x="579" y="261"/>
      <point x="557" y="218" type="curve" smooth="yes"/>
      <point x="543" y="190" type="line"/>
      <point x="448" y="190" type="line"/>
      <point x="448" y="0" type="line"/>
    </contour>
  </outline>
</glyph>
<glyph name="x" format="2">
  <advance width="508.0"/>
  <unicode hex="0078"/>
  <outline>
    <contour>
      <point x="265" y="-10" type="line"/>
      <point x="268" y="-10" type="line"/>
      <point x="473" y="30" type="line"/>
      <point x="473" y="46" type="line"/>
      <point x="384" y="85" type="line"/>
      <point x="414" y="62" type="line"/>
      <point x="254" y="470" type="line"/>
      <point x="251" y="470" type="line"/>
      <point x="46" y="430" type="line"/>
      <point x="46" y="414" type="line"/>
      <point x="135" y="375" type="line"/>
      <point x="101" y="402" type="line"/>
    </contour>
    <contour>
      <point x="505" y="460" type="curve"/>
      <point x="417" y="460" type="line"/>
      <point x="402.203839911" y="430.407679823"/>
      <point x="410.353343135" y="408.624011763"/>
      <point x="284" y="257" type="curve"/>
      <point x="316" y="247" type="line"/>
      <point x="469.0" y="411.0"/>
      <point x="502.0" y="430.0"/>
    </contour>
    <contour>
      <point x="-20" y="0" type="curve"/>
      <point x="73" y="0" type="line"/>
      <point x="90.0" y="34.0"/>
      <point x="85.0" y="53.0"/>
      <point x="234" y="231" type="curve"/>
      <point x="201" y="241" type="line"/>
      <point x="27.0" y="55.0"/>
      <point x="-17.0" y="34.0"/>
    </contour>
  </outline>
</glyph>
<glyph name="y" format="2">
  <advance width="477.0"/>
  <unicode hex="0079"/>
  <anchor x="314.0" y="510.0" name="top"/>
  <anchor x="313" y="-10" name="bottom"/>
  <outline>
    <contour>
      <point x="10" y="414" type="line"/>
      <point x="95" y="376" type="line"/>
      <point x="60" y="417" type="line"/>
      <point x="196" y="-53" type="line"/>
      <point x="316" y="131" type="line"/>
      <point x="316" y="155" type="line"/>
      <point x="304" y="155" type="line"/>
      <point x="212" y="470" type="line"/>
      <point x="209" y="470" type="line"/>
      <point x="10" y="430" type="line"/>
    </contour>
    <contour>
      <point x="13" y="-240" type="curve" smooth="yes"/>
      <point x="58" y="-240"/>
      <point x="91" y="-221"/>
      <point x="125" y="-183" type="curve" smooth="yes"/>
      <point x="162" y="-141"/>
      <point x="169" y="-126"/>
      <point x="200" y="-79" type="curve" smooth="yes"/>
      <point x="406" y="231" type="line" smooth="yes"/>
      <point x="454" y="303"/>
      <point x="475" y="336"/>
      <point x="475" y="380" type="curve" smooth="yes"/>
      <point x="475" y="427"/>
      <point x="437" y="470"/>
      <point x="401" y="470" type="curve" smooth="yes"/>
      <point x="382" y="470"/>
      <point x="376" y="466"/>
      <point x="362" y="439" type="curve" smooth="yes"/>
      <point x="331" y="377" type="line"/>
      <point x="331" y="372" type="line"/>
      <point x="348" y="363" type="line" smooth="yes"/>
      <point x="370" y="351"/>
      <point x="379" y="332"/>
      <point x="379" y="305" type="curve" smooth="yes"/>
      <point x="379" y="287"/>
      <point x="378" y="256"/>
      <point x="353" y="218" type="curve" smooth="yes"/>
      <point x="197" y="-18" type="line" smooth="yes"/>
      <point x="137" y="-109"/>
      <point x="130" y="-117"/>
      <point x="53" y="-117" type="curve" smooth="yes"/>
      <point x="-8" y="-117" type="line"/>
      <point x="-15" y="-123" type="line"/>
      <point x="-15" y="-211" type="line" smooth="yes"/>
      <point x="-15" y="-232"/>
      <point x="-7" y="-240"/>
    </contour>
  </outline>
</glyph>
<glyph name="bar" format="2">
  <advance width="250.0"/>
  <unicode hex="007C"/>
  <outline>
    <contour>
      <point x="12" y="-250" type="line"/>
      <point x="62" y="-250" type="line"/>
      <point x="238" y="750" type="line"/>
      <point x="188" y="750" type="line"/>
    </contour>
  </outline>
</glyph>
<glyph name="cent" format="2">
  <advance width="600"/>
  <unicode hex="00A2"/>
  <outline>
    <contour>
      <point x="266" y="90" type="curve" smooth="yes"/>
      <point x="369.0" y="90.0"/>
      <point x="445.0" y="173.0"/>
      <point x="489" y="252" type="curve"/>
      <point x="471" y="270" type="line"/>
      <point x="468" y="270" type="line"/>
      <point x="423.0" y="237.0"/>
      <point x="393.0" y="221.0"/>
      <point x="353" y="221" type="curve" smooth="yes"/>
      <point x="304.0" y="221.0"/>
      <point x="258" y="263"/>
      <point x="258" y="327" type="curve" smooth="yes"/>
      <point x="258.0" y="438.0"/>
      <point x="310.0" y="525.0"/>
      <point x="359" y="525" type="curve" smooth="yes"/>
      <point x="393.0" y="525.0"/>
      <point x="400.0" y="498.0"/>
      <point x="415" y="467" type="curve" smooth="yes"/>
      <point x="437" y="422" type="line"/>
      <point x="443" y="422" type="line"/>
      <point x="499" y="467" type="line" smooth="yes"/>
      <point x="510" y="476"/>
      <point x="514" y="486"/>
      <point x="514" y="496" type="curve" smooth="yes"/>
      <point x="514" y="503"/>
      <point x="514" y="508"/>
      <point x="506" y="521" type="curve" smooth="yes"/>
      <point x="487" y="552"/>
      <point x="443" y="570"/>
      <point x="383" y="570" type="curve" smooth="yes"/>
      <point x="231" y="570"/>
      <point x="95" y="429"/>
      <point x="95" y="270" type="curve" smooth="yes"/>
      <point x="95" y="157"/>
      <point x="146" y="90"/>
    </contour>
    <contour>
      <point x="164" y="26" type="line"/>
      <point x="210" y="26" type="line"/>
      <point x="467" y="635" type="line"/>
      <point x="421" y="635" type="line"/>
    </contour>
  </outline>
</glyph>
<glyph name="sterling" format="2">
  <advance width="600"/>
  <unicode hex="00A3"/>
  <outline>
    <contour>
      <point x="26" y="0" type="line"/>
      <point x="479" y="0" type="line"/>
      <point x="528" y="222" type="line"/>
      <point x="497" y="222" type="line"/>
      <point x="445" y="125" type="line"/>
      <point x="154" y="125" type="line"/>
      <point x="145" y="116" type="line"/>
      <point x="280.058095538" y="156.017213493"/>
      <point x="354.0" y="203.462765957"/>
      <point x="354" y="305" type="curve" smooth="yes"/>
      <point x="354.0" y="372.0"/>
      <point x="311.0" y="458.0"/>
      <point x="311" y="519" type="curve" smooth="yes"/>
      <point x="311" y="572"/>
      <point x="339" y="622"/>
      <point x="390" y="622" type="curve" smooth="yes"/>
      <point x="444.710526316" y="622.0"/>
      <point x="453.969632548" y="561.878955376"/>
      <point x="467" y="528" type="curve" smooth="yes"/>
      <point x="477" y="502" type="line"/>
      <point x="484" y="502" type="line"/>
      <point x="558" y="549" type="line" smooth="yes"/>
      <point x="572" y="558"/>
      <point x="575" y="565"/>
      <point x="575" y="577" type="curve" smooth="yes"/>
      <point x="575" y="584"/>
      <point x="571" y="592"/>
      <point x="564" y="603" type="curve" smooth="yes"/>
      <point x="544" y="634"/>
      <point x="493" y="670"/>
      <point x="399" y="670" type="curve" smooth="yes"/>
      <point x="265" y="670"/>
      <point x="146" y="575"/>
      <point x="146" y="454" type="curve" smooth="yes"/>
      <point x="146" y="387"/>
      <point x="185" y="307"/>
      <point x="185" y="254" type="curve" smooth="yes"/>
      <point x="185" y="188"/>
      <point x="170" y="160"/>
      <point x="38" y="70" type="curve"/>
    </contour>
    <contour>
      <point x="77" y="312" type="line"/>
      <point x="475" y="312" type="line"/>
      <point x="483" y="356" type="line"/>
      <point x="85" y="356" type="line"/>
    </contour>
  </outline>
</glyph>
<glyph name="yen" format="2">
  <advance width="600"/>
  <unicode hex="00A5"/>
  <outline>
    <contour>
      <point x="84" y="0" type="line"/>
      <point x="410" y="0" type="line"/>
      <point x="413" y="16" type="line"/>
      <point x="340" y="58" type="line"/>
      <point x="408" y="444" type="line"/>
      <point x="360" y="354" type="line"/>
      <point x="589" y="632" type="line"/>
      <point x="513" y="595" type="line"/>
      <point x="646" y="644" type="line"/>
      <point x="648" y="660" type="line"/>
      <point x="443" y="660" type="line"/>
      <point x="441" y="644" type="line"/>
      <point x="498" y="613" type="line"/>
      <point x="498" y="609" type="line"/>
      <point x="359" y="418" type="line"/>
      <point x="396" y="439" type="line"/>
      <point x="307" y="610" type="line"/>
      <point x="308" y="614" type="line"/>
      <point x="375" y="645" type="line"/>
      <point x="377" y="660" type="line"/>
      <point x="67" y="660" type="line"/>
      <point x="65" y="644" type="line"/>
      <point x="156" y="595" type="line"/>
      <point x="112" y="632" type="line"/>
      <point x="262" y="356" type="line"/>
      <point x="242" y="444" type="line"/>
      <point x="174" y="58" type="line"/>
      <point x="87" y="16" type="line"/>
    </contour>
    <contour>
      <point x="71" y="237" type="line"/>
      <point x="507" y="237" type="line"/>
      <point x="515" y="281" type="line"/>
      <point x="79" y="281" type="line"/>
    </contour>
    <contour>
      <point x="97" y="386" type="line"/>
      <point x="533" y="386" type="line"/>
      <point x="541" y="430" type="line"/>
      <point x="105" y="430" type="line"/>
    </contour>
  </outline>
</glyph>
<glyph name="section" format="2">
  <advance width="566.0"/>
  <unicode hex="00A7"/>
  <outline>
    <contour>
      <point x="539" y="322" type="curve" smooth="yes"/>
      <point x="539" y="480"/>
      <point x="280" y="448"/>
      <point x="280" y="548" type="curve" smooth="yes"/>
      <point x="280" y="586"/>
      <point x="308" y="620"/>
      <point x="363" y="620" type="curve" smooth="yes"/>
      <point x="420" y="620"/>
      <point x="439" y="565"/>
      <point x="454" y="545" type="curve" smooth="yes"/>
      <point x="462" y="534" type="line"/>
      <point x="472" y="531" type="line"/>
      <point x="528" y="576" type="line" smooth="yes"/>
      <point x="539" y="586"/>
      <point x="546" y="593"/>
      <point x="546" y="604" type="curve" smooth="yes"/>
      <point x="546" y="610"/>
      <point x="543" y="615"/>
      <point x="536" y="623" type="curve" smooth="yes"/>
      <point x="515" y="644"/>
      <point x="475" y="670"/>
      <point x="390" y="670" type="curve" smooth="yes"/>
      <point x="252" y="670"/>
      <point x="147" y="566"/>
      <point x="147" y="475" type="curve" smooth="yes"/>
      <point x="147" y="319"/>
      <point x="398" y="361"/>
      <point x="398" y="252" type="curve" smooth="yes"/>
      <point x="398" y="220"/>
      <point x="372" y="189"/>
      <point x="336" y="178" type="curve"/>
      <point x="329" y="134" type="line"/>
      <point x="445" y="149"/>
      <point x="539" y="232"/>
    </contour>
    <contour>
      <point x="175" y="-122" type="curve" smooth="yes"/>
      <point x="313" y="-122"/>
      <point x="427" y="-24"/>
      <point x="427" y="70" type="curve" smooth="yes"/>
      <point x="427" y="226"/>
      <point x="167" y="187"/>
      <point x="167" y="297" type="curve" smooth="yes"/>
      <point x="167" y="331"/>
      <point x="201" y="367"/>
      <point x="240" y="381" type="curve"/>
      <point x="246" y="414" type="line"/>
      <point x="126" y="400"/>
      <point x="26" y="311"/>
      <point x="26" y="222" type="curve" smooth="yes"/>
      <point x="26" y="62"/>
      <point x="288" y="100"/>
      <point x="288" y="-1" type="curve" smooth="yes"/>
      <point x="288" y="-41"/>
      <point x="252" y="-72"/>
      <point x="208" y="-72" type="curve" smooth="yes"/>
      <point x="154" y="-72"/>
      <point x="126" y="-17"/>
      <point x="112" y="3" type="curve" smooth="yes"/>
      <point x="103" y="14" type="line"/>
      <point x="94" y="17" type="line"/>
      <point x="38" y="-28" type="line" smooth="yes"/>
      <point x="26" y="-38"/>
      <point x="20" y="-46"/>
      <point x="20" y="-56" type="curve" smooth="yes"/>
      <point x="20" y="-62"/>
      <point x="22" y="-67"/>
      <point x="30" y="-75" type="curve" smooth="yes"/>
      <point x="51" y="-96"/>
      <point x="90" y="-122"/>
    </contour>
  </outline>
</glyph>
<glyph name="paragraph" format="2">
  <advance width="533"/>
  <unicode hex="00B6"/>
  <outline>
    <contour>
      <point x="200" y="-110" type="line"/>
      <point x="259" y="-110" type="line"/>
      <point x="395" y="660" type="line"/>
      <point x="280" y="660" type="line" smooth="yes"/>
      <point x="159" y="660"/>
      <point x="80" y="591"/>
      <point x="80" y="489" type="curve" smooth="yes"/>
      <point x="80" y="413"/>
      <point x="145" y="359"/>
      <point x="243" y="359" type="curve" smooth="yes"/>
      <point x="283" y="359" type="line"/>
    </contour>
    <contour>
      <point x="313" y="-110" type="line"/>
      <point x="372" y="-110" type="line"/>
      <point x="498" y="602" type="line"/>
      <point x="585" y="644" type="line"/>
      <point x="588" y="660" type="line"/>
      <point x="449" y="660" type="line"/>
    </contour>
  </outline>
</glyph>
<glyph name="multiply" format="2">
  <advance width="600"/>
  <unicode hex="00D7"/>
  <outline>
    <contour>
      <point x="120" y="84" type="line"/>
      <point x="512" y="417" type="line"/>
      <point x="476" y="462" type="line"/>
      <point x="85" y="129" type="line"/>
    </contour>
    <contour>
      <point x="139" y="421" type="line"/>
      <point x="411" y="84" type="line"/>
      <point x="458" y="125" type="line"/>
      <point x="186" y="462" type="line"/>
    </contour>
  </outline>
</glyph>
<glyph name="ae" format="2">
  <advance width="718"/>
  <unicode hex="00E6"/>
  <anchor x="452" y="510" name="top"/>
  <outline>
    <contour>
      <point x="126" y="-10" type="curve" smooth="yes"/>
      <point x="195" y="-10"/>
      <point x="241" y="27"/>
      <point x="315" y="127" type="curve"/>
      <point x="308" y="132" type="line"/>
      <point x="319" y="44"/>
      <point x="371" y="-10"/>
      <point x="471" y="-10" type="curve" smooth="yes"/>
      <point x="577" y="-10"/>
      <point x="656" y="72"/>
      <point x="700" y="152" type="curve"/>
      <point x="682" y="170" type="line"/>
      <point x="679" y="170" type="line"/>
      <point x="634" y="137"/>
      <point x="604" y="121"/>
      <point x="564" y="121" type="curve" smooth="yes"/>
      <point x="515" y="121"/>
      <point x="469" y="163"/>
      <point x="469" y="227" type="curve" smooth="yes"/>
      <point x="469" y="342"/>
      <point x="521" y="425"/>
      <point x="563" y="425" type="curve" smooth="yes"/>
      <point x="588" y="425"/>
      <point x="593" y="409"/>
      <point x="593" y="394" type="curve" smooth="yes"/>
      <point x="593" y="351"/>
      <point x="552" y="303"/>
      <point x="425" y="268" type="curve"/>
      <point x="437" y="236" type="line"/>
      <point x="654" y="290"/>
      <point x="708" y="332"/>
      <point x="708" y="388" type="curve" smooth="yes"/>
      <point x="708" y="434"/>
      <point x="670" y="470"/>
      <point x="600" y="470" type="curve" smooth="yes"/>
      <point x="535" y="470"/>
      <point x="477" y="448"/>
      <point x="430" y="413" type="curve"/>
      <point x="482" y="413" type="line"/>
      <point x="454" y="452"/>
      <point x="405" y="470"/>
      <point x="348" y="470" type="curve" smooth="yes"/>
      <point x="204" y="470"/>
      <point x="30" y="324"/>
      <point x="30" y="115" type="curve" smooth="yes"/>
      <point x="30" y="36"/>
      <point x="70" y="-10"/>
    </contour>
    <contour>
      <point x="231" y="99" type="curve" smooth="yes"/>
      <point x="209" y="99"/>
      <point x="200" y="122"/>
      <point x="200" y="178" type="curve" smooth="yes"/>
      <point x="200.0" y="307.0"/>
      <point x="240" y="420"/>
      <point x="324" y="420" type="curve" smooth="yes"/>
      <point x="361.5375" y="420.0"/>
      <point x="381" y="397"/>
      <point x="401" y="365" type="curve"/>
      <point x="403" y="390" type="line"/>
      <point x="342" y="332"/>
      <point x="306" y="250"/>
      <point x="306" y="171" type="curve" smooth="yes"/>
      <point x="306" y="162"/>
      <point x="306" y="154"/>
      <point x="307" y="146" type="curve"/>
      <point x="308" y="160" type="line"/>
      <point x="280" y="123"/>
      <point x="258" y="99"/>
    </contour>
    <contour>
      <point x="319" y="135" type="line"/>
      <point x="294" y="114" type="line"/>
      <point x="315" y="114" type="line"/>
    </contour>
  </outline>
</glyph>
<glyph name="eth" format="2">
  <advance width="506.0"/>
  <unicode hex="00F0"/>
  <outline>
    <contour>
      <point x="222" y="-10" type="curve" smooth="yes"/>
      <point x="383" y="-10"/>
      <point x="502" y="134"/>
      <point x="502" y="330" type="curve" smooth="yes"/>
      <point x="502" y="533"/>
      <point x="359" y="700"/>
      <point x="132" y="749" type="curve"/>
      <point x="124" y="722" type="line"/>
      <point x="262.2015465534116" y="667.5263977088742"/>
      <point x="335.0" y="566.7301587301588"/>
      <point x="335" y="387" type="curve" smooth="yes"/>
      <point x="335" y="185"/>
      <point x="284" y="43"/>
      <point x="232" y="43" type="curve" smooth="yes"/>
      <point x="201" y="43"/>
      <point x="184" y="77"/>
      <point x="184" y="145" type="curve" smooth="yes"/>
      <point x="184" y="326"/>
      <point x="233" y="418"/>
      <point x="293" y="418" type="curve" smooth="yes"/>
      <point x="335.508474576" y="418.0"/>
      <point x="345" y="383"/>
      <point x="359" y="342" type="curve"/>
      <point x="399" y="439" type="line"/>
      <point x="368" y="454"/>
      <point x="342" y="470"/>
      <point x="286" y="470" type="curve" smooth="yes"/>
      <point x="134" y="470"/>
      <point x="23" y="331"/>
      <point x="23" y="190" type="curve" smooth="yes"/>
      <point x="23" y="74"/>
      <point x="99" y="-10"/>
    </contour>
    <contour>
      <point x="149" y="523" type="line"/>
      <point x="227" y="523" type="line"/>
      <point x="512" y="740" type="line"/>
      <point x="434" y="740" type="line"/>
    </contour>
  </outline>
</glyph>
<glyph name="divide" format="2">
  <advance width="600.0"/>
  <unicode hex="00F7"/>
  <outline>
    <contour>
      <point x="235" y="134" type="line"/>
      <point x="222" y="62" type="line"/>
      <point x="294" y="62" type="line"/>
      <point x="307" y="134" type="line"/>
    </contour>
    <contour>
      <point x="500" y="244" type="line"/>
      <point x="510" y="300" type="line"/>
      <point x="90" y="300" type="line"/>
      <point x="80" y="244" type="line"/>
    </contour>
    <contour>
      <point x="296" y="482" type="line"/>
      <point x="283" y="410" type="line"/>
      <point x="355" y="410" type="line"/>
      <point x="368" y="482" type="line"/>
    </contour>
  </outline>
</glyph>
<glyph name="eogonek" format="2">
  <advance width="437.0"/>
  <unicode hex="0119"/>
  <outline>
    <contour>
      <point x="190" y="-10" type="curve" smooth="yes"/>
      <point x="216" y="-10"/>
      <point x="240" y="-5"/>
      <point x="263" y="3" type="curve"/>
      <point x="283" y="27" type="line"/>
      <point x="221" y="-30"/>
      <point x="158.0" y="-89.0"/>
      <point x="158" y="-160" type="curve" smooth="yes"/>
      <point x="158" y="-209"/>
      <point x="192" y="-240"/>
      <point x="249" y="-240" type="curve" smooth="yes"/>
      <point x="293" y="-240"/>
      <point x="324" y="-220"/>
      <point x="344" y="-189" type="curve"/>
      <point x="350" y="-167" type="line"/>
      <point x="346" y="-167" type="line"/>
      <point x="336" y="-177"/>
      <point x="318" y="-183"/>
      <point x="304" y="-183" type="curve" smooth="yes"/>
      <point x="269" y="-183"/>
      <point x="251" y="-164"/>
      <point x="251" y="-130" type="curve" smooth="yes"/>
      <point x="251.0" y="-77.3619631902"/>
      <point x="279" y="-14"/>
      <point x="312" y="26" type="curve"/>
      <point x="349" y="64"/>
      <point x="394.469800071" y="107.205721869"/>
      <point x="419" y="152" type="curve"/>
      <point x="401" y="170" type="line"/>
      <point x="398" y="170" type="line"/>
      <point x="353" y="137"/>
      <point x="323" y="121"/>
      <point x="283" y="121" type="curve" smooth="yes"/>
      <point x="234" y="121"/>
      <point x="188" y="163"/>
      <point x="188" y="227" type="curve" smooth="yes"/>
      <point x="188" y="342"/>
      <point x="240" y="425"/>
      <point x="282" y="425" type="curve" smooth="yes"/>
      <point x="307" y="425"/>
      <point x="312" y="409"/>
      <point x="312" y="394" type="curve" smooth="yes"/>
      <point x="312" y="351"/>
      <point x="271" y="303"/>
      <point x="144" y="268" type="curve"/>
      <point x="156" y="236" type="line"/>
      <point x="373" y="290"/>
      <point x="427" y="332"/>
      <point x="427" y="388" type="curve" smooth="yes"/>
      <point x="427" y="434"/>
      <point x="389" y="470"/>
      <point x="319" y="470" type="curve" smooth="yes"/>
      <point x="145" y="470"/>
      <point x="25" y="315"/>
      <point x="25" y="171" type="curve" smooth="yes"/>
      <point x="25" y="60"/>
      <point x="76" y="-10"/>
    </contour>
  </outline>
</glyph>
<glyph name="iogonek" format="2">
  <advance width="310.0"/>
  <unicode hex="012F"/>
  <outline>
    <contour>
      <point x="147" y="-10" type="curve" smooth="yes"/>
      <point x="222" y="-10"/>
      <point x="270" y="55"/>
      <point x="306" y="153" type="curve"/>
      <point x="284" y="160" type="line"/>
      <point x="260" y="106"/>
      <point x="241" y="89"/>
      <point x="223" y="89" type="curve" smooth="yes"/>
      <point x="207" y="89"/>
      <point x="201" y="107"/>
      <point x="205" y="131" type="curve" smooth="yes"/>
      <point x="265" y="470" type="line"/>
      <point x="262" y="470" type="line"/>
      <point x="30" y="430" type="line"/>
      <point x="30" y="414" type="line"/>
      <point x="88" y="381" type="line"/>
      <point x="47" y="150" type="line" smooth="yes"/>
      <point x="28" y="43"/>
      <point x="69" y="-10"/>
    </contour>
    <contour>
      <point x="211" y="552" type="curve" smooth="yes"/>
      <point x="260" y="552"/>
      <point x="296" y="587"/>
      <point x="296" y="637" type="curve" smooth="yes"/>
      <point x="296" y="687"/>
      <point x="260" y="723"/>
      <point x="211" y="723" type="curve" smooth="yes"/>
      <point x="162" y="723"/>
      <point x="125" y="687"/>
      <point x="125" y="637" type="curve" smooth="yes"/>
      <point x="125" y="587"/>
      <point x="162" y="552"/>
    </contour>
    <contour>
      <point x="123" y="-240" type="curve" smooth="yes"/>
      <point x="167" y="-240"/>
      <point x="198" y="-220"/>
      <point x="218" y="-189" type="curve"/>
      <point x="224" y="-167" type="line"/>
      <point x="220" y="-167" type="line"/>
      <point x="210" y="-177"/>
      <point x="192" y="-183"/>
      <point x="178" y="-183" type="curve" smooth="yes"/>
      <point x="143" y="-183"/>
      <point x="125" y="-164"/>
      <point x="125" y="-130" type="curve" smooth="yes"/>
      <point x="125" y="-76"/>
      <point x="152" y="-19"/>
      <point x="183" y="27" type="curve"/>
      <point x="160" y="27" type="line"/>
      <point x="98" y="-25"/>
      <point x="32" y="-89"/>
      <point x="32" y="-160" type="curve" smooth="yes"/>
      <point x="32" y="-209"/>
      <point x="66" y="-240"/>
    </contour>
  </outline>
</glyph>
<glyph name="lslash" format="2">
  <advance width="308.0"/>
  <unicode hex="0142"/>
  <outline>
    <contour>
      <point x="145" y="-10" type="curve" smooth="yes"/>
      <point x="220" y="-10"/>
      <point x="268" y="55"/>
      <point x="304" y="153" type="curve"/>
      <point x="282" y="160" type="line"/>
      <point x="258" y="106"/>
      <point x="239" y="89"/>
      <point x="221" y="89" type="curve" smooth="yes"/>
      <point x="205" y="89"/>
      <point x="199" y="107"/>
      <point x="203" y="131" type="curve" smooth="yes"/>
      <point x="313" y="750" type="line"/>
      <point x="310" y="750" type="line"/>
      <point x="66" y="710" type="line"/>
      <point x="66" y="694" type="line"/>
      <point x="135" y="661" type="line"/>
      <point x="45" y="150" type="line" smooth="yes"/>
      <point x="26" y="43"/>
      <point x="67" y="-10"/>
    </contour>
    <contour>
      <point x="0" y="207" type="line"/>
      <point x="107" y="279" type="line"/>
      <point x="196" y="317" type="line"/>
      <point x="324" y="405" type="line"/>
      <point x="337" y="467" type="line"/>
      <point x="207" y="380" type="line"/>
      <point x="119" y="342" type="line"/>
      <point x="12" y="269" type="line"/>
    </contour>
  </outline>
</glyph>
<glyph name="eng" format="2">
  <advance width="561.0"/>
  <unicode hex="014B"/>
  <outline>
    <contour>
      <point x="30" y="0" type="line"/>
      <point x="193" y="0" type="line"/>
      <point x="253" y="358" type="line"/>
      <point x="253" y="470" type="line"/>
      <point x="250" y="470" type="line"/>
      <point x="38" y="430" type="line"/>
      <point x="38" y="414" type="line"/>
      <point x="96" y="381" type="line"/>
    </contour>
    <contour>
      <point x="189" y="-230" type="line"/>
      <point x="365" y="-167"/>
      <point x="441" y="-87"/>
      <point x="463" y="39" type="curve" smooth="yes"/>
      <point x="512" y="322" type="line" smooth="yes"/>
      <point x="527" y="413"/>
      <point x="485" y="470"/>
      <point x="413" y="470" type="curve" smooth="yes"/>
      <point x="350" y="470"/>
      <point x="322" y="444"/>
      <point x="258" y="372" type="curve"/>
      <point x="238" y="372" type="line"/>
      <point x="238" y="317" type="line"/>
      <point x="262" y="346"/>
      <point x="289" y="371"/>
      <point x="318" y="371" type="curve" smooth="yes"/>
      <point x="348" y="371"/>
      <point x="355" y="346"/>
      <point x="350" y="317" type="curve" smooth="yes"/>
      <point x="294" y="-10" type="line" smooth="yes"/>
      <point x="271" y="-143"/>
      <point x="262" y="-160"/>
      <point x="189" y="-210" type="curve"/>
    </contour>
  </outline>
</glyph>
<glyph name="OE" format="2">
  <advance width="1010"/>
  <unicode hex="0152"/>
  <outline>
    <contour>
      <point x="382" y="0" type="curve" smooth="yes"/>
      <point x="607" y="0" type="line"/>
      <point x="723" y="660" type="line"/>
      <point x="472" y="660" type="line" smooth="yes"/>
      <point x="210" y="660"/>
      <point x="40" y="500"/>
      <point x="40" y="285" type="curve" smooth="yes"/>
      <point x="40" y="113"/>
      <point x="162" y="0"/>
    </contour>
    <contour>
      <point x="409" y="53" type="line" smooth="yes"/>
      <point x="290" y="53"/>
      <point x="216" y="128"/>
      <point x="216" y="273" type="curve" smooth="yes"/>
      <point x="216" y="474"/>
      <point x="311" y="612"/>
      <point x="479" y="612" type="curve" smooth="yes"/>
      <point x="585" y="612" type="line"/>
      <point x="548" y="638" type="line"/>
      <point x="442" y="34" type="line"/>
      <point x="474" y="53" type="line"/>
    </contour>
    <contour>
      <point x="950" y="486" type="line"/>
      <point x="965" y="486" type="line"/>
      <point x="995" y="660" type="line"/>
      <point x="631" y="660" type="line"/>
      <point x="621" y="605" type="line"/>
      <point x="897" y="605" type="line"/>
    </contour>
    <contour>
      <point x="829" y="227" type="line"/>
      <point x="845" y="227" type="line"/>
      <point x="886" y="456" type="line"/>
      <point x="870" y="456" type="line"/>
      <point x="792" y="368" type="line"/>
      <point x="587" y="368" type="line"/>
      <point x="577" y="313" type="line"/>
      <point x="782" y="313" type="line"/>
    </contour>
    <contour>
      <point x="905" y="0" type="line"/>
      <point x="944" y="219" type="line"/>
      <point x="928" y="219" type="line"/>
      <point x="817" y="55" type="line"/>
      <point x="547" y="55" type="line"/>
      <point x="540" y="0" type="line"/>
    </contour>
  </outline>
</glyph>
<glyph name="Scedilla" format="2">
  <advance width="573.0"/>
  <unicode hex="015E"/>
  <outline>
    <contour>
      <point x="225" y="-10" type="curve" smooth="yes"/>
      <point x="390" y="-10"/>
      <point x="504" y="95"/>
      <point x="504" y="215" type="curve" smooth="yes"/>
      <point x="504" y="303"/>
      <point x="458" y="340"/>
      <point x="365" y="398" type="curve" smooth="yes"/>
      <point x="286" y="447"/>
      <point x="261" y="476"/>
      <point x="261" y="521" type="curve" smooth="yes"/>
      <point x="261" y="573"/>
      <point x="306" y="616"/>
      <point x="366" y="616" type="curve" smooth="yes"/>
      <point x="404" y="616"/>
      <point x="425" y="603"/>
      <point x="444" y="585" type="curve"/>
      <point x="504" y="462" type="line"/>
      <point x="522" y="462" type="line"/>
      <point x="538" y="622" type="line"/>
      <point x="496" y="652"/>
      <point x="435" y="670"/>
      <point x="371" y="670" type="curve" smooth="yes"/>
      <point x="218" y="670"/>
      <point x="104" y="573"/>
      <point x="104" y="453" type="curve" smooth="yes"/>
      <point x="104" y="371"/>
      <point x="135" y="337"/>
      <point x="210" y="289" type="curve" smooth="yes"/>
      <point x="317" y="221"/>
      <point x="350" y="202"/>
      <point x="350" y="144" type="curve" smooth="yes"/>
      <point x="350" y="82"/>
      <point x="291" y="43"/>
      <point x="221" y="43" type="curve" smooth="yes"/>
      <point x="176" y="43"/>
      <point x="146" y="61"/>
      <point x="127" y="76" type="curve"/>
      <point x="66" y="217" type="line"/>
      <point x="48" y="217" type="line"/>
      <point x="30" y="44" type="line"/>
      <point x="82" y="11"/>
      <point x="142" y="-10"/>
    </contour>
    <contour>
      <point x="202" y="-240" type="curve" smooth="yes"/>
      <point x="273" y="-240"/>
      <point x="323" y="-197"/>
      <point x="323" y="-137" type="curve" smooth="yes"/>
      <point x="323" y="-90"/>
      <point x="291" y="-53"/>
      <point x="208" y="-38" type="curve"/>
      <point x="219" y="-61" type="line"/>
      <point x="268" y="27" type="line"/>
      <point x="234" y="27" type="line"/>
      <point x="155" y="-107" type="line"/>
      <point x="221" y="-120"/>
      <point x="242" y="-143"/>
      <point x="242" y="-167" type="curve" smooth="yes"/>
      <point x="242" y="-193"/>
      <point x="220" y="-208"/>
      <point x="186" y="-208" type="curve" smooth="yes"/>
      <point x="170" y="-208"/>
      <point x="149" y="-205"/>
      <point x="137" y="-199" type="curve"/>
      <point x="133" y="-199" type="line"/>
      <point x="129" y="-221" type="line"/>
      <point x="146" y="-232"/>
      <point x="169" y="-240"/>
    </contour>
  </outline>
</glyph>
<glyph name="Uogonek" format="2">
  <advance width="747.0"/>
  <unicode hex="0172"/>
  <outline>
    <contour>
      <point x="361" y="27" type="line"/>
      <point x="299" y="-25"/>
      <point x="233" y="-89"/>
      <point x="233" y="-160" type="curve" smooth="yes"/>
      <point x="233" y="-209"/>
      <point x="267" y="-240"/>
      <point x="324" y="-240" type="curve" smooth="yes"/>
      <point x="368" y="-240"/>
      <point x="399" y="-220"/>
      <point x="419" y="-189" type="curve"/>
      <point x="425" y="-167" type="line"/>
      <point x="421" y="-167" type="line"/>
      <point x="411" y="-177"/>
      <point x="393" y="-183"/>
      <point x="379" y="-183" type="curve" smooth="yes"/>
      <point x="344" y="-183"/>
      <point x="326" y="-164"/>
      <point x="326" y="-130" type="curve" smooth="yes"/>
      <point x="326" y="-76"/>
      <point x="353" y="-19"/>
      <point x="384" y="27" type="curve"/>
    </contour>
    <contour>
      <point x="359" y="-10" type="curve" smooth="yes"/>
      <point x="516" y="-10"/>
      <point x="624" y="67"/>
      <point x="665" y="302" type="curve" smooth="yes"/>
      <point x="717" y="603" type="line"/>
      <point x="805" y="644" type="line"/>
      <point x="808" y="660" type="line"/>
      <point x="584" y="660" type="line"/>
      <point x="581" y="644" type="line"/>
      <point x="655" y="604" type="line"/>
      <point x="595" y="255" type="line" smooth="yes"/>
      <point x="573" y="125"/>
      <point x="493" y="77"/>
      <point x="414" y="77" type="curve" smooth="yes"/>
      <point x="334" y="77"/>
      <point x="273" y="114"/>
      <point x="273" y="223" type="curve" smooth="yes"/>
      <point x="273" y="243"/>
      <point x="275" y="265"/>
      <point x="279" y="290" type="curve" smooth="yes"/>
      <point x="333" y="602" type="line"/>
      <point x="421" y="644" type="line"/>
      <point x="424" y="660" type="line"/>
      <point x="91" y="660" type="line"/>
      <point x="88" y="644" type="line"/>
      <point x="162" y="602" type="line"/>
      <point x="110" y="302" type="line" smooth="yes"/>
      <point x="104" y="268"/>
      <point x="101" y="238"/>
      <point x="101" y="211" type="curve" smooth="yes"/>
      <point x="101" y="47"/>
      <point x="203" y="-10"/>
    </contour>
  </outline>
</glyph>
<glyph name="Ohorn" format="2">
  <advance width="779.0"/>
  <unicode hex="01A0"/>
  <anchor x="455.0" y="710.0" name="top"/>
  <anchor x="353.0" y="0.0" name="right"/>
  <anchor x="335.0" y="0.0" name="bottom"/>
  <outline>
    <contour>
      <point x="339" y="-10" type="curve" smooth="yes"/>
      <point x="575" y="-10"/>
      <point x="739" y="166"/>
      <point x="739" y="390" type="curve" smooth="yes"/>
      <point x="739" y="555"/>
      <point x="632" y="670"/>
      <point x="439" y="670" type="curve" smooth="yes"/>
      <point x="215" y="670"/>
      <point x="40" y="494"/>
      <point x="40" y="271" type="curve" smooth="yes"/>
      <point x="40" y="105"/>
      <point x="145" y="-10"/>
    </contour>
    <contour>
      <point x="349" y="42" type="curve" smooth="yes"/>
      <point x="263" y="42"/>
      <point x="221" y="125"/>
      <point x="221" y="245" type="curve" smooth="yes"/>
      <point x="221" y="445"/>
      <point x="313" y="617"/>
      <point x="431" y="617" type="curve" smooth="yes"/>
      <point x="526" y="617"/>
      <point x="558" y="535"/>
      <point x="558" y="416" type="curve" smooth="yes"/>
      <point x="558" y="214"/>
      <point x="475" y="42"/>
    </contour>
    <contour>
      <point x="515" y="637" type="line"/>
      <point x="552" y="615"/>
      <point x="597" y="608"/>
      <point x="643" y="608" type="curve" smooth="yes"/>
      <point x="751" y="608"/>
      <point x="805" y="666"/>
      <point x="805" y="734" type="curve" smooth="yes"/>
      <point x="805" y="750"/>
      <point x="798" y="753"/>
      <point x="781" y="753" type="curve" smooth="yes"/>
      <point x="711" y="753" type="line"/>
      <point x="704" y="747" type="line"/>
      <point x="697" y="701" type="line" smooth="yes"/>
      <point x="691" y="664"/>
      <point x="667" y="641"/>
      <point x="608" y="641" type="curve" smooth="yes"/>
      <point x="586" y="641"/>
      <point x="563" y="643"/>
      <point x="528" y="660" type="curve"/>
    </contour>
  </outline>
</glyph>
<glyph name="ohorn" format="2">
  <advance width="506.0"/>
  <unicode hex="01A1"/>
  <anchor x="303" y="510" name="top"/>
  <anchor x="247" y="0" name="right"/>
  <anchor x="214" y="0" name="bottom"/>
  <outline>
    <contour>
      <point x="218" y="-10" type="curve" smooth="yes"/>
      <point x="377" y="-10"/>
      <point x="481" y="128"/>
      <point x="481" y="263" type="curve" smooth="yes"/>
      <point x="481" y="379"/>
      <point x="415" y="470"/>
      <point x="275" y="470" type="curve" smooth="yes"/>
      <point x="136" y="470"/>
      <point x="25" y="339"/>
      <point x="25" y="197" type="curve" smooth="yes"/>
      <point x="25" y="83"/>
      <point x="89" y="-10"/>
    </contour>
    <contour>
      <point x="233" y="43" type="curve" smooth="yes"/>
      <point x="198" y="43"/>
      <point x="185" y="94"/>
      <point x="185" y="166" type="curve" smooth="yes"/>
      <point x="185" y="299"/>
      <point x="226" y="418"/>
      <point x="274" y="418" type="curve" smooth="yes"/>
      <point x="305" y="418"/>
      <point x="321" y="381"/>
      <point x="321" y="299" type="curve" smooth="yes"/>
      <point x="321" y="167"/>
      <point x="281" y="43"/>
    </contour>
    <contour>
      <point x="362" y="427" type="line"/>
      <point x="394" y="404"/>
      <point x="433" y="399"/>
      <point x="473" y="399" type="curve" smooth="yes"/>
      <point x="566.0" y="399.0"/>
      <point x="616" y="466"/>
      <point x="616" y="527" type="curve" smooth="yes"/>
      <point x="616" y="541"/>
      <point x="608" y="543"/>
      <point x="592" y="543" type="curve" smooth="yes"/>
      <point x="522" y="543" type="line"/>
      <point x="515" y="537" type="line"/>
      <point x="508" y="491" type="line" smooth="yes"/>
      <point x="502" y="455"/>
      <point x="482" y="433"/>
      <point x="437" y="433" type="curve" smooth="yes"/>
      <point x="420" y="433"/>
      <point x="401" y="437"/>
      <point x="375" y="450" type="curve"/>
    </contour>
  </outline>
</glyph>
<glyph name="ringhalfright" format="2">
  <advance width="176"/>
  <unicode hex="02BF"/>
  <outline>
    <contour>
      <point x="155.02134196490937" y="522" type="curve"/>
      <point x="159.02134196490937" y="549" type="line"/>
      <point x="146.02134196490937" y="551"/>
      <point x="137.02134196490937" y="567"/>
      <point x="137.02134196490937" y="598" type="curve" smooth="yes"/>
      <point x="137.02134196490937" y="657"/>
      <point x="156.02134196490937" y="687"/>
      <point x="183.02134196490937" y="687" type="curve"/>
      <point x="187.02134196490937" y="714" type="line"/>
      <point x="126.02134196490937" y="714"/>
      <point x="81.02134196490937" y="670"/>
      <point x="81.02134196490937" y="606" type="curve" smooth="yes"/>
      <point x="81.02134196490937" y="558"/>
      <point x="106.02134196490937" y="522"/>
    </contour>
  </outline>
</glyph>
<glyph name="verticallinemod" format="2">
  <advance width="144"/>
  <unicode hex="02C8"/>
  <outline>
    <contour>
      <point x="82.16746733951439" y="535" type="line"/>
      <point x="126.16746733951439" y="535" type="line"/>
      <point x="156.1674673395144" y="701" type="line"/>
      <point x="112.16746733951439" y="701" type="line"/>
    </contour>
  </outline>
</glyph>
<glyph name="gravecomb" format="2">
  <unicode hex="0300"/>
  <anchor x="83" y="510" name="_top"/>
  <outline>
    <contour>
      <point x="75" y="530" type="line"/>
      <point x="100" y="530" type="line"/>
      <point x="15" y="707" type="line"/>
      <point x="-98" y="707" type="line"/>
      <point x="-101" y="687"/>
      <point x="-104" y="664"/>
      <point x="-77" y="644" type="curve" smooth="yes"/>
    </contour>
  </outline>
</glyph>
<glyph name="acutecomb" format="2">
  <unicode hex="0301"/>
  <anchor x="-100" y="510" name="_top"/>
  <outline>
    <contour>
      <point x="-109" y="530" type="line"/>
      <point x="-84" y="530" type="line"/>
      <point x="66" y="644" type="line" smooth="yes"/>
      <point x="98" y="668"/>
      <point x="105" y="687"/>
      <point x="109" y="707" type="curve"/>
      <point x="-17" y="707" type="line"/>
    </contour>
  </outline>
</glyph>
<glyph name="dotaccentcomb" format="2">
  <unicode hex="0307"/>
  <anchor x="-19" y="510" name="_top"/>
  <outline>
    <contour>
      <point x="-1" y="542" type="curve" smooth="yes"/>
      <point x="44" y="542"/>
      <point x="76" y="573"/>
      <point x="76" y="618" type="curve" smooth="yes"/>
      <point x="76" y="663"/>
      <point x="44" y="696"/>
      <point x="-1" y="696" type="curve" smooth="yes"/>
      <point x="-45" y="696"/>
      <point x="-78" y="663"/>
      <point x="-78" y="618" type="curve" smooth="yes"/>
      <point x="-78" y="573"/>
      <point x="-45" y="542"/>
    </contour>
  </outline>
</glyph>
<glyph name="hungarumlautcomb" format="2">
  <unicode hex="030B"/>
  <anchor x="-84" y="510" name="_top"/>
  <outline>
    <contour>
      <point x="-172" y="530" type="line"/>
      <point x="-147" y="530" type="line"/>
      <point x="-22" y="644" type="line" smooth="yes"/>
      <point x="-3" y="662"/>
      <point x="3" y="683"/>
      <point x="-1" y="707" type="curve"/>
      <point x="-104" y="707" type="line"/>
    </contour>
    <contour>
      <point x="-20" y="530" type="line"/>
      <point x="5" y="530" type="line"/>
      <point x="149" y="644" type="line" smooth="yes"/>
      <point x="171" y="661"/>
      <point x="175" y="683"/>
      <point x="171" y="707" type="curve"/>
      <point x="68" y="707" type="line"/>
    </contour>
  </outline>
</glyph>
<glyph name="breveinvertedcomb" format="2">
  <unicode hex="0311"/>
  <anchor x="-12.0" y="510.0" name="_top"/>
  <outline>
    <contour>
      <point x="-166" y="540" type="curve"/>
      <point x="-141" y="540" type="line"/>
      <point x="-101" y="609"/>
      <point x="-55" y="626"/>
      <point x="13" y="626" type="curve" smooth="yes"/>
      <point x="83" y="626"/>
      <point x="120" y="613"/>
      <point x="141" y="540" type="curve"/>
      <point x="166" y="540" type="line"/>
      <point x="163" y="648"/>
      <point x="128" y="707"/>
      <point x="28" y="707" type="curve" smooth="yes"/>
      <point x="-63" y="707"/>
      <point x="-119" y="663"/>
    </contour>
  </outline>
</glyph>
<glyph name="commaturnedabovecomb" format="2">
  <unicode hex="0312"/>
  <anchor x="-21" y="510" name="_top"/>
  <outline>
    <contour>
      <point x="14" y="536" type="curve" smooth="yes"/>
      <point x="45" y="536"/>
      <point x="56" y="545"/>
      <point x="58" y="557" type="curve" smooth="yes"/>
      <point x="68" y="608" type="line"/>
      <point x="22" y="608"/>
      <point x="-1" y="618"/>
      <point x="-1" y="645" type="curve" smooth="yes"/>
      <point x="-1" y="667"/>
      <point x="16" y="681"/>
      <point x="50" y="681" type="curve" smooth="yes"/>
      <point x="57" y="681"/>
      <point x="71" y="680"/>
      <point x="80" y="678" type="curve"/>
      <point x="84" y="697" type="line"/>
      <point x="74" y="700"/>
      <point x="57" y="701"/>
      <point x="44" y="701" type="curve" smooth="yes"/>
      <point x="-28" y="701"/>
      <point x="-85" y="669"/>
      <point x="-85" y="612" type="curve" smooth="yes"/>
      <point x="-85" y="564"/>
      <point x="-51" y="536"/>
    </contour>
  </outline>
</glyph>
<glyph name="horncomb" format="2">
  <unicode hex="031B"/>
  <outline>
    <contour>
      <point x="-127" y="427" type="line"/>
      <point x="-95" y="404"/>
      <point x="-56" y="399"/>
      <point x="-16" y="399" type="curve" smooth="yes"/>
      <point x="77" y="399"/>
      <point x="127" y="466"/>
      <point x="127" y="527" type="curve" smooth="yes"/>
      <point x="127" y="541"/>
      <point x="119" y="543"/>
      <point x="103" y="543" type="curve" smooth="yes"/>
      <point x="33" y="543" type="line"/>
      <point x="26" y="537" type="line"/>
      <point x="19" y="491" type="line" smooth="yes"/>
      <point x="13" y="455"/>
      <point x="-7" y="433"/>
      <point x="-52" y="433" type="curve" smooth="yes"/>
      <point x="-69" y="433"/>
      <point x="-88" y="437"/>
      <point x="-114" y="450" type="curve"/>
    </contour>
  </outline>
</glyph>
<glyph name="dieresisbelowcomb" format="2">
  <unicode hex="0324"/>
  <anchor x="27" y="0" name="_bottom"/>
  <outline>
    <contour>
      <point x="-100" y="-208" type="curve" smooth="yes"/>
      <point x="-66" y="-208"/>
      <point x="-42" y="-181"/>
      <point x="-42" y="-150" type="curve" smooth="yes"/>
      <point x="-42" y="-119"/>
      <point x="-66" y="-92"/>
      <point x="-100" y="-92" type="curve" smooth="yes"/>
      <point x="-134" y="-92"/>
      <point x="-158" y="-119"/>
      <point x="-158" y="-150" type="curve" smooth="yes"/>
      <point x="-158" y="-181"/>
      <point x="-134" y="-208"/>
    </contour>
    <contour>
      <point x="99" y="-208" type="curve" smooth="yes"/>
      <point x="133" y="-208"/>
      <point x="157" y="-181"/>
      <point x="157" y="-150" type="curve" smooth="yes"/>
      <point x="157" y="-119"/>
      <point x="133" y="-92"/>
      <point x="99" y="-92" type="curve" smooth="yes"/>
      <point x="65" y="-92"/>
      <point x="41" y="-119"/>
      <point x="41" y="-150" type="curve" smooth="yes"/>
      <point x="41" y="-181"/>
      <point x="65" y="-208"/>
    </contour>
  </outline>
</glyph>
<glyph name="commaaccentcomb" format="2">
  <unicode hex="0326"/>
  <anchor x="30" y="0" name="_bottom"/>
  <outline>
    <contour>
      <point x="-45" y="-239" type="curve" smooth="yes"/>
      <point x="27" y="-239"/>
      <point x="84" y="-207"/>
      <point x="84" y="-150" type="curve" smooth="yes"/>
      <point x="84" y="-102"/>
      <point x="50" y="-74"/>
      <point x="-15" y="-74" type="curve" smooth="yes"/>
      <point x="-46" y="-74"/>
      <point x="-57" y="-83"/>
      <point x="-59" y="-95" type="curve" smooth="yes"/>
      <point x="-69" y="-146" type="line"/>
      <point x="-23" y="-146"/>
      <point x="0" y="-156"/>
      <point x="0" y="-183" type="curve" smooth="yes"/>
      <point x="0" y="-205"/>
      <point x="-17" y="-219"/>
      <point x="-51" y="-219" type="curve" smooth="yes"/>
      <point x="-58" y="-219"/>
      <point x="-72" y="-218"/>
      <point x="-81" y="-216" type="curve"/>
      <point x="-85" y="-235" type="line"/>
      <point x="-75" y="-238"/>
      <point x="-58" y="-239"/>
    </contour>
  </outline>
</glyph>
<glyph name="macronbelowcomb" format="2">
  <unicode hex="0331"/>
  <anchor x="28" y="0" name="_bottom"/>
  <outline>
    <contour>
      <point x="-159" y="-182" type="line"/>
      <point x="147" y="-182" type="line"/>
      <point x="159" y="-116" type="line"/>
      <point x="-147" y="-116" type="line"/>
    </contour>
  </outline>
</glyph>
<glyph name="uni0402" format="2">
  <advance width="792.0"/>
  <unicode hex="0402"/>
  <outline>
    <contour>
      <point x="555" y="177" type="curve" smooth="yes"/>
      <point x="534" y="56" type="line" smooth="yes"/>
      <point x="516" y="-50"/>
      <point x="493" y="-63"/>
      <point x="461" y="-63" type="curve" smooth="yes"/>
      <point x="448" y="-63"/>
      <point x="440" y="-61"/>
      <point x="424" y="-56" type="curve"/>
      <point x="414" y="-56" type="line"/>
      <point x="400" y="-91"/>
      <point x="387" y="-126"/>
      <point x="384" y="-144" type="curve" smooth="yes"/>
      <point x="380" y="-164"/>
      <point x="389" y="-173"/>
      <point x="409" y="-173" type="curve" smooth="yes"/>
      <point x="460" y="-173"/>
      <point x="521" y="-133"/>
      <point x="571" y="-85" type="curve" smooth="yes"/>
      <point x="616.502732152" y="-40.4073224909"/>
      <point x="709" y="61"/>
      <point x="732" y="188" type="curve" smooth="yes"/>
      <point x="753" y="304"/>
      <point x="705" y="390"/>
      <point x="575" y="390" type="curve" smooth="yes"/>
      <point x="489" y="390"/>
      <point x="423" y="364"/>
      <point x="390" y="336" type="curve"/>
      <point x="380" y="279" type="line"/>
      <point x="399" y="294"/>
      <point x="433" y="306"/>
      <point x="474" y="306" type="curve" smooth="yes"/>
      <point x="555" y="306"/>
      <point x="569" y="255"/>
    </contour>
    <contour>
      <point x="69" y="0" type="line"/>
      <point x="438" y="0" type="line"/>
      <point x="441" y="16" type="line"/>
      <point x="348" y="58" type="line"/>
      <point x="446" y="605" type="line"/>
      <point x="573" y="605" type="line"/>
      <point x="621" y="459" type="line"/>
      <point x="637" y="459" type="line"/>
      <point x="676" y="660" type="line"/>
      <point x="84" y="660" type="line"/>
      <point x="45" y="429" type="line"/>
      <point x="61" y="429" type="line"/>
      <point x="168" y="605" type="line"/>
      <point x="275" y="605" type="line"/>
      <point x="177" y="58" type="line"/>
      <point x="72" y="16" type="line"/>
    </contour>
  </outline>
</glyph>
<glyph name="uni0409" format="2">
  <advance width="955.0"/>
  <unicode hex="0409"/>
  <outline>
    <contour>
      <point x="275" y="481" type="curve" smooth="yes"/>
      <point x="306" y="660" type="line"/>
      <point x="151" y="660" type="line"/>
      <point x="148" y="644" type="line"/>
      <point x="229" y="602" type="line"/>
      <point x="208" y="482" type="line" smooth="yes"/>
      <point x="160" y="208"/>
      <point x="104" y="116"/>
      <point x="3" y="116" type="curve" smooth="yes"/>
      <point x="-6" y="116" type="line"/>
      <point x="-13" y="110" type="line"/>
      <point x="-29" y="19" type="line" smooth="yes"/>
      <point x="-33" y="-3"/>
      <point x="-30" y="-10"/>
      <point x="0" y="-10" type="curve" smooth="yes"/>
      <point x="77" y="-10"/>
      <point x="132" y="23"/>
      <point x="183" y="136" type="curve" smooth="yes"/>
      <point x="216" y="209"/>
      <point x="247" y="318"/>
    </contour>
    <contour>
      <point x="257" y="605" type="line"/>
      <point x="576" y="605" type="line"/>
      <point x="586" y="660" type="line"/>
      <point x="267" y="660" type="line"/>
    </contour>
    <contour>
      <point x="737" y="660" type="line"/>
      <point x="476" y="660" type="line"/>
      <point x="370" y="59" type="line"/>
      <point x="283" y="16" type="line"/>
      <point x="280" y="0" type="line"/>
      <point x="618" y="0" type="line" smooth="yes"/>
      <point x="795" y="0"/>
      <point x="935" y="92"/>
      <point x="935" y="214" type="curve" smooth="yes"/>
      <point x="935" y="338"/>
      <point x="826" y="397"/>
      <point x="650" y="397" type="curve" smooth="yes"/>
      <point x="601" y="397" type="line"/>
      <point x="637" y="602" type="line"/>
      <point x="734" y="644" type="line"/>
    </contour>
    <contour>
      <point x="541" y="55" type="line"/>
      <point x="591" y="342" type="line"/>
      <point x="610" y="342" type="line" smooth="yes"/>
      <point x="703" y="342"/>
      <point x="754" y="307"/>
      <point x="754" y="215" type="curve" smooth="yes"/>
      <point x="754" y="127"/>
      <point x="694" y="55"/>
      <point x="587" y="55" type="curve" smooth="yes"/>
    </contour>
  </outline>
</glyph>
<glyph name="uni040A" format="2">
  <advance width="1030"/>
  <unicode hex="040A"/>
  <outline>
    <contour>
      <point x="-30" y="0" type="line"/>
      <point x="291" y="0" type="line"/>
      <point x="294" y="16" type="line"/>
      <point x="231" y="58" type="line"/>
      <point x="327" y="602" type="line"/>
      <point x="404" y="644" type="line"/>
      <point x="407" y="660" type="line"/>
      <point x="86" y="660" type="line"/>
      <point x="83" y="644" type="line"/>
      <point x="156" y="602" type="line"/>
      <point x="60" y="58" type="line"/>
      <point x="-27" y="16" type="line"/>
    </contour>
    <contour>
      <point x="192" y="322" type="line"/>
      <point x="579" y="322" type="line"/>
      <point x="590" y="377" type="line"/>
      <point x="203" y="377" type="line"/>
    </contour>
    <contour>
      <point x="471" y="660" type="line"/>
      <point x="468" y="644" type="line"/>
      <point x="541" y="602" type="line"/>
      <point x="445" y="59" type="line"/>
      <point x="358" y="16" type="line"/>
      <point x="355" y="0" type="line"/>
      <point x="693" y="0" type="line" smooth="yes"/>
      <point x="870" y="0"/>
      <point x="1010" y="88"/>
      <point x="1010" y="204" type="curve" smooth="yes"/>
      <point x="1010" y="321"/>
      <point x="901" y="377"/>
      <point x="725" y="377" type="curve" smooth="yes"/>
      <point x="672" y="377" type="line"/>
      <point x="712" y="602" type="line"/>
      <point x="809" y="644" type="line"/>
      <point x="812" y="660" type="line"/>
    </contour>
    <contour>
      <point x="616" y="55" type="line"/>
      <point x="663" y="322" type="line"/>
      <point x="685" y="322" type="line" smooth="yes"/>
      <point x="778" y="322"/>
      <point x="829" y="290"/>
      <point x="829" y="205" type="curve" smooth="yes"/>
      <point x="829" y="123"/>
      <point x="769" y="55"/>
      <point x="662" y="55" type="curve" smooth="yes"/>
    </contour>
  </outline>
</glyph>
<glyph name="uni040B" format="2">
  <advance width="859.0"/>
  <unicode hex="040B"/>
  <outline>
    <contour>
      <point x="776" y="0" type="line"/>
      <point x="779" y="16" type="line"/>
      <point x="699" y="58" type="line"/>
      <point x="722" y="189" type="line" smooth="yes"/>
      <point x="743" y="311"/>
      <point x="697" y="390"/>
      <point x="575" y="390" type="curve" smooth="yes"/>
      <point x="489" y="390"/>
      <point x="423" y="364"/>
      <point x="390" y="336" type="curve"/>
      <point x="380" y="279" type="line"/>
      <point x="399" y="294"/>
      <point x="430" y="306"/>
      <point x="472" y="306" type="curve" smooth="yes"/>
      <point x="545" y="306"/>
      <point x="559" y="255"/>
      <point x="547" y="186" type="curve" smooth="yes"/>
      <point x="514" y="0" type="line"/>
    </contour>
    <contour>
      <point x="69" y="0" type="line"/>
      <point x="438" y="0" type="line"/>
      <point x="441" y="16" type="line"/>
      <point x="348" y="58" type="line"/>
      <point x="446" y="605" type="line"/>
      <point x="573" y="605" type="line"/>
      <point x="621" y="459" type="line"/>
      <point x="637" y="459" type="line"/>
      <point x="676" y="660" type="line"/>
      <point x="84" y="660" type="line"/>
      <point x="45" y="429" type="line"/>
      <point x="61" y="429" type="line"/>
      <point x="168" y="605" type="line"/>
      <point x="275" y="605" type="line"/>
      <point x="177" y="58" type="line"/>
      <point x="72" y="16" type="line"/>
    </contour>
  </outline>
</glyph>
<glyph name="uni0411" format="2">
  <advance width="670.0"/>
  <unicode hex="0411"/>
  <outline>
    <contour>
      <point x="569" y="486" type="line"/>
      <point x="585" y="486" type="line"/>
      <point x="615" y="660" type="line"/>
      <point x="245" y="660" type="line"/>
      <point x="235" y="605" type="line"/>
      <point x="517" y="605" type="line"/>
    </contour>
    <contour>
      <point x="86" y="660" type="line"/>
      <point x="83" y="644" type="line"/>
      <point x="156" y="602" type="line"/>
      <point x="60" y="59" type="line"/>
      <point x="-27" y="16" type="line"/>
      <point x="-30" y="0" type="line"/>
      <point x="308" y="0" type="line" smooth="yes"/>
      <point x="485" y="0"/>
      <point x="625" y="89"/>
      <point x="625" y="208" type="curve" smooth="yes"/>
      <point x="625" y="329"/>
      <point x="516" y="386"/>
      <point x="340" y="386" type="curve" smooth="yes"/>
      <point x="289" y="386" type="line"/>
      <point x="337" y="660" type="line"/>
    </contour>
    <contour>
      <point x="231" y="55" type="line"/>
      <point x="279" y="331" type="line"/>
      <point x="300" y="331" type="line" smooth="yes"/>
      <point x="393" y="331"/>
      <point x="444" y="297"/>
      <point x="444" y="209" type="curve" smooth="yes"/>
      <point x="444" y="124"/>
      <point x="384" y="55"/>
      <point x="277" y="55" type="curve" smooth="yes"/>
    </contour>
  </outline>
</glyph>
<glyph name="uni0414" format="2">
  <advance width="696.0"/>
  <unicode hex="0414"/>
  <outline>
    <contour>
      <point x="254" y="481" type="curve" smooth="yes"/>
      <point x="285" y="660" type="line"/>
      <point x="130" y="660" type="line"/>
      <point x="127" y="644" type="line"/>
      <point x="208" y="602" type="line"/>
      <point x="187" y="482" type="line" smooth="yes"/>
      <point x="146" y="250"/>
      <point x="93" y="118"/>
      <point x="22" y="32" type="curve"/>
      <point x="103" y="32" type="line"/>
      <point x="165" y="118"/>
      <point x="217" y="267"/>
    </contour>
    <contour>
      <point x="90" y="0" type="line"/>
      <point x="495" y="0" type="line"/>
      <point x="572" y="-176" type="line"/>
      <point x="588" y="-176" type="line"/>
      <point x="629" y="55" type="line"/>
      <point x="539" y="55" type="line"/>
      <point x="636" y="602" type="line"/>
      <point x="723" y="644" type="line"/>
      <point x="726" y="660" type="line"/>
      <point x="246" y="660" type="line"/>
      <point x="236" y="605" type="line"/>
      <point x="465" y="605" type="line"/>
      <point x="368" y="55" type="line"/>
      <point x="-24" y="55" type="line"/>
      <point x="-65" y="-176" type="line"/>
      <point x="-49" y="-176" type="line"/>
    </contour>
  </outline>
</glyph>
<glyph name="uni0416" format="2">
  <advance width="1080.0"/>
  <unicode hex="0416"/>
  <outline>
    <contour>
      <point x="317" y="0" type="line"/>
      <point x="648" y="0" type="line"/>
      <point x="651" y="16" type="line"/>
      <point x="578" y="58" type="line"/>
      <point x="674" y="602" type="line"/>
      <point x="761" y="644" type="line"/>
      <point x="764" y="660" type="line"/>
      <point x="432" y="660" type="line"/>
      <point x="430" y="644" type="line"/>
      <point x="503" y="602" type="line"/>
      <point x="407" y="58" type="line"/>
      <point x="319" y="16" type="line"/>
    </contour>
    <contour>
      <point x="806" y="0" type="line"/>
      <point x="1029" y="0" type="line"/>
      <point x="1032" y="16" type="line"/>
      <point x="976" y="52" type="line"/>
      <point x="762" y="416" type="line"/>
      <point x="714" y="338" type="line"/>
      <point x="1028" y="632" type="line"/>
      <point x="956" y="597" type="line"/>
      <point x="1076" y="644" type="line"/>
      <point x="1080" y="660" type="line"/>
      <point x="854" y="660" type="line"/>
      <point x="851" y="644" type="line"/>
      <point x="937" y="597" type="line"/>
      <point x="940" y="632" type="line"/>
      <point x="628" y="331" type="line"/>
    </contour>
    <contour>
      <point x="158" y="0" type="line"/>
      <point x="452" y="331" type="line"/>
      <point x="256" y="632" type="line"/>
      <point x="237" y="597" type="line"/>
      <point x="339" y="644" type="line"/>
      <point x="342" y="660" type="line"/>
      <point x="106" y="660" type="line"/>
      <point x="104" y="644" type="line"/>
      <point x="218" y="597" type="line"/>
      <point x="172" y="632" type="line"/>
      <point x="373" y="338" type="line"/>
      <point x="333" y="416" type="line"/>
      <point x="1" y="52" type="line"/>
      <point x="-67" y="16" type="line"/>
      <point x="-70" y="0" type="line"/>
    </contour>
  </outline>
</glyph>
<glyph name="uni0417" format="2">
  <advance width="651.0"/>
  <unicode hex="0417"/>
  <outline>
    <contour>
      <point x="332" y="620" type="curve" smooth="yes"/>
      <point x="387" y="620"/>
      <point x="416" y="574"/>
      <point x="416" y="522" type="curve" smooth="yes"/>
      <point x="416" y="451"/>
      <point x="362" y="368"/>
      <point x="259" y="368" type="curve" smooth="yes"/>
      <point x="205" y="368" type="line"/>
      <point x="195" y="313" type="line"/>
      <point x="254" y="313" type="line" smooth="yes"/>
      <point x="347" y="313"/>
      <point x="390" y="255"/>
      <point x="390" y="193" type="curve" smooth="yes"/>
      <point x="390" y="122"/>
      <point x="332" y="45"/>
      <point x="231" y="45" type="curve" smooth="yes"/>
      <point x="205" y="45"/>
      <point x="181" y="48"/>
      <point x="158" y="59" type="curve"/>
      <point x="61" y="219" type="line"/>
      <point x="43" y="219" type="line"/>
      <point x="30" y="44" type="line"/>
      <point x="74" y="11"/>
      <point x="158" y="-10"/>
      <point x="238" y="-10" type="curve" smooth="yes"/>
      <point x="463" y="-10"/>
      <point x="571" y="96"/>
      <point x="571" y="204" type="curve" smooth="yes"/>
      <point x="571" y="280"/>
      <point x="502" y="332"/>
      <point x="377" y="344" type="curve"/>
      <point x="519" y="361"/>
      <point x="596" y="445"/>
      <point x="596" y="524" type="curve" smooth="yes"/>
      <point x="596" y="611"/>
      <point x="523" y="670"/>
      <point x="368" y="670" type="curve" smooth="yes"/>
      <point x="277" y="670"/>
      <point x="215" y="652"/>
      <point x="151" y="622" type="curve"/>
      <point x="102" y="428" type="line"/>
      <point x="120" y="428" type="line"/>
      <point x="271" y="606" type="line"/>
      <point x="288" y="615"/>
      <point x="305" y="620"/>
    </contour>
  </outline>
</glyph>
<glyph name="uni041B" format="2">
  <advance width="707.0"/>
  <unicode hex="041B"/>
  <outline>
    <contour>
      <point x="275" y="481" type="curve" smooth="yes"/>
      <point x="306" y="660" type="line"/>
      <point x="151" y="660" type="line"/>
      <point x="148" y="644" type="line"/>
      <point x="229" y="602" type="line"/>
      <point x="208" y="482" type="line" smooth="yes"/>
      <point x="160" y="208"/>
      <point x="104" y="116"/>
      <point x="3" y="116" type="curve" smooth="yes"/>
      <point x="-6" y="116" type="line"/>
      <point x="-13" y="110" type="line"/>
      <point x="-29" y="19" type="line" smooth="yes"/>
      <point x="-33" y="-3"/>
      <point x="-30" y="-10"/>
      <point x="0" y="-10" type="curve" smooth="yes"/>
      <point x="77" y="-10"/>
      <point x="132" y="23"/>
      <point x="183" y="136" type="curve" smooth="yes"/>
      <point x="216" y="209"/>
      <point x="247" y="318"/>
    </contour>
    <contour>
      <point x="257" y="605" type="line"/>
      <point x="576" y="605" type="line"/>
      <point x="586" y="660" type="line"/>
      <point x="267" y="660" type="line"/>
    </contour>
    <contour>
      <point x="290" y="0" type="line"/>
      <point x="621" y="0" type="line"/>
      <point x="624" y="16" type="line"/>
      <point x="551" y="58" type="line"/>
      <point x="647" y="602" type="line"/>
      <point x="734" y="644" type="line"/>
      <point x="737" y="660" type="line"/>
      <point x="486" y="660" type="line"/>
      <point x="380" y="58" type="line"/>
      <point x="293" y="16" type="line"/>
    </contour>
  </outline>
</glyph>
<glyph name="uni0423" format="2">
  <advance width="694"/>
  <unicode hex="0423"/>
  <outline>
    <contour>
      <point x="441" y="226" type="curve" smooth="yes"/>
      <point x="686" y="605" type="line"/>
      <point x="762" y="644" type="line"/>
      <point x="765" y="660" type="line"/>
      <point x="548" y="660" type="line"/>
      <point x="545" y="644" type="line"/>
      <point x="610" y="609" type="line"/>
      <point x="610" y="602" type="line"/>
      <point x="435" y="328" type="line"/>
      <point x="424" y="328" type="line"/>
      <point x="304" y="607" type="line"/>
      <point x="304" y="614" type="line"/>
      <point x="370" y="644" type="line"/>
      <point x="373" y="660" type="line"/>
      <point x="61" y="660" type="line"/>
      <point x="58" y="644" type="line"/>
      <point x="143" y="590" type="line"/>
      <point x="317" y="168" type="line"/>
      <point x="275" y="126"/>
      <point x="232" y="116"/>
      <point x="173" y="116" type="curve" smooth="yes"/>
      <point x="147" y="116" type="line"/>
      <point x="140" y="110" type="line"/>
      <point x="124" y="19" type="line" smooth="yes"/>
      <point x="120" y="-3"/>
      <point x="123" y="-10"/>
      <point x="153" y="-10" type="curve" smooth="yes"/>
      <point x="258" y="-10"/>
      <point x="340" y="70"/>
    </contour>
  </outline>
</glyph>
<glyph name="uni0424" format="2">
  <advance width="896.0"/>
  <unicode hex="0424"/>
  <outline>
    <contour>
      <point x="212" y="-20" type="line"/>
      <point x="561" y="-20" type="line"/>
      <point x="564" y="-4" type="line"/>
      <point x="483" y="38" type="line"/>
      <point x="585" y="622" type="line"/>
      <point x="682" y="664" type="line"/>
      <point x="685" y="680" type="line"/>
      <point x="336" y="680" type="line"/>
      <point x="333" y="664" type="line"/>
      <point x="414" y="622" type="line"/>
      <point x="312" y="38" type="line"/>
      <point x="215" y="-4" type="line"/>
    </contour>
    <contour>
      <point x="398" y="528" type="curve"/>
      <point x="418" y="580" type="line"/>
      <point x="172" y="575"/>
      <point x="30" y="452"/>
      <point x="30" y="299" type="curve" smooth="yes"/>
      <point x="30" y="169"/>
      <point x="133" y="85"/>
      <point x="330" y="80" type="curve"/>
      <point x="352" y="133" type="line"/>
      <point x="268" y="138"/>
      <point x="210" y="198"/>
      <point x="210" y="299" type="curve" smooth="yes"/>
      <point x="210" y="439"/>
      <point x="295" y="523"/>
    </contour>
    <contour>
      <point x="498" y="132" type="curve"/>
      <point x="478" y="80" type="line"/>
      <point x="724" y="85"/>
      <point x="866" y="208"/>
      <point x="866" y="361" type="curve" smooth="yes"/>
      <point x="866" y="491"/>
      <point x="763" y="575"/>
      <point x="566" y="580" type="curve"/>
      <point x="544" y="527" type="line"/>
      <point x="628" y="522"/>
      <point x="686" y="462"/>
      <point x="686" y="361" type="curve" smooth="yes"/>
      <point x="686" y="221"/>
      <point x="601" y="137"/>
    </contour>
  </outline>
</glyph>
<glyph name="uni0428" format="2">
  <advance width="1077.0"/>
  <unicode hex="0428"/>
  <outline>
    <contour>
      <point x="1107" y="660" type="line"/>
      <point x="786" y="660" type="line"/>
      <point x="783" y="644" type="line"/>
      <point x="846" y="602" type="line"/>
      <point x="740" y="0" type="line"/>
      <point x="991" y="0" type="line"/>
      <point x="994" y="16" type="line"/>
      <point x="921" y="58" type="line"/>
      <point x="1017" y="602" type="line"/>
      <point x="1104" y="644" type="line"/>
    </contour>
    <contour>
      <point x="818" y="55" type="line"/>
      <point x="131" y="55" type="line"/>
      <point x="120" y="0" type="line"/>
      <point x="807" y="0" type="line"/>
    </contour>
    <contour>
      <point x="406" y="660" type="line"/>
      <point x="86" y="660" type="line"/>
      <point x="83" y="644" type="line"/>
      <point x="154" y="602" type="line"/>
      <point x="58" y="58" type="line"/>
      <point x="-27" y="16" type="line"/>
      <point x="-30" y="0" type="line"/>
      <point x="219" y="0" type="line"/>
      <point x="325" y="602" type="line"/>
      <point x="403" y="644" type="line"/>
    </contour>
    <contour>
      <point x="756" y="660" type="line"/>
      <point x="436" y="660" type="line"/>
      <point x="433" y="644" type="line"/>
      <point x="501" y="602" type="line"/>
      <point x="395" y="0" type="line"/>
      <point x="566" y="0" type="line"/>
      <point x="672" y="602" type="line"/>
      <point x="753" y="644" type="line"/>
    </contour>
  </outline>
</glyph>
<glyph name="uni042A" format="2">
  <advance width="753.0"/>
  <unicode hex="042A"/>
  <outline>
    <contour>
      <point x="362" y="660" type="line"/>
      <point x="86" y="660" type="line"/>
      <point x="45" y="429" type="line"/>
      <point x="61" y="429" type="line"/>
      <point x="180" y="605" type="line"/>
      <point x="320" y="605" type="line"/>
    </contour>
    <contour>
      <point x="535" y="660" type="line"/>
      <point x="274" y="660" type="line"/>
      <point x="168" y="59" type="line"/>
      <point x="81" y="16" type="line"/>
      <point x="78" y="0" type="line"/>
      <point x="416" y="0" type="line" smooth="yes"/>
      <point x="593" y="0"/>
      <point x="733" y="92"/>
      <point x="733" y="214" type="curve" smooth="yes"/>
      <point x="733" y="338"/>
      <point x="624" y="397"/>
      <point x="448" y="397" type="curve" smooth="yes"/>
      <point x="399" y="397" type="line"/>
      <point x="435" y="602" type="line"/>
      <point x="532" y="644" type="line"/>
    </contour>
    <contour>
      <point x="339" y="55" type="line"/>
      <point x="389" y="342" type="line"/>
      <point x="408" y="342" type="line" smooth="yes"/>
      <point x="501" y="342"/>
      <point x="552" y="307"/>
      <point x="552" y="215" type="curve" smooth="yes"/>
      <point x="552" y="127"/>
      <point x="492" y="55"/>
      <point x="385" y="55" type="curve" smooth="yes"/>
    </contour>
  </outline>
</glyph>
<glyph name="uni042C" format="2">
  <advance width="645.0"/>
  <unicode hex="042C"/>
  <outline>
    <contour>
      <point x="86" y="660" type="line"/>
      <point x="83" y="644" type="line"/>
      <point x="156" y="602" type="line"/>
      <point x="60" y="59" type="line"/>
      <point x="-27" y="16" type="line"/>
      <point x="-30" y="0" type="line"/>
      <point x="308" y="0" type="line" smooth="yes"/>
      <point x="485" y="0"/>
      <point x="625" y="92"/>
      <point x="625" y="214" type="curve" smooth="yes"/>
      <point x="625" y="338"/>
      <point x="516" y="397"/>
      <point x="340" y="397" type="curve" smooth="yes"/>
      <point x="291" y="397" type="line"/>
      <point x="327" y="602" type="line"/>
      <point x="424" y="644" type="line"/>
      <point x="427" y="660" type="line"/>
    </contour>
    <contour>
      <point x="231" y="55" type="line"/>
      <point x="281" y="342" type="line"/>
      <point x="300" y="342" type="line" smooth="yes"/>
      <point x="393" y="342"/>
      <point x="444" y="307"/>
      <point x="444" y="215" type="curve" smooth="yes"/>
      <point x="444" y="127"/>
      <point x="384" y="55"/>
      <point x="277" y="55" type="curve" smooth="yes"/>
    </contour>
  </outline>
</glyph>
<glyph name="uni042D" format="2">
  <advance width="658.0"/>
  <unicode hex="042D"/>
  <outline>
    <contour>
      <point x="241" y="456" type="line"/>
      <point x="225" y="456" type="line"/>
      <point x="185" y="227" type="line"/>
      <point x="201" y="227" type="line"/>
      <point x="276" y="315" type="line"/>
      <point x="494" y="315" type="line"/>
      <point x="504" y="370" type="line"/>
      <point x="286" y="370" type="line"/>
    </contour>
    <contour>
      <point x="329" y="670" type="curve" smooth="yes"/>
      <point x="257" y="670"/>
      <point x="172" y="649"/>
      <point x="122" y="616" type="curve"/>
      <point x="80" y="441" type="line"/>
      <point x="98" y="441" type="line"/>
      <point x="226" y="596" type="line"/>
      <point x="256" y="611"/>
      <point x="283" y="617"/>
      <point x="308" y="617" type="curve" smooth="yes"/>
      <point x="393" y="617"/>
      <point x="441" y="550"/>
      <point x="441" y="413" type="curve" smooth="yes"/>
      <point x="441" y="211"/>
      <point x="354" y="38"/>
      <point x="216" y="38" type="curve" smooth="yes"/>
      <point x="183" y="38"/>
      <point x="163" y="41"/>
      <point x="145" y="53" type="curve"/>
      <point x="65" y="232" type="line"/>
      <point x="47" y="232" type="line"/>
      <point x="30" y="38" type="line"/>
      <point x="75" y="10"/>
      <point x="118" y="-10"/>
      <point x="201" y="-10" type="curve" smooth="yes"/>
      <point x="436" y="-10"/>
      <point x="618" y="187"/>
      <point x="618" y="400" type="curve" smooth="yes"/>
      <point x="618" y="564"/>
      <point x="500" y="670"/>
    </contour>
  </outline>
</glyph>
<glyph name="uni042F" format="2">
  <advance width="738.0"/>
  <unicode hex="042F"/>
  <outline>
    <contour>
      <point x="189" y="0" type="line"/>
      <point x="439" y="313" type="line"/>
      <point x="277" y="338" type="line"/>
      <point x="36" y="59" type="line"/>
      <point x="-47" y="16" type="line"/>
      <point x="-50" y="0" type="line"/>
    </contour>
    <contour>
      <point x="652" y="0" type="line"/>
      <point x="655" y="16" type="line"/>
      <point x="582" y="58" type="line"/>
      <point x="678" y="601" type="line"/>
      <point x="765" y="644" type="line"/>
      <point x="768" y="660" type="line"/>
      <point x="430" y="660" type="line" smooth="yes"/>
      <point x="248" y="660"/>
      <point x="113" y="580"/>
      <point x="113" y="456" type="curve" smooth="yes"/>
      <point x="113" y="361"/>
      <point x="190" y="308"/>
      <point x="318" y="304" type="curve"/>
      <point x="398" y="288" type="line" smooth="yes"/>
      <point x="451" y="288" type="line"/>
      <point x="411" y="58" type="line"/>
      <point x="324" y="16" type="line"/>
      <point x="321" y="0" type="line"/>
    </contour>
    <contour>
      <point x="438" y="338" type="line"/>
      <point x="345" y="338"/>
      <point x="294" y="370"/>
      <point x="294" y="455" type="curve" smooth="yes"/>
      <point x="294" y="538"/>
      <point x="354" y="605"/>
      <point x="461" y="605" type="curve" smooth="yes"/>
      <point x="507" y="605" type="line"/>
      <point x="460" y="338" type="line"/>
    </contour>
  </outline>
</glyph>
<glyph name="uni0432" format="2">
  <advance width="482.0"/>
  <unicode hex="0432"/>
  <outline>
    <contour>
      <point x="457" y="156" type="curve" smooth="yes"/>
      <point x="457" y="235"/>
      <point x="379" y="296"/>
      <point x="230" y="243" type="curve"/>
      <point x="269" y="249" type="line"/>
      <point x="413" y="268"/>
      <point x="472.0" y="309.0"/>
      <point x="472" y="376" type="curve" smooth="yes"/>
      <point x="472" y="420"/>
      <point x="429" y="470"/>
      <point x="305" y="470" type="curve" smooth="yes"/>
      <point x="120" y="470"/>
      <point x="25" y="327"/>
      <point x="25" y="173" type="curve" smooth="yes"/>
      <point x="25" y="73"/>
      <point x="102" y="-10"/>
      <point x="230" y="-10" type="curve" smooth="yes"/>
      <point x="354" y="-10"/>
      <point x="457" y="67"/>
    </contour>
    <contour>
      <point x="228" y="38" type="curve" smooth="yes"/>
      <point x="198" y="38"/>
      <point x="184" y="76"/>
      <point x="184" y="120" type="curve" smooth="yes"/>
      <point x="184" y="277"/>
      <point x="217" y="422"/>
      <point x="285" y="422" type="curve" smooth="yes"/>
      <point x="305" y="422"/>
      <point x="314" y="408"/>
      <point x="314" y="385" type="curve" smooth="yes"/>
      <point x="314" y="334"/>
      <point x="288" y="278"/>
      <point x="217" y="261" type="curve" smooth="yes"/>
      <point x="178" y="252" type="line"/>
      <point x="169" y="210" type="line"/>
      <point x="201" y="217" type="line" smooth="yes"/>
      <point x="215.689247295" y="220.213272846"/>
      <point x="229" y="222"/>
      <point x="242" y="222" type="curve" smooth="yes"/>
      <point x="276" y="222"/>
      <point x="294" y="197"/>
      <point x="294" y="154" type="curve" smooth="yes"/>
      <point x="294" y="101"/>
      <point x="269" y="38"/>
    </contour>
  </outline>
</glyph>
<glyph name="uni0433" format="2">
  <advance width="434.0"/>
  <unicode hex="0433"/>
  <anchor x="313" y="502" name="top"/>
  <outline>
    <contour>
      <point x="199" y="-10" type="curve" smooth="yes"/>
      <point x="261" y="-10"/>
      <point x="317" y="0"/>
      <point x="369" y="28" type="curve"/>
      <point x="390" y="146" type="line"/>
      <point x="374" y="146" type="line"/>
      <point x="328" y="95" type="line" smooth="yes"/>
      <point x="296.0" y="59.0"/>
      <point x="256.0" y="40.0"/>
      <point x="219" y="40" type="curve" smooth="yes"/>
      <point x="187.0" y="40.0"/>
      <point x="173.0" y="54.0"/>
      <point x="173" y="83" type="curve" smooth="yes"/>
      <point x="173" y="127"/>
      <point x="220" y="151"/>
      <point x="272" y="180" type="curve" smooth="yes"/>
      <point x="336" y="215"/>
      <point x="409" y="256"/>
      <point x="409" y="346" type="curve" smooth="yes"/>
      <point x="409" y="427"/>
      <point x="355" y="470"/>
      <point x="254" y="470" type="curve" smooth="yes"/>
      <point x="211" y="470"/>
      <point x="140" y="464"/>
      <point x="95" y="442" type="curve"/>
      <point x="73" y="317" type="line"/>
      <point x="89" y="317" type="line"/>
      <point x="127" y="360" type="line" smooth="yes"/>
      <point x="163.0" y="401.0"/>
      <point x="196.0" y="421.0"/>
      <point x="230" y="421" type="curve" smooth="yes"/>
      <point x="258.0" y="421.0"/>
      <point x="272.0" y="404.0"/>
      <point x="272" y="378" type="curve" smooth="yes"/>
      <point x="272" y="335"/>
      <point x="217" y="308"/>
      <point x="160" y="277" type="curve" smooth="yes"/>
      <point x="94" y="241"/>
      <point x="25" y="198"/>
      <point x="25" y="111" type="curve" smooth="yes"/>
      <point x="25" y="33"/>
      <point x="79" y="-10"/>
    </contour>
  </outline>
</glyph>
<glyph name="uni0434" format="2">
  <advance width="516.0"/>
  <unicode hex="0434"/>
  <outline>
    <contour>
      <point x="222" y="-10" type="curve" smooth="yes"/>
      <point x="414" y="-10"/>
      <point x="514" y="202"/>
      <point x="514" y="402" type="curve" smooth="yes"/>
      <point x="514" y="579"/>
      <point x="435" y="747"/>
      <point x="273" y="747" type="curve" smooth="yes"/>
      <point x="190" y="747"/>
      <point x="157" y="707"/>
      <point x="132" y="665" type="curve"/>
      <point x="154" y="646" type="line"/>
      <point x="176" y="677"/>
      <point x="205" y="692"/>
      <point x="239" y="692" type="curve" smooth="yes"/>
      <point x="325" y="692"/>
      <point x="356" y="582"/>
      <point x="356" y="453" type="curve" smooth="yes"/>
      <point x="356" y="268"/>
      <point x="292" y="43"/>
      <point x="232" y="43" type="curve" smooth="yes"/>
      <point x="201" y="43"/>
      <point x="184" y="77"/>
      <point x="184" y="145" type="curve" smooth="yes"/>
      <point x="184" y="326"/>
      <point x="233" y="418"/>
      <point x="300" y="418" type="curve" smooth="yes"/>
      <point x="349" y="418"/>
      <point x="369" y="396"/>
      <point x="380" y="362" type="curve"/>
      <point x="401" y="428" type="line"/>
      <point x="367" y="453"/>
      <point x="342.9911504424779" y="470.0"/>
      <point x="286" y="470" type="curve" smooth="yes"/>
      <point x="134" y="470"/>
      <point x="23" y="331"/>
      <point x="23" y="190" type="curve" smooth="yes"/>
      <point x="23" y="74"/>
      <point x="99" y="-10"/>
    </contour>
  </outline>
</glyph>
<glyph name="uni0437" format="2">
  <advance width="431.0"/>
  <unicode hex="0437"/>
  <outline>
    <contour>
      <point x="160" y="-10" type="curve" smooth="yes"/>
      <point x="283" y="-10"/>
      <point x="398" y="27"/>
      <point x="398" y="130" type="curve" smooth="yes"/>
      <point x="398.0" y="203.811881188"/>
      <point x="339.000331028" y="236.000002713"/>
      <point x="217" y="235" type="curve"/>
      <point x="216" y="228" type="line"/>
      <point x="342.999776684" y="228.999998242"/>
      <point x="416" y="298"/>
      <point x="416" y="363" type="curve" smooth="yes"/>
      <point x="416" y="430"/>
      <point x="371" y="470"/>
      <point x="292" y="470" type="curve" smooth="yes"/>
      <point x="161" y="470"/>
      <point x="91" y="399"/>
      <point x="51" y="329" type="curve"/>
      <point x="69" y="311" type="line"/>
      <point x="72" y="311" type="line"/>
      <point x="122" y="353"/>
      <point x="153" y="379"/>
      <point x="205" y="379" type="curve" smooth="yes"/>
      <point x="243" y="379"/>
      <point x="260" y="359"/>
      <point x="260" y="327" type="curve" smooth="yes"/>
      <point x="260" y="284"/>
      <point x="230.0" y="253"/>
      <point x="166" y="253" type="curve" smooth="yes"/>
      <point x="128" y="253" type="line"/>
      <point x="119" y="203" type="line"/>
      <point x="158" y="203" type="line" smooth="yes"/>
      <point x="215.0" y="203"/>
      <point x="238" y="168"/>
      <point x="238" y="129" type="curve" smooth="yes"/>
      <point x="238" y="68"/>
      <point x="206" y="35"/>
      <point x="164" y="35" type="curve" smooth="yes"/>
      <point x="133" y="35"/>
      <point x="126" y="48"/>
      <point x="104" y="93" type="curve" smooth="yes"/>
      <point x="82" y="138" type="line"/>
      <point x="76" y="138" type="line"/>
      <point x="20" y="93" type="line" smooth="yes"/>
      <point x="9" y="84"/>
      <point x="5" y="74"/>
      <point x="5" y="64" type="curve" smooth="yes"/>
      <point x="5" y="57"/>
      <point x="5" y="51"/>
      <point x="13" y="39" type="curve" smooth="yes"/>
      <point x="34" y="7"/>
      <point x="83" y="-10"/>
    </contour>
  </outline>
</glyph>
<glyph name="uni043A" format="2">
  <advance width="549.0"/>
  <unicode hex="043A"/>
  <outline>
    <contour>
      <point x="411" y="-10" type="curve" smooth="yes"/>
      <point x="478" y="-10"/>
      <point x="523" y="36"/>
      <point x="546" y="152" type="curve"/>
      <point x="524" y="157" type="line"/>
      <point x="512" y="105"/>
      <point x="497" y="89"/>
      <point x="479" y="89" type="curve" smooth="yes"/>
      <point x="459" y="89"/>
      <point x="452" y="108"/>
      <point x="437" y="135" type="curve" smooth="yes"/>
      <point x="337" y="317" type="line"/>
      <point x="282" y="235" type="line"/>
      <point x="367" y="330" type="line" smooth="yes"/>
      <point x="392" y="358"/>
      <point x="413" y="368"/>
      <point x="432" y="368" type="curve" smooth="yes"/>
      <point x="450" y="368"/>
      <point x="463" y="361"/>
      <point x="473" y="357" type="curve" smooth="yes"/>
      <point x="487" y="351" type="line"/>
      <point x="491" y="351" type="line"/>
      <point x="523" y="432" type="line" smooth="yes"/>
      <point x="528" y="444"/>
      <point x="522" y="454"/>
      <point x="513" y="461" type="curve" smooth="yes"/>
      <point x="506" y="466"/>
      <point x="495" y="470"/>
      <point x="479" y="470" type="curve" smooth="yes"/>
      <point x="423.0" y="470.0"/>
      <point x="370.0" y="410.0"/>
      <point x="225" y="225" type="curve"/>
      <point x="225" y="220" type="line"/>
      <point x="298" y="83" type="line" smooth="yes"/>
      <point x="325" y="32"/>
      <point x="344" y="-10"/>
    </contour>
    <contour>
      <point x="30" y="0" type="line"/>
      <point x="193" y="0" type="line"/>
      <point x="271" y="470" type="line"/>
      <point x="268" y="470" type="line"/>
      <point x="38" y="430" type="line"/>
      <point x="38" y="414" type="line"/>
      <point x="96" y="381" type="line"/>
    </contour>
  </outline>
</glyph>
<glyph name="uni043B" format="2">
  <advance width="539.0"/>
  <unicode hex="043B"/>
  <outline>
    <contour>
      <point x="186" y="410" type="line"/>
      <point x="394" y="410" type="line"/>
      <point x="402" y="460" type="line"/>
      <point x="194" y="460" type="line"/>
    </contour>
    <contour>
      <point x="233" y="378" type="curve" smooth="yes"/>
      <point x="247" y="460" type="line"/>
      <point x="123" y="460" type="line"/>
      <point x="121" y="444" type="line"/>
      <point x="184" y="412" type="line"/>
      <point x="178" y="378" type="line" smooth="yes"/>
      <point x="144" y="184"/>
      <point x="110" y="106"/>
      <point x="36" y="106" type="curve" smooth="yes"/>
      <point x="22" y="106" type="line"/>
      <point x="15" y="100" type="line"/>
      <point x="1" y="19" type="line" smooth="yes"/>
      <point x="-3" y="-3"/>
      <point x="0" y="-10"/>
      <point x="30" y="-10" type="curve" smooth="yes"/>
      <point x="78" y="-10"/>
      <point x="114" y="12"/>
      <point x="144" y="63" type="curve" smooth="yes"/>
      <point x="180.0" y="124.0"/>
      <point x="207.0" y="225.0"/>
    </contour>
    <contour>
      <point x="376" y="-10" type="curve" smooth="yes"/>
      <point x="451" y="-10"/>
      <point x="499" y="55"/>
      <point x="535" y="153" type="curve"/>
      <point x="513" y="160" type="line"/>
      <point x="489" y="106"/>
      <point x="470" y="89"/>
      <point x="452" y="89" type="curve" smooth="yes"/>
      <point x="436" y="89"/>
      <point x="430" y="107"/>
      <point x="434" y="131" type="curve" smooth="yes"/>
      <point x="492" y="460" type="line"/>
      <point x="330" y="460" type="line"/>
      <point x="276" y="150" type="line" smooth="yes"/>
      <point x="257" y="43"/>
      <point x="298" y="-10"/>
    </contour>
  </outline>
</glyph>
<glyph name="uni043C" format="2">
  <advance width="747.0"/>
  <unicode hex="043C"/>
  <outline>
    <contour>
      <point x="328" y="460" type="line"/>
      <point x="222" y="460" type="line"/>
      <point x="184" y="405" type="line"/>
      <point x="275" y="0" type="line"/>
      <point x="312" y="0" type="line"/>
      <point x="392" y="138" type="line"/>
      <point x="413" y="212" type="line"/>
      <point x="384" y="212" type="line"/>
    </contour>
    <contour>
      <point x="538" y="460" type="line"/>
      <point x="292" y="54" type="line"/>
      <point x="292" y="0" type="line"/>
      <point x="324" y="0" type="line"/>
      <point x="576" y="415" type="line"/>
    </contour>
    <contour>
      <point x="218" y="378" type="curve" smooth="yes"/>
      <point x="232" y="460" type="line"/>
      <point x="113" y="460" type="line"/>
      <point x="111" y="444" type="line"/>
      <point x="174" y="412" type="line"/>
      <point x="168" y="378" type="line" smooth="yes"/>
      <point x="134" y="184"/>
      <point x="100" y="106"/>
      <point x="26" y="106" type="curve" smooth="yes"/>
      <point x="12" y="106" type="line"/>
      <point x="5" y="100" type="line"/>
      <point x="-9" y="19" type="line" smooth="yes"/>
      <point x="-13" y="-3"/>
      <point x="-10" y="-10"/>
      <point x="20" y="-10" type="curve" smooth="yes"/>
      <point x="121.4384236453202" y="-10.0"/>
      <point x="169.53173461733513" y="94.1144456158201"/>
    </contour>
    <contour>
      <point x="584" y="-10" type="curve" smooth="yes"/>
      <point x="659" y="-10"/>
      <point x="707" y="55"/>
      <point x="743" y="153" type="curve"/>
      <point x="721" y="160" type="line"/>
      <point x="697" y="106"/>
      <point x="678" y="89"/>
      <point x="660" y="89" type="curve" smooth="yes"/>
      <point x="644" y="89"/>
      <point x="638" y="107"/>
      <point x="642" y="131" type="curve" smooth="yes"/>
      <point x="700" y="460" type="line"/>
      <point x="538" y="460" type="line"/>
      <point x="484" y="150" type="line" smooth="yes"/>
      <point x="465" y="43"/>
      <point x="506" y="-10"/>
    </contour>
  </outline>
</glyph>
<glyph name="uni0444" format="2">
  <advance width="755.0"/>
  <unicode hex="0444"/>
  <outline>
    <contour>
      <point x="225" y="-181" type="line"/>
      <point x="140" y="-214" type="line"/>
      <point x="138" y="-230" type="line"/>
      <point x="444" y="-230" type="line"/>
      <point x="446" y="-214" type="line"/>
      <point x="388" y="-181" type="line"/>
      <point x="549" y="750" type="line"/>
      <point x="546" y="750" type="line"/>
      <point x="302" y="710" type="line"/>
      <point x="302" y="694" type="line"/>
      <point x="371" y="661" type="line"/>
    </contour>
    <contour>
      <point x="340" y="470" type="line"/>
      <point x="170" y="464"/>
      <point x="25" y="362"/>
      <point x="25" y="196" type="curve" smooth="yes"/>
      <point x="25" y="72"/>
      <point x="129" y="-5"/>
      <point x="256" y="-10" type="curve"/>
      <point x="273" y="37" type="line"/>
      <point x="225" y="42"/>
      <point x="186" y="97"/>
      <point x="186" y="185" type="curve" smooth="yes"/>
      <point x="186" y="329"/>
      <point x="264" y="417"/>
      <point x="331" y="423" type="curve"/>
    </contour>
    <contour>
      <point x="415" y="-10" type="line"/>
      <point x="585" y="-4"/>
      <point x="730" y="98"/>
      <point x="730" y="264" type="curve" smooth="yes"/>
      <point x="730" y="388"/>
      <point x="626" y="465"/>
      <point x="499" y="470" type="curve"/>
      <point x="482" y="423" type="line"/>
      <point x="530" y="418"/>
      <point x="569" y="363"/>
      <point x="569" y="275" type="curve" smooth="yes"/>
      <point x="569" y="131"/>
      <point x="491" y="43"/>
      <point x="424" y="37" type="curve"/>
    </contour>
  </outline>
</glyph>
<glyph name="uni0446" format="2">
  <advance width="572.0"/>
  <unicode hex="0446"/>
  <outline>
    <contour>
      <point x="148" y="-10" type="curve" smooth="yes"/>
      <point x="209" y="-10"/>
      <point x="238" y="14"/>
      <point x="299" y="82" type="curve"/>
      <point x="323" y="82" type="line"/>
      <point x="323" y="143" type="line"/>
      <point x="299" y="114"/>
      <point x="272" y="89"/>
      <point x="243" y="89" type="curve" smooth="yes"/>
      <point x="219" y="89"/>
      <point x="210" y="105"/>
      <point x="210" y="127" type="curve" smooth="yes"/>
      <point x="210" y="138"/>
      <point x="211" y="145"/>
      <point x="214" y="161" type="curve" smooth="yes"/>
      <point x="269" y="470" type="line"/>
      <point x="266" y="470" type="line"/>
      <point x="33" y="430" type="line"/>
      <point x="33" y="414" type="line"/>
      <point x="91" y="381" type="line"/>
      <point x="49" y="138" type="line" smooth="yes"/>
      <point x="47" y="125"/>
      <point x="46" y="113"/>
      <point x="46" y="102" type="curve" smooth="yes"/>
      <point x="46" y="32"/>
      <point x="86" y="-10"/>
    </contour>
    <contour>
      <point x="568" y="153" type="curve"/>
      <point x="546" y="160" type="line"/>
      <point x="522" y="106"/>
      <point x="503" y="89"/>
      <point x="485" y="89" type="curve" smooth="yes"/>
      <point x="469" y="89"/>
      <point x="463" y="107"/>
      <point x="467" y="131" type="curve" smooth="yes"/>
      <point x="527" y="470" type="line"/>
      <point x="524" y="470" type="line"/>
      <point x="302" y="430" type="line"/>
      <point x="302" y="414" type="line"/>
      <point x="349" y="381" type="line"/>
      <point x="309" y="150" type="line" smooth="yes"/>
      <point x="290" y="43"/>
      <point x="331" y="-10"/>
      <point x="409" y="-10" type="curve" smooth="yes"/>
      <point x="461" y="-10"/>
      <point x="501" y="22"/>
      <point x="532" y="74" type="curve"/>
      <point x="522" y="78" type="line"/>
      <point x="487" y="-13"/>
      <point x="468" y="-97"/>
      <point x="377" y="-97" type="curve" smooth="yes"/>
      <point x="342" y="-97" type="line"/>
      <point x="335" y="-103" type="line"/>
      <point x="335" y="-191" type="line" smooth="yes"/>
      <point x="335" y="-212"/>
      <point x="343" y="-220"/>
      <point x="363" y="-220" type="curve" smooth="yes"/>
      <point x="564" y="-220"/>
      <point x="516" y="21"/>
    </contour>
  </outline>
</glyph>
<glyph name="uni0447" format="2">
  <advance width="559"/>
  <unicode hex="0447"/>
  <outline>
    <contour>
      <point x="165" y="136" type="curve" smooth="yes"/>
      <point x="222" y="136"/>
      <point x="258" y="164"/>
      <point x="307" y="228" type="curve"/>
      <point x="331" y="228" type="line"/>
      <point x="335" y="289" type="line"/>
      <point x="312" y="261"/>
      <point x="287" y="235"/>
      <point x="260" y="235" type="curve" smooth="yes"/>
      <point x="236" y="235"/>
      <point x="227" y="251"/>
      <point x="227" y="273" type="curve" smooth="yes"/>
      <point x="227" y="284"/>
      <point x="228" y="291"/>
      <point x="231" y="307" type="curve" smooth="yes"/>
      <point x="261" y="470" type="line"/>
      <point x="258" y="470" type="line"/>
      <point x="25" y="430" type="line"/>
      <point x="25" y="414" type="line"/>
      <point x="83" y="381" type="line"/>
      <point x="66" y="284" type="line" smooth="yes"/>
      <point x="64" y="271"/>
      <point x="63" y="259"/>
      <point x="63" y="248" type="curve" smooth="yes"/>
      <point x="63" y="178"/>
      <point x="103" y="136"/>
    </contour>
    <contour>
      <point x="396" y="-10" type="curve" smooth="yes"/>
      <point x="471" y="-10"/>
      <point x="519" y="55"/>
      <point x="555" y="153" type="curve"/>
      <point x="533" y="160" type="line"/>
      <point x="509" y="106"/>
      <point x="490" y="89"/>
      <point x="472" y="89" type="curve" smooth="yes"/>
      <point x="456" y="89"/>
      <point x="450" y="107"/>
      <point x="454" y="131" type="curve" smooth="yes"/>
      <point x="514" y="470" type="line"/>
      <point x="511" y="470" type="line"/>
      <point x="289" y="430" type="line"/>
      <point x="289" y="414" type="line"/>
      <point x="336" y="381" type="line"/>
      <point x="296" y="150" type="line" smooth="yes"/>
      <point x="277" y="43"/>
      <point x="318" y="-10"/>
    </contour>
  </outline>
</glyph>
<glyph name="uni0448" format="2">
  <advance width="827"/>
  <unicode hex="0448"/>
  <outline>
    <contour>
      <point x="148" y="-10" type="curve" smooth="yes"/>
      <point x="209" y="-10"/>
      <point x="238" y="14"/>
      <point x="299" y="82" type="curve"/>
      <point x="323" y="82" type="line"/>
      <point x="323" y="143" type="line"/>
      <point x="299" y="114"/>
      <point x="272" y="89"/>
      <point x="243" y="89" type="curve" smooth="yes"/>
      <point x="219" y="89"/>
      <point x="210" y="105"/>
      <point x="210" y="127" type="curve" smooth="yes"/>
      <point x="210" y="138"/>
      <point x="211" y="145"/>
      <point x="214" y="161" type="curve" smooth="yes"/>
      <point x="269" y="470" type="line"/>
      <point x="266" y="470" type="line"/>
      <point x="33" y="430" type="line"/>
      <point x="33" y="414" type="line"/>
      <point x="91" y="381" type="line"/>
      <point x="49" y="138" type="line" smooth="yes"/>
      <point x="47" y="125"/>
      <point x="46" y="113"/>
      <point x="46" y="102" type="curve" smooth="yes"/>
      <point x="46" y="32"/>
      <point x="86" y="-10"/>
    </contour>
    <contour>
      <point x="406" y="-10" type="curve" smooth="yes"/>
      <point x="467" y="-10"/>
      <point x="496" y="14"/>
      <point x="557" y="82" type="curve"/>
      <point x="581" y="82" type="line"/>
      <point x="581" y="143" type="line"/>
      <point x="557" y="114"/>
      <point x="530" y="89"/>
      <point x="501" y="89" type="curve" smooth="yes"/>
      <point x="477" y="89"/>
      <point x="468" y="105"/>
      <point x="468" y="127" type="curve" smooth="yes"/>
      <point x="468" y="138"/>
      <point x="469" y="145"/>
      <point x="472" y="161" type="curve" smooth="yes"/>
      <point x="527" y="470" type="line"/>
      <point x="524" y="470" type="line"/>
      <point x="301" y="430" type="line"/>
      <point x="301" y="414" type="line"/>
      <point x="349" y="381" type="line"/>
      <point x="307" y="138" type="line" smooth="yes"/>
      <point x="305" y="125"/>
      <point x="304" y="113"/>
      <point x="304" y="102" type="curve" smooth="yes"/>
      <point x="304" y="32"/>
      <point x="344" y="-10"/>
    </contour>
    <contour>
      <point x="667" y="-10" type="curve" smooth="yes"/>
      <point x="742" y="-10"/>
      <point x="790" y="55"/>
      <point x="826" y="153" type="curve"/>
      <point x="804" y="160" type="line"/>
      <point x="780" y="106"/>
      <point x="761" y="89"/>
      <point x="743" y="89" type="curve" smooth="yes"/>
      <point x="727" y="89"/>
      <point x="721" y="107"/>
      <point x="725" y="131" type="curve" smooth="yes"/>
      <point x="785" y="470" type="line"/>
      <point x="782" y="470" type="line"/>
      <point x="560" y="430" type="line"/>
      <point x="560" y="414" type="line"/>
      <point x="607" y="381" type="line"/>
      <point x="567" y="150" type="line" smooth="yes"/>
      <point x="548" y="43"/>
      <point x="589" y="-10"/>
    </contour>
  </outline>
</glyph>
<glyph name="uni0449" format="2">
  <advance width="830"/>
  <unicode hex="0449"/>
  <outline>
    <contour>
      <point x="148" y="-10" type="curve" smooth="yes"/>
      <point x="209" y="-10"/>
      <point x="238" y="14"/>
      <point x="299" y="82" type="curve"/>
      <point x="323" y="82" type="line"/>
      <point x="323" y="143" type="line"/>
      <point x="299" y="114"/>
      <point x="272" y="89"/>
      <point x="243" y="89" type="curve" smooth="yes"/>
      <point x="219" y="89"/>
      <point x="210" y="105"/>
      <point x="210" y="127" type="curve" smooth="yes"/>
      <point x="210" y="138"/>
      <point x="211" y="145"/>
      <point x="214" y="161" type="curve" smooth="yes"/>
      <point x="269" y="470" type="line"/>
      <point x="266" y="470" type="line"/>
      <point x="33" y="430" type="line"/>
      <point x="33" y="414" type="line"/>
      <point x="91" y="381" type="line"/>
      <point x="49" y="138" type="line" smooth="yes"/>
      <point x="47" y="125"/>
      <point x="46" y="113"/>
      <point x="46" y="102" type="curve" smooth="yes"/>
      <point x="46" y="32"/>
      <point x="86" y="-10"/>
    </contour>
    <contour>
      <point x="406" y="-10" type="curve" smooth="yes"/>
      <point x="467" y="-10"/>
      <point x="496" y="14"/>
      <point x="557" y="82" type="curve"/>
      <point x="581" y="82" type="line"/>
      <point x="581" y="143" type="line"/>
      <point x="557" y="114"/>
      <point x="530" y="89"/>
      <point x="501" y="89" type="curve" smooth="yes"/>
      <point x="477" y="89"/>
      <point x="468" y="105"/>
      <point x="468" y="127" type="curve" smooth="yes"/>
      <point x="468" y="138"/>
      <point x="469" y="145"/>
      <point x="472" y="161" type="curve" smooth="yes"/>
      <point x="527" y="470" type="line"/>
      <point x="524" y="470" type="line"/>
      <point x="301" y="430" type="line"/>
      <point x="301" y="414" type="line"/>
      <point x="349" y="381" type="line"/>
      <point x="307" y="138" type="line" smooth="yes"/>
      <point x="305" y="125"/>
      <point x="304" y="113"/>
      <point x="304" y="102" type="curve" smooth="yes"/>
      <point x="304" y="32"/>
      <point x="344" y="-10"/>
    </contour>
    <contour>
      <point x="826" y="153" type="curve"/>
      <point x="804" y="160" type="line"/>
      <point x="780" y="106"/>
      <point x="761" y="89"/>
      <point x="743" y="89" type="curve" smooth="yes"/>
      <point x="727" y="89"/>
      <point x="721" y="107"/>
      <point x="725" y="131" type="curve" smooth="yes"/>
      <point x="785" y="470" type="line"/>
      <point x="782" y="470" type="line"/>
      <point x="560" y="430" type="line"/>
      <point x="560" y="414" type="line"/>
      <point x="607" y="381" type="line"/>
      <point x="567" y="150" type="line" smooth="yes"/>
      <point x="548" y="43"/>
      <point x="589" y="-10"/>
      <point x="667" y="-10" type="curve" smooth="yes"/>
      <point x="719" y="-10"/>
      <point x="759" y="22"/>
      <point x="790" y="74" type="curve"/>
      <point x="780" y="78" type="line"/>
      <point x="745" y="-13"/>
      <point x="726" y="-97"/>
      <point x="635" y="-97" type="curve" smooth="yes"/>
      <point x="600" y="-97" type="line"/>
      <point x="593" y="-103" type="line"/>
      <point x="593" y="-191" type="line" smooth="yes"/>
      <point x="593" y="-212"/>
      <point x="601" y="-220"/>
      <point x="621" y="-220" type="curve" smooth="yes"/>
      <point x="822" y="-220"/>
      <point x="774" y="21"/>
    </contour>
  </outline>
</glyph>
<glyph name="uni044A" format="2">
  <advance width="576.0"/>
  <unicode hex="044A"/>
  <outline>
    <contour>
      <point x="52" y="410" type="line"/>
      <point x="165" y="410" type="line"/>
      <point x="277" y="460" type="line"/>
      <point x="35" y="460" type="line"/>
      <point x="5" y="289" type="line"/>
      <point x="26" y="289" type="line"/>
      <point x="154" y="452" type="line"/>
    </contour>
    <contour>
      <point x="176" y="460" type="line"/>
      <point x="125" y="170" type="line" smooth="yes"/>
      <point x="109" y="80"/>
      <point x="151" y="-10"/>
      <point x="301" y="-10" type="curve" smooth="yes"/>
      <point x="461" y="-10"/>
      <point x="546" y="67"/>
      <point x="546" y="156" type="curve" smooth="yes"/>
      <point x="546" y="238"/>
      <point x="481" y="291"/>
      <point x="346" y="291" type="curve" smooth="yes"/>
      <point x="202" y="291" type="line"/>
      <point x="195" y="252" type="line"/>
      <point x="308" y="252" type="line" smooth="yes"/>
      <point x="356.0" y="252"/>
      <point x="375.0" y="212.505617978"/>
      <point x="375" y="157" type="curve" smooth="yes"/>
      <point x="375" y="89"/>
      <point x="346" y="35"/>
      <point x="309" y="35" type="curve" smooth="yes"/>
      <point x="277" y="35"/>
      <point x="270" y="79"/>
      <point x="282" y="149" type="curve" smooth="yes"/>
      <point x="337" y="460" type="line"/>
    </contour>
  </outline>
</glyph>
<glyph name="uni044C" format="2">
  <advance width="506.0"/>
  <unicode hex="044C"/>
  <outline>
    <contour>
      <point x="91" y="381" type="line"/>
      <point x="55" y="170" type="line" smooth="yes"/>
      <point x="40" y="80"/>
      <point x="81" y="-10"/>
      <point x="231" y="-10" type="curve" smooth="yes"/>
      <point x="391" y="-10"/>
      <point x="476" y="67"/>
      <point x="476" y="156" type="curve" smooth="yes"/>
      <point x="476" y="238"/>
      <point x="411" y="291"/>
      <point x="276" y="291" type="curve" smooth="yes"/>
      <point x="132" y="291" type="line"/>
      <point x="125" y="252" type="line"/>
      <point x="238" y="252" type="line" smooth="yes"/>
      <point x="286.0" y="252"/>
      <point x="305.0" y="212.505617978"/>
      <point x="305" y="157" type="curve" smooth="yes"/>
      <point x="305" y="89"/>
      <point x="276" y="35"/>
      <point x="239" y="35" type="curve" smooth="yes"/>
      <point x="207" y="35"/>
      <point x="200" y="79"/>
      <point x="212" y="149" type="curve" smooth="yes"/>
      <point x="269" y="470" type="line"/>
      <point x="266" y="470" type="line"/>
      <point x="33" y="430" type="line"/>
      <point x="33" y="414" type="line"/>
    </contour>
  </outline>
</glyph>
<glyph name="uni044D" format="2">
  <advance width="447.0"/>
  <unicode hex="044D"/>
  <outline>
    <contour>
      <point x="366" y="249" type="line"/>
      <point x="118" y="229" type="line"/>
      <point x="110" y="179" type="line"/>
      <point x="358" y="199" type="line"/>
    </contour>
    <contour>
      <point x="251" y="470" type="curve" smooth="yes"/>
      <point x="151" y="470"/>
      <point x="85.0" y="398.0"/>
      <point x="46" y="329" type="curve"/>
      <point x="64" y="311" type="line"/>
      <point x="67" y="311" type="line"/>
      <point x="110.0" y="355.0"/>
      <point x="136" y="368"/>
      <point x="173" y="368" type="curve" smooth="yes"/>
      <point x="218" y="368"/>
      <point x="259" y="339"/>
      <point x="259" y="233" type="curve" smooth="yes"/>
      <point x="259" y="122"/>
      <point x="211.0" y="35.0"/>
      <point x="165" y="35" type="curve" smooth="yes"/>
      <point x="138.0" y="35.0"/>
      <point x="131.0" y="48.0"/>
      <point x="109" y="93" type="curve" smooth="yes"/>
      <point x="87" y="138" type="line"/>
      <point x="81" y="138" type="line"/>
      <point x="25" y="93" type="line" smooth="yes"/>
      <point x="14" y="84"/>
      <point x="10" y="74"/>
      <point x="10" y="64" type="curve" smooth="yes"/>
      <point x="10" y="57"/>
      <point x="10" y="51"/>
      <point x="18" y="39" type="curve" smooth="yes"/>
      <point x="38" y="8"/>
      <point x="81" y="-10"/>
      <point x="141" y="-10" type="curve" smooth="yes"/>
      <point x="289" y="-10"/>
      <point x="422" y="131"/>
      <point x="422" y="290" type="curve" smooth="yes"/>
      <point x="422.0" y="406.0"/>
      <point x="361" y="470"/>
    </contour>
  </outline>
</glyph>
<glyph name="uni044F" format="2">
  <advance width="535.0"/>
  <unicode hex="044F"/>
  <outline>
    <contour>
      <point x="138" y="170" type="curve" smooth="yes"/>
      <point x="188" y="170"/>
      <point x="225.026188109" y="201.966664922"/>
      <point x="259" y="227" type="curve"/>
      <point x="301" y="227" type="line"/>
      <point x="301" y="294" type="line"/>
      <point x="279" y="261"/>
      <point x="260" y="241"/>
      <point x="238" y="241" type="curve" smooth="yes"/>
      <point x="214.103448276" y="241.0"/>
      <point x="205" y="266"/>
      <point x="205" y="295" type="curve" smooth="yes"/>
      <point x="205" y="357"/>
      <point x="236" y="420"/>
      <point x="284" y="420" type="curve" smooth="yes"/>
      <point x="301" y="420"/>
      <point x="315" y="413"/>
      <point x="325" y="402" type="curve"/>
      <point x="317" y="414" type="line"/>
      <point x="272" y="150" type="line" smooth="yes"/>
      <point x="254.0" y="43.0"/>
      <point x="294.0" y="-10.0"/>
      <point x="372" y="-10" type="curve" smooth="yes"/>
      <point x="447" y="-10"/>
      <point x="495" y="55"/>
      <point x="531" y="153" type="curve"/>
      <point x="509" y="160" type="line"/>
      <point x="485" y="106"/>
      <point x="466" y="89"/>
      <point x="448" y="89" type="curve" smooth="yes"/>
      <point x="432" y="89"/>
      <point x="426" y="107"/>
      <point x="430" y="131" type="curve" smooth="yes"/>
      <point x="487" y="460" type="line"/>
      <point x="471" y="460" type="line"/>
      <point x="379" y="433" type="line"/>
      <point x="415" y="436" type="line"/>
      <point x="394" y="452"/>
      <point x="356" y="470"/>
      <point x="301" y="470" type="curve" smooth="yes"/>
      <point x="158.873015873" y="470.0"/>
      <point x="59.0" y="357.0"/>
      <point x="59" y="262" type="curve" smooth="yes"/>
      <point x="59.0" y="199.0"/>
      <point x="93" y="170"/>
    </contour>
    <contour>
      <point x="236" y="227" type="line"/>
      <point x="186" y="149"/>
      <point x="141.823863636" y="106"/>
      <point x="41" y="106" type="curve" smooth="yes"/>
      <point x="27" y="106" type="line"/>
      <point x="20" y="100" type="line"/>
      <point x="6" y="19" type="line" smooth="yes"/>
      <point x="2" y="-3"/>
      <point x="5" y="-10"/>
      <point x="35" y="-10" type="curve" smooth="yes"/>
      <point x="160.063291139" y="-10.0"/>
      <point x="217" y="105"/>
      <point x="282" y="227" type="curve"/>
    </contour>
  </outline>
</glyph>
<glyph name="uni045A" format="2">
  <advance width="769.0"/>
  <unicode hex="045A"/>
  <outline>
    <contour>
      <point x="30" y="0" type="line"/>
      <point x="193" y="0" type="line"/>
      <point x="271" y="470" type="line"/>
      <point x="268" y="470" type="line"/>
      <point x="38" y="430" type="line"/>
      <point x="38" y="414" type="line"/>
      <point x="96" y="381" type="line"/>
    </contour>
    <contour>
      <point x="186" y="206" type="line"/>
      <point x="354" y="224" type="line"/>
      <point x="354" y="274" type="line"/>
      <point x="186" y="256" type="line"/>
    </contour>
    <contour>
      <point x="354" y="381" type="line"/>
      <point x="318" y="170" type="line" smooth="yes"/>
      <point x="303" y="80"/>
      <point x="344" y="-10"/>
      <point x="494" y="-10" type="curve" smooth="yes"/>
      <point x="654" y="-10"/>
      <point x="739" y="67"/>
      <point x="739" y="156" type="curve" smooth="yes"/>
      <point x="739.0" y="234.962962963"/>
      <point x="674.0" y="286.0"/>
      <point x="539" y="286" type="curve" smooth="yes"/>
      <point x="483" y="286"/>
      <point x="435" y="275"/>
      <point x="395" y="276" type="curve"/>
      <point x="388" y="231" type="line"/>
      <point x="419" y="231"/>
      <point x="456" y="241"/>
      <point x="501" y="241" type="curve" smooth="yes"/>
      <point x="549.0" y="241.0"/>
      <point x="568.0" y="206.078651685"/>
      <point x="568" y="157" type="curve" smooth="yes"/>
      <point x="568" y="89"/>
      <point x="539" y="35"/>
      <point x="502" y="35" type="curve" smooth="yes"/>
      <point x="470" y="35"/>
      <point x="463" y="79"/>
      <point x="475" y="149" type="curve" smooth="yes"/>
      <point x="532" y="470" type="line"/>
      <point x="529" y="470" type="line"/>
      <point x="306" y="430" type="line"/>
      <point x="306" y="414" type="line"/>
    </contour>
  </outline>
</glyph>
<glyph name="uni0462" format="2">
  <advance width="762.0"/>
  <unicode hex="0462"/>
  <outline>
    <contour>
      <point x="153" y="497" type="line"/>
      <point x="533" y="497" type="line"/>
      <point x="599" y="371" type="line"/>
      <point x="615" y="371" type="line"/>
      <point x="647" y="552" type="line"/>
      <point x="59" y="552" type="line"/>
      <point x="27" y="371" type="line"/>
      <point x="43" y="371" type="line"/>
    </contour>
    <contour>
      <point x="173" y="660" type="line"/>
      <point x="170" y="644" type="line"/>
      <point x="252" y="602" type="line"/>
      <point x="156" y="58" type="line"/>
      <point x="60" y="16" type="line"/>
      <point x="57" y="0" type="line"/>
      <point x="415" y="0" type="line" smooth="yes"/>
      <point x="592" y="0"/>
      <point x="732" y="79"/>
      <point x="732" y="184" type="curve" smooth="yes"/>
      <point x="732" y="288"/>
      <point x="623" y="337"/>
      <point x="447" y="337" type="curve" smooth="yes"/>
      <point x="395" y="337" type="line"/>
      <point x="442" y="602" type="line"/>
      <point x="558" y="644" type="line"/>
      <point x="561" y="660" type="line"/>
    </contour>
    <contour>
      <point x="346" y="55" type="line"/>
      <point x="386" y="282" type="line"/>
      <point x="407" y="282" type="line" smooth="yes"/>
      <point x="500" y="282"/>
      <point x="551" y="255"/>
      <point x="551" y="185" type="curve" smooth="yes"/>
      <point x="551" y="114"/>
      <point x="491" y="55"/>
      <point x="384" y="55" type="curve" smooth="yes"/>
    </contour>
  </outline>
</glyph>
<glyph name="uni0463" format="2">
  <advance width="776.0"/>
  <unicode hex="0463"/>
  <outline>
    <contour>
      <point x="30" y="0" type="line"/>
      <point x="193" y="0" type="line"/>
      <point x="253" y="358" type="line"/>
      <point x="253" y="470" type="line"/>
      <point x="250" y="470" type="line"/>
      <point x="38" y="430" type="line"/>
      <point x="38" y="414" type="line"/>
      <point x="96" y="381" type="line"/>
    </contour>
    <contour>
      <point x="482" y="149" type="curve" smooth="yes"/>
      <point x="512" y="322" type="line" smooth="yes"/>
      <point x="528.0" y="413.0"/>
      <point x="485.0" y="470.0"/>
      <point x="413" y="470" type="curve" smooth="yes"/>
      <point x="351.0" y="470.0"/>
      <point x="322.0" y="445.0"/>
      <point x="260" y="376" type="curve"/>
      <point x="238" y="376" type="line"/>
      <point x="238" y="317" type="line"/>
      <point x="262.0" y="346.0"/>
      <point x="289.0" y="371.0"/>
      <point x="318" y="371" type="curve" smooth="yes"/>
      <point x="348.0" y="371.0"/>
      <point x="355.0" y="346.0"/>
      <point x="350" y="317" type="curve" smooth="yes"/>
      <point x="325" y="170" type="line" smooth="yes"/>
      <point x="310" y="80"/>
      <point x="351" y="-10"/>
      <point x="501" y="-10" type="curve" smooth="yes"/>
      <point x="661" y="-10"/>
      <point x="746" y="67"/>
      <point x="746" y="156" type="curve" smooth="yes"/>
      <point x="746" y="238"/>
      <point x="681" y="291"/>
      <point x="546" y="291" type="curve" smooth="yes"/>
      <point x="402" y="291" type="line"/>
      <point x="395" y="252" type="line"/>
      <point x="508" y="252" type="line" smooth="yes"/>
      <point x="556.0" y="252"/>
      <point x="575.0" y="212.5056179775281"/>
      <point x="575" y="157" type="curve" smooth="yes"/>
      <point x="575" y="89"/>
      <point x="546" y="35"/>
      <point x="509" y="35" type="curve" smooth="yes"/>
      <point x="477.0" y="35.0"/>
      <point x="470" y="79"/>
    </contour>
  </outline>
</glyph>
<glyph name="uni0474" format="2">
  <advance width="759.0"/>
  <unicode hex="0474"/>
  <outline>
    <contour>
      <point x="581" y="405" type="line" smooth="yes"/>
      <point x="656.0" y="535.0"/>
      <point x="671.0" y="544"/>
      <point x="749" y="544" type="curve" smooth="yes"/>
      <point x="775" y="544" type="line"/>
      <point x="782" y="550" type="line"/>
      <point x="798" y="641" type="line" smooth="yes"/>
      <point x="802" y="663"/>
      <point x="799" y="670"/>
      <point x="769" y="670" type="curve" smooth="yes"/>
      <point x="730" y="670"/>
      <point x="689" y="655"/>
      <point x="645" y="612" type="curve" smooth="yes"/>
      <point x="596.0" y="563.0"/>
      <point x="546" y="469"/>
      <point x="527" y="434" type="curve" smooth="yes"/>
      <point x="355" y="121" type="line"/>
      <point x="421" y="194" type="line"/>
      <point x="362" y="194" type="line"/>
      <point x="403" y="121" type="line"/>
      <point x="287" y="632" type="line"/>
      <point x="270" y="599" type="line"/>
      <point x="368" y="644" type="line"/>
      <point x="372" y="660" type="line"/>
      <point x="62" y="660" type="line"/>
      <point x="58" y="644" type="line"/>
      <point x="149" y="587" type="line"/>
      <point x="110" y="632" type="line"/>
      <point x="256" y="-5" type="line"/>
      <point x="345" y="-5" type="line"/>
    </contour>
  </outline>
</glyph>
<glyph name="uni0475" format="2">
  <advance width="482"/>
  <unicode hex="0475"/>
  <outline>
    <contour>
      <point x="390" y="283" type="line" smooth="yes"/>
      <point x="422" y="339"/>
      <point x="443" y="354"/>
      <point x="493" y="354" type="curve" smooth="yes"/>
      <point x="507" y="354" type="line"/>
      <point x="514" y="360" type="line"/>
      <point x="528" y="441" type="line" smooth="yes"/>
      <point x="532" y="463"/>
      <point x="529" y="470"/>
      <point x="508" y="470" type="curve" smooth="yes"/>
      <point x="459" y="470"/>
      <point x="410" y="440"/>
      <point x="355" y="332" type="curve" smooth="yes"/>
      <point x="214" y="54" type="line"/>
      <point x="205" y="0" type="line"/>
      <point x="227" y="0" type="line"/>
    </contour>
    <contour>
      <point x="174" y="0" type="line"/>
      <point x="227" y="0" type="line"/>
      <point x="310" y="151" type="line"/>
      <point x="298" y="209" type="line"/>
      <point x="287" y="209" type="line"/>
      <point x="213" y="470" type="line"/>
      <point x="210" y="470" type="line"/>
      <point x="5" y="430" type="line"/>
      <point x="5" y="414" type="line"/>
      <point x="91" y="377" type="line"/>
      <point x="55" y="418" type="line"/>
    </contour>
  </outline>
</glyph>
<glyph name="uni0491" format="2">
  <advance width="438.0"/>
  <unicode hex="0491"/>
  <outline>
    <contour>
      <point x="102" y="412" type="line"/>
      <point x="30" y="0" type="line"/>
      <point x="190" y="0" type="line"/>
      <point x="271" y="460" type="line"/>
      <point x="42" y="460" type="line"/>
      <point x="39" y="444" type="line"/>
    </contour>
    <contour>
      <point x="438" y="410" type="line"/>
      <point x="468" y="581" type="line"/>
      <point x="447" y="581" type="line"/>
      <point x="352" y="460" type="line"/>
      <point x="198" y="460" type="line"/>
      <point x="189" y="410" type="line"/>
    </contour>
  </outline>
</glyph>
<glyph name="uni0492" format="2">
  <advance width="575.0"/>
  <unicode hex="0492"/>
  <outline>
    <contour>
      <point x="25" y="315" type="line"/>
      <point x="427" y="315" type="line"/>
      <point x="436" y="367" type="line"/>
      <point x="34" y="367" type="line"/>
    </contour>
    <contour>
      <point x="-35" y="0" type="line"/>
      <point x="325" y="0" type="line"/>
      <point x="328" y="16" type="line"/>
      <point x="226" y="58" type="line"/>
      <point x="332" y="660" type="line"/>
      <point x="81" y="660" type="line"/>
      <point x="78" y="644" type="line"/>
      <point x="151" y="602" type="line"/>
      <point x="55" y="58" type="line"/>
      <point x="-32" y="16" type="line"/>
    </contour>
    <contour>
      <point x="544" y="486" type="line"/>
      <point x="560" y="486" type="line"/>
      <point x="590" y="660" type="line"/>
      <point x="240" y="660" type="line"/>
      <point x="230" y="605" type="line"/>
      <point x="492" y="605" type="line"/>
    </contour>
  </outline>
</glyph>
<glyph name="uni0497" format="2">
  <advance width="888.0"/>
  <unicode hex="0497"/>
  <outline>
    <contour>
      <point x="401" y="460" type="line"/>
      <point x="321" y="-1" type="line"/>
      <point x="481" y="-1" type="line"/>
      <point x="561" y="460" type="line"/>
    </contour>
    <contour>
      <point x="210" y="470" type="curve" smooth="yes"/>
      <point x="135" y="470"/>
      <point x="72" y="399"/>
      <point x="43" y="328" type="curve"/>
      <point x="59" y="313" type="line"/>
      <point x="65" y="313" type="line"/>
      <point x="90" y="354"/>
      <point x="103" y="369"/>
      <point x="125" y="369" type="curve" smooth="yes"/>
      <point x="152" y="369"/>
      <point x="161" y="315"/>
      <point x="161" y="260" type="curve" smooth="yes"/>
      <point x="161" y="143"/>
      <point x="137" y="35"/>
      <point x="111" y="35" type="curve" smooth="yes"/>
      <point x="102" y="35"/>
      <point x="95" y="43"/>
      <point x="84" y="66" type="curve" smooth="yes"/>
      <point x="56" y="124" type="line"/>
      <point x="50" y="124" type="line"/>
      <point x="0" y="85" type="line" smooth="yes"/>
      <point x="-21" y="69"/>
      <point x="-19" y="49"/>
      <point x="-2" y="28" type="curve" smooth="yes"/>
      <point x="20" y="1"/>
      <point x="44" y="-10"/>
      <point x="84" y="-10" type="curve" smooth="yes"/>
      <point x="204" y="-10"/>
      <point x="317" y="188"/>
      <point x="318" y="330" type="curve" smooth="yes"/>
      <point x="319" y="409"/>
      <point x="280" y="470"/>
    </contour>
    <contour>
      <point x="247" y="196" type="line"/>
      <point x="626" y="225" type="line"/>
      <point x="626" y="275" type="line"/>
      <point x="247" y="246" type="line"/>
    </contour>
    <contour>
      <point x="840" y="132" type="curve"/>
      <point x="824" y="147" type="line"/>
      <point x="818" y="147" type="line"/>
      <point x="793" y="106"/>
      <point x="780" y="91"/>
      <point x="758" y="91" type="curve" smooth="yes"/>
      <point x="731" y="91"/>
      <point x="722" y="145"/>
      <point x="722" y="200" type="curve" smooth="yes"/>
      <point x="722" y="317"/>
      <point x="746" y="425"/>
      <point x="772" y="425" type="curve" smooth="yes"/>
      <point x="781" y="425"/>
      <point x="788" y="417"/>
      <point x="799" y="394" type="curve" smooth="yes"/>
      <point x="827" y="336" type="line"/>
      <point x="833" y="336" type="line"/>
      <point x="883" y="375" type="line" smooth="yes"/>
      <point x="904" y="391"/>
      <point x="902" y="411"/>
      <point x="885" y="432" type="curve" smooth="yes"/>
      <point x="863" y="459"/>
      <point x="839" y="470"/>
      <point x="799" y="470" type="curve" smooth="yes"/>
      <point x="679" y="470"/>
      <point x="566" y="272"/>
      <point x="565" y="130" type="curve" smooth="yes"/>
      <point x="564" y="51"/>
      <point x="603" y="-10"/>
      <point x="673" y="-10" type="curve" smooth="yes"/>
      <point x="733" y="-10"/>
      <point x="785" y="35"/>
      <point x="818" y="89" type="curve"/>
      <point x="811" y="89" type="line"/>
      <point x="780" y="-8"/>
      <point x="759" y="-97"/>
      <point x="664" y="-97" type="curve" smooth="yes"/>
      <point x="629" y="-97" type="line"/>
      <point x="622" y="-103" type="line"/>
      <point x="622" y="-191" type="line" smooth="yes"/>
      <point x="622" y="-212"/>
      <point x="630" y="-220"/>
      <point x="650" y="-220" type="curve" smooth="yes"/>
      <point x="832" y="-220"/>
      <point x="808" y="12"/>
    </contour>
  </outline>
</glyph>
<glyph name="uni04A3" format="2">
  <advance width="577"/>
  <unicode hex="04A3"/>
  <outline>
    <contour>
      <point x="30" y="0" type="line"/>
      <point x="193" y="0" type="line"/>
      <point x="271" y="470" type="line"/>
      <point x="268" y="470" type="line"/>
      <point x="38" y="430" type="line"/>
      <point x="38" y="414" type="line"/>
      <point x="96" y="381" type="line"/>
    </contour>
    <contour>
      <point x="186" y="201" type="line"/>
      <point x="354" y="219" type="line"/>
      <point x="354" y="269" type="line"/>
      <point x="186" y="251" type="line"/>
    </contour>
    <contour>
      <point x="573" y="153" type="curve"/>
      <point x="551" y="160" type="line"/>
      <point x="527" y="106"/>
      <point x="508" y="89"/>
      <point x="490" y="89" type="curve" smooth="yes"/>
      <point x="474" y="89"/>
      <point x="468" y="107"/>
      <point x="472" y="131" type="curve" smooth="yes"/>
      <point x="532" y="470" type="line"/>
      <point x="529" y="470" type="line"/>
      <point x="307" y="430" type="line"/>
      <point x="307" y="414" type="line"/>
      <point x="354" y="381" type="line"/>
      <point x="314" y="150" type="line" smooth="yes"/>
      <point x="295" y="43"/>
      <point x="336" y="-10"/>
      <point x="414" y="-10" type="curve" smooth="yes"/>
      <point x="466" y="-10"/>
      <point x="506" y="22"/>
      <point x="537" y="74" type="curve"/>
      <point x="527" y="78" type="line"/>
      <point x="492" y="-13"/>
      <point x="473" y="-97"/>
      <point x="382" y="-97" type="curve" smooth="yes"/>
      <point x="347" y="-97" type="line"/>
      <point x="340" y="-103" type="line"/>
      <point x="340" y="-191" type="line" smooth="yes"/>
      <point x="340" y="-212"/>
      <point x="348" y="-220"/>
      <point x="368" y="-220" type="curve" smooth="yes"/>
      <point x="569" y="-220"/>
      <point x="521" y="21"/>
    </contour>
  </outline>
</glyph>
<glyph name="endash" format="2">
  <advance width="500"/>
  <unicode hex="2013"/>
  <outline>
    <contour>
      <point x="30" y="254" type="line"/>
      <point x="463" y="254" type="line"/>
      <point x="470" y="290" type="line"/>
      <point x="37" y="290" type="line"/>
    </contour>
  </outline>
</glyph>
<glyph name="quoteright" format="2">
  <advance width="238"/>
  <unicode hex="2019"/>
  <outline>
    <contour>
      <point x="85" y="480" type="line"/>
      <point x="198" y="521"/>
      <point x="256" y="584"/>
      <point x="256" y="655" type="curve" smooth="yes"/>
      <point x="256" y="692"/>
      <point x="239" y="727"/>
      <point x="205" y="746" type="curve" smooth="yes"/>
      <point x="195" y="751"/>
      <point x="191" y="753"/>
      <point x="186" y="753" type="curve" smooth="yes"/>
      <point x="176" y="753"/>
      <point x="174" y="748"/>
      <point x="164" y="736" type="curve" smooth="yes"/>
      <point x="117" y="678" type="line"/>
      <point x="119" y="667" type="line"/>
      <point x="143" y="653" type="line" smooth="yes"/>
      <point x="164" y="640"/>
      <point x="176" y="623"/>
      <point x="176" y="596" type="curve" smooth="yes"/>
      <point x="176" y="557"/>
      <point x="150" y="533"/>
      <point x="85" y="506" type="curve"/>
    </contour>
  </outline>
</glyph>
<glyph name="dagger" format="2">
  <advance width="335"/>
  <unicode hex="2020"/>
  <outline>
    <contour>
      <point x="134" y="380" type="line"/>
      <point x="224" y="380" type="line"/>
      <point x="233" y="617" type="line"/>
      <point x="350" y="589" type="line"/>
      <point x="365" y="671" type="line"/>
      <point x="238" y="643" type="line"/>
      <point x="287" y="740" type="line"/>
      <point x="197" y="740" type="line"/>
      <point x="212" y="643" type="line"/>
      <point x="95" y="671" type="line"/>
      <point x="80" y="589" type="line"/>
      <point x="207" y="617" type="line"/>
    </contour>
  </outline>
</glyph>
<glyph name="guilsinglleft" format="2">
  <advance width="265"/>
  <unicode hex="2039"/>
  <outline>
    <contour>
      <point x="16" y="247" type="line"/>
      <point x="169" y="70" type="line"/>
      <point x="191" y="70" type="line"/>
      <point x="121" y="274" type="line"/>
      <point x="112" y="220" type="line"/>
      <point x="249" y="424" type="line"/>
      <point x="227" y="424" type="line"/>
    </contour>
  </outline>
</glyph>
<glyph name="i.superior" format="2">
  <advance width="164"/>
  <unicode hex="2071"/>
  <anchor x="190.0" y="764.0" name="top"/>
  <anchor x="180.0" y="505.0" name="right"/>
  <anchor x="163.0" y="505.0" name="bottom"/>
  <outline>
    <contour>
      <point x="168" y="500" type="curve" smooth="yes"/>
      <point x="211" y="500"/>
      <point x="236" y="536"/>
      <point x="254" y="585" type="curve"/>
      <point x="241" y="589" type="line"/>
      <point x="229" y="561"/>
      <point x="220" y="554"/>
      <point x="212" y="554" type="curve" smooth="yes"/>
      <point x="204" y="554"/>
      <point x="200" y="563"/>
      <point x="202" y="573" type="curve" smooth="yes"/>
      <point x="232" y="745" type="line"/>
      <point x="231" y="745" type="line"/>
      <point x="103" y="723" type="line"/>
      <point x="103" y="714" type="line"/>
      <point x="129" y="697" type="line"/>
      <point x="110" y="589" type="line" smooth="yes"/>
      <point x="99" y="529"/>
      <point x="124" y="500"/>
    </contour>
    <contour>
      <point x="199" y="786" type="curve" smooth="yes"/>
      <point x="224" y="786"/>
      <point x="242" y="803"/>
      <point x="242" y="828" type="curve" smooth="yes"/>
      <point x="242" y="853"/>
      <point x="224" y="870"/>
      <point x="199" y="870" type="curve" smooth="yes"/>
      <point x="174" y="870"/>
      <point x="156" y="853"/>
      <point x="156" y="828" type="curve" smooth="yes"/>
      <point x="156" y="803"/>
      <point x="175" y="786"/>
    </contour>
  </outline>
</glyph>
<glyph name="lira" format="2">
  <advance width="600"/>
  <unicode hex="20A4"/>
  <outline>
    <contour>
      <point x="30" y="0" type="line"/>
      <point x="483" y="0" type="line"/>
      <point x="532" y="222" type="line"/>
      <point x="501" y="222" type="line"/>
      <point x="449" y="125" type="line"/>
      <point x="158" y="125" type="line"/>
      <point x="149" y="116" type="line"/>
      <point x="284" y="156"/>
      <point x="358" y="203"/>
      <point x="358" y="305" type="curve" smooth="yes"/>
      <point x="358" y="372"/>
      <point x="315" y="458"/>
      <point x="315" y="519" type="curve" smooth="yes"/>
      <point x="315" y="572"/>
      <point x="343" y="622"/>
      <point x="394" y="622" type="curve" smooth="yes"/>
      <point x="449" y="622"/>
      <point x="458" y="562"/>
      <point x="471" y="528" type="curve" smooth="yes"/>
      <point x="481" y="502" type="line"/>
      <point x="488" y="502" type="line"/>
      <point x="562" y="549" type="line" smooth="yes"/>
      <point x="576" y="558"/>
      <point x="579" y="565"/>
      <point x="579" y="577" type="curve" smooth="yes"/>
      <point x="579" y="584"/>
      <point x="575" y="592"/>
      <point x="568" y="603" type="curve" smooth="yes"/>
      <point x="548" y="634"/>
      <point x="497" y="670"/>
      <point x="403" y="670" type="curve" smooth="yes"/>
      <point x="269" y="670"/>
      <point x="150" y="575"/>
      <point x="150" y="454" type="curve" smooth="yes"/>
      <point x="150" y="387"/>
      <point x="189" y="307"/>
      <point x="189" y="254" type="curve" smooth="yes"/>
      <point x="189" y="188"/>
      <point x="174" y="160"/>
      <point x="42" y="70" type="curve"/>
    </contour>
    <contour>
      <point x="92" y="386" type="line"/>
      <point x="489" y="386" type="line"/>
      <point x="497" y="430" type="line"/>
      <point x="100" y="430" type="line"/>
    </contour>
    <contour>
      <point x="66" y="237" type="line"/>
      <point x="463" y="237" type="line"/>
      <point x="471" y="281" type="line"/>
      <point x="74" y="281" type="line"/>
    </contour>
  </outline>
</glyph>
<glyph name="guarani" format="2">
  <advance width="600"/>
  <unicode hex="20B2"/>
  <outline>
    <contour>
      <point x="204" y="-80" type="line"/>
      <point x="245" y="-80" type="line"/>
      <point x="389" y="740" type="line"/>
      <point x="348" y="740" type="line"/>
    </contour>
    <contour>
      <point x="260" y="-10" type="curve" smooth="yes"/>
      <point x="338" y="-10"/>
      <point x="427" y="17"/>
      <point x="462" y="47" type="curve"/>
      <point x="493" y="220" type="line"/>
      <point x="532" y="260" type="line"/>
      <point x="535" y="276" type="line"/>
      <point x="326" y="276" type="line"/>
      <point x="323" y="260" type="line"/>
      <point x="351" y="220" type="line"/>
      <point x="318" y="34" type="line"/>
      <point x="327" y="47" type="line"/>
      <point x="320" y="43"/>
      <point x="310" y="42"/>
      <point x="304" y="42" type="curve" smooth="yes"/>
      <point x="240" y="42"/>
      <point x="211" y="106"/>
      <point x="211" y="211" type="curve" smooth="yes"/>
      <point x="211" y="370"/>
      <point x="266" y="621"/>
      <point x="373" y="621" type="curve" smooth="yes"/>
      <point x="421.235294118" y="621.0"/>
      <point x="453" y="587"/>
      <point x="443" y="530" type="curve" smooth="yes"/>
      <point x="438" y="501" type="line"/>
      <point x="443" y="496" type="line"/>
      <point x="508" y="496" type="line" smooth="yes"/>
      <point x="529.0" y="496.0"/>
      <point x="558.0" y="509.0"/>
      <point x="558" y="548" type="curve" smooth="yes"/>
      <point x="558" y="575"/>
      <point x="546" y="602"/>
      <point x="519" y="626" type="curve" smooth="yes"/>
      <point x="491" y="652"/>
      <point x="441" y="670"/>
      <point x="386" y="670" type="curve" smooth="yes"/>
      <point x="165" y="670"/>
      <point x="41" y="433"/>
      <point x="41" y="234" type="curve" smooth="yes"/>
      <point x="41" y="81"/>
      <point x="120" y="-10"/>
    </contour>
  </outline>
</glyph>
<glyph name="rupeeIndian" format="2">
  <advance width="600"/>
  <unicode hex="20B9"/>
  <outline>
    <contour>
      <point x="285" y="0" type="line"/>
      <point x="489" y="0" type="line"/>
      <point x="492" y="16" type="line"/>
      <point x="442" y="47" type="line"/>
      <point x="266" y="350" type="line"/>
      <point x="265" y="311" type="line"/>
      <point x="413.0" y="326.0"/>
      <point x="494.0" y="414.0"/>
      <point x="494" y="511" type="curve" smooth="yes"/>
      <point x="494.0" y="575.0"/>
      <point x="455" y="624"/>
      <point x="391" y="624" type="curve"/>
      <point x="413" y="616" type="line"/>
      <point x="582" y="616" type="line"/>
      <point x="589" y="660" type="line"/>
      <point x="159" y="660" type="line"/>
      <point x="152" y="616" type="line"/>
      <point x="207" y="616" type="line" smooth="yes"/>
      <point x="281.0" y="616"/>
      <point x="322.0" y="587.0"/>
      <point x="322" y="519" type="curve" smooth="yes"/>
      <point x="322.0" y="445.0"/>
      <point x="263.0" y="355"/>
      <point x="168" y="355" type="curve" smooth="yes"/>
      <point x="106" y="355" type="line"/>
      <point x="100" y="322" type="line"/>
    </contour>
    <contour>
      <point x="125" y="466" type="line"/>
      <point x="555" y="466" type="line"/>
      <point x="563" y="510" type="line"/>
      <point x="133" y="510" type="line"/>
    </contour>
  </outline>
</glyph>
<glyph name="liraTurkish" format="2">
  <advance width="600"/>
  <unicode hex="20BA"/>
  <outline>
    <contour>
      <point x="61" y="237" type="line"/>
      <point x="463" y="398" type="line"/>
      <point x="471" y="442" type="line"/>
      <point x="69" y="281" type="line"/>
    </contour>
    <contour>
      <point x="87" y="387" type="line"/>
      <point x="490" y="548" type="line"/>
      <point x="497" y="592" type="line"/>
      <point x="95" y="431" type="line"/>
    </contour>
    <contour>
      <point x="15" y="0" type="line"/>
      <point x="235" y="0" type="line" smooth="yes"/>
      <point x="438" y="0"/>
      <point x="568" y="135"/>
      <point x="568" y="265" type="curve" smooth="yes"/>
      <point x="568" y="278"/>
      <point x="561" y="280"/>
      <point x="545" y="280" type="curve" smooth="yes"/>
      <point x="453" y="280" type="line"/>
      <point x="447" y="275" type="line"/>
      <point x="443" y="247" type="line" smooth="yes"/>
      <point x="423" y="105"/>
      <point x="376" y="50"/>
      <point x="273" y="50" type="curve" smooth="yes"/>
      <point x="269" y="50" type="line"/>
      <point x="367" y="604" type="line"/>
      <point x="464" y="644" type="line"/>
      <point x="466" y="660" type="line"/>
      <point x="131" y="660" type="line"/>
      <point x="129" y="644" type="line"/>
      <point x="202" y="604" type="line"/>
      <point x="105" y="56" type="line"/>
      <point x="18" y="16" type="line"/>
    </contour>
  </outline>
</glyph>
<glyph name="ruble" format="2">
  <advance width="600"/>
  <unicode hex="20BD"/>
  <outline>
    <contour>
      <point x="10" y="0" type="line"/>
      <point x="355" y="0" type="line"/>
      <point x="358" y="16" type="line"/>
      <point x="264" y="58" type="line"/>
      <point x="362" y="610" type="line"/>
      <point x="381" y="610" type="line" smooth="yes"/>
      <point x="415.363636364" y="610"/>
      <point x="435.0" y="589.0"/>
      <point x="435" y="544" type="curve" smooth="yes"/>
      <point x="435.0" y="470.0"/>
      <point x="406" y="371"/>
      <point x="338" y="371" type="curve" smooth="yes"/>
      <point x="79" y="371" type="line"/>
      <point x="71" y="321" type="line"/>
      <point x="322" y="321" type="line" smooth="yes"/>
      <point x="488.0" y="321"/>
      <point x="598" y="398"/>
      <point x="598" y="520" type="curve" smooth="yes"/>
      <point x="598" y="615"/>
      <point x="519.0" y="660"/>
      <point x="382" y="660" type="curve" smooth="yes"/>
      <point x="126" y="660" type="line"/>
      <point x="123" y="644" type="line"/>
      <point x="196" y="602" type="line"/>
      <point x="100" y="58" type="line"/>
      <point x="13" y="16" type="line"/>
    </contour>
    <contour>
      <point x="44" y="177" type="line"/>
      <point x="474" y="177" type="line"/>
      <point x="482" y="221" type="line"/>
      <point x="52" y="221" type="line"/>
    </contour>
  </outline>
</glyph>
<glyph name="literSign" format="2">
  <advance width="554"/>
  <unicode hex="2113"/>
  <outline>
    <contour>
      <point x="282" y="-10" type="curve" smooth="yes"/>
      <point x="380" y="-10"/>
      <point x="476" y="55"/>
      <point x="521" y="155" type="curve"/>
      <point x="488" y="173" type="line"/>
      <point x="458" y="117"/>
      <point x="423" y="77"/>
      <point x="367" y="77" type="curve" smooth="yes"/>
      <point x="312" y="77"/>
      <point x="283" y="140"/>
      <point x="283" y="255" type="curve" smooth="yes"/>
      <point x="283" y="422"/>
      <point x="334" y="627"/>
      <point x="424" y="627" type="curve" smooth="yes"/>
      <point x="461" y="627"/>
      <point x="469" y="595"/>
      <point x="469" y="568" type="curve" smooth="yes"/>
      <point x="469" y="452"/>
      <point x="397" y="315"/>
      <point x="0" y="189" type="curve"/>
      <point x="8" y="155" type="line"/>
      <point x="354" y="255"/>
      <point x="539" y="413"/>
      <point x="539" y="552" type="curve" smooth="yes"/>
      <point x="539" y="631"/>
      <point x="495" y="670"/>
      <point x="417" y="670" type="curve" smooth="yes"/>
      <point x="256" y="670"/>
      <point x="104" y="449"/>
      <point x="104" y="217" type="curve" smooth="yes"/>
      <point x="104" y="74"/>
      <point x="174" y="-10"/>
    </contour>
  </outline>
</glyph>
<glyph name="product" format="2">
  <advance width="769.0"/>
  <unicode hex="220F"/>
  <outline>
    <contour>
      <point x="-70" y="-230" type="line"/>
      <point x="251" y="-230" type="line"/>
      <point x="254" y="-214" type="line"/>
      <point x="191" y="-172" type="line"/>
      <point x="332" y="635" type="line"/>
      <point x="297" y="605" type="line"/>
      <point x="570" y="605" type="line"/>
      <point x="545" y="635" type="line"/>
      <point x="404" y="-172" type="line"/>
      <point x="326" y="-214" type="line"/>
      <point x="323" y="-230" type="line"/>
      <point x="643" y="-230" type="line"/>
      <point x="646" y="-214" type="line"/>
      <point x="575" y="-172" type="line"/>
      <point x="711" y="602" type="line"/>
      <point x="796" y="644" type="line"/>
      <point x="799" y="660" type="line"/>
      <point x="86" y="660" type="line"/>
      <point x="83" y="644" type="line"/>
      <point x="156" y="602" type="line"/>
      <point x="20" y="-172" type="line"/>
      <point x="-67" y="-214" type="line"/>
    </contour>
  </outline>
</glyph>
<glyph name="minus" format="2">
  <advance width="600"/>
  <unicode hex="2212"/>
  <outline>
    <contour>
      <point x="80" y="244" type="line"/>
      <point x="500" y="244" type="line"/>
      <point x="510" y="300" type="line"/>
      <point x="90" y="300" type="line"/>
    </contour>
  </outline>
</glyph>
<glyph name="radical" format="2">
  <advance width="585"/>
  <unicode hex="221A"/>
  <outline>
    <contour>
      <point x="218" y="0" type="line"/>
      <point x="291" y="0" type="line"/>
      <point x="701" y="740" type="line"/>
      <point x="631" y="740" type="line"/>
      <point x="310" y="117" type="line"/>
      <point x="346" y="129" type="line"/>
      <point x="263" y="460" type="line"/>
      <point x="25" y="333" type="line"/>
      <point x="37" y="296" type="line"/>
      <point x="140" y="356" type="line"/>
      <point x="121" y="371" type="line"/>
    </contour>
  </outline>
</glyph>
<glyph name="integral" format="2">
  <advance width="389.0"/>
  <unicode hex="222B"/>
  <outline>
    <contour>
      <point x="-31" y="-240" type="curve" smooth="yes"/>
      <point x="54" y="-240"/>
      <point x="208" y="-100"/>
      <point x="225" y="-2" type="curve" smooth="yes"/>
      <point x="320" y="560" type="line" smooth="yes"/>
      <point x="336" y="657"/>
      <point x="349" y="672"/>
      <point x="369" y="672" type="curve" smooth="yes"/>
      <point x="382" y="672"/>
      <point x="397" y="662"/>
      <point x="421" y="638" type="curve" smooth="yes"/>
      <point x="442" y="617" type="line"/>
      <point x="449" y="617" type="line"/>
      <point x="498" y="695" type="line" smooth="yes"/>
      <point x="502" y="701"/>
      <point x="504" y="708"/>
      <point x="504" y="713" type="curve" smooth="yes"/>
      <point x="504" y="725"/>
      <point x="497" y="734"/>
      <point x="479" y="741" type="curve" smooth="yes"/>
      <point x="464" y="747"/>
      <point x="447" y="750"/>
      <point x="423" y="750" type="curve"/>
      <point x="335" y="750"/>
      <point x="162" y="596"/>
      <point x="145" y="490" type="curve" smooth="yes"/>
      <point x="53" y="-85" type="line" smooth="yes"/>
      <point x="40" y="-168"/>
      <point x="30" y="-183"/>
      <point x="13" y="-183" type="curve" smooth="yes"/>
      <point x="2" y="-183"/>
      <point x="-4" y="-178"/>
      <point x="-13" y="-169" type="curve" smooth="yes"/>
      <point x="-48" y="-135" type="line"/>
      <point x="-54" y="-135" type="line"/>
      <point x="-92" y="-196" type="line" smooth="yes"/>
      <point x="-96" y="-202"/>
      <point x="-98" y="-206"/>
      <point x="-98" y="-211" type="curve" smooth="yes"/>
      <point x="-98" y="-226"/>
      <point x="-69" y="-240"/>
    </contour>
  </outline>
</glyph>
<glyph name="approxequal" format="2">
  <advance width="600"/>
  <unicode hex="2248"/>
  <outline>
    <contour>
      <point x="361" y="109" type="curve" smooth="yes"/>
      <point x="438" y="109"/>
      <point x="481" y="161"/>
      <point x="495" y="251" type="curve"/>
      <point x="438" y="251" type="line"/>
      <point x="430" y="195"/>
      <point x="410" y="166"/>
      <point x="368" y="166" type="curve" smooth="yes"/>
      <point x="302" y="166"/>
      <point x="280" y="251"/>
      <point x="184" y="251" type="curve" smooth="yes"/>
      <point x="107" y="251"/>
      <point x="65" y="199"/>
      <point x="51" y="109" type="curve"/>
      <point x="108" y="109" type="line"/>
      <point x="116" y="165"/>
      <point x="136" y="194"/>
      <point x="178" y="194" type="curve" smooth="yes"/>
      <point x="243" y="194"/>
      <point x="265" y="109"/>
    </contour>
    <contour>
      <point x="394" y="292" type="curve" smooth="yes"/>
      <point x="471" y="292"/>
      <point x="514" y="344"/>
      <point x="528" y="434" type="curve"/>
      <point x="471" y="434" type="line"/>
      <point x="463" y="378"/>
      <point x="443" y="349"/>
      <point x="401" y="349" type="curve" smooth="yes"/>
      <point x="335" y="349"/>
      <point x="313" y="434"/>
      <point x="217" y="434" type="curve" smooth="yes"/>
      <point x="140" y="434"/>
      <point x="98" y="382"/>
      <point x="84" y="292" type="curve"/>
      <point x="141" y="292" type="line"/>
      <point x="149" y="348"/>
      <point x="169" y="377"/>
      <point x="211" y="377" type="curve" smooth="yes"/>
      <point x="276" y="377"/>
      <point x="298" y="292"/>
    </contour>
  </outline>
</glyph>
<glyph name="notequal" format="2">
  <advance width="600"/>
  <unicode hex="2260"/>
  <outline>
    <contour>
      <point x="482" y="142" type="line"/>
      <point x="492" y="198" type="line"/>
      <point x="72" y="198" type="line"/>
      <point x="62" y="142" type="line"/>
    </contour>
    <contour>
      <point x="126" y="62" type="line"/>
      <point x="542" y="482" type="line"/>
      <point x="464" y="482" type="line"/>
      <point x="48" y="62" type="line"/>
    </contour>
    <contour>
      <point x="518" y="346" type="line"/>
      <point x="528" y="402" type="line"/>
      <point x="108" y="402" type="line"/>
      <point x="98" y="346" type="line"/>
    </contour>
  </outline>
</glyph>
<glyph name="greaterequal" format="2">
  <advance width="600"/>
  <unicode hex="2265"/>
  <outline>
    <contour>
      <point x="51" y="152" type="line"/>
      <point x="496" y="292" type="line"/>
      <point x="505" y="342" type="line"/>
      <point x="109" y="482" type="line"/>
      <point x="99" y="426" type="line"/>
      <point x="466" y="297" type="line"/>
      <point x="475" y="339" type="line"/>
      <point x="62" y="216" type="line"/>
    </contour>
    <contour>
      <point x="35" y="59" type="line"/>
      <point x="455" y="59" type="line"/>
      <point x="465" y="115" type="line"/>
      <point x="45" y="115" type="line"/>
    </contour>
  </outline>
</glyph>
<glyph name="zero.closecirc" format="2">
  <advance width="900"/>
  <unicode hex="24FF"/>
  <outline>
    <contour>
      <point x="409" y="279" type="curve" smooth="yes"/>
      <point x="409" y="357"/>
      <point x="424" y="544"/>
      <point x="467" y="544" type="curve" smooth="yes"/>
      <point x="487" y="544"/>
      <point x="490" y="510"/>
      <point x="490" y="469" type="curve" smooth="yes"/>
      <point x="490" y="391"/>
      <point x="473" y="201"/>
      <point x="431" y="201" type="curve" smooth="yes"/>
      <point x="412" y="201"/>
      <point x="409" y="235"/>
    </contour>
    <contour>
      <point x="289" y="324" type="curve" smooth="yes"/>
      <point x="289" y="228"/>
      <point x="336" y="170"/>
      <point x="413" y="170" type="curve" smooth="yes"/>
      <point x="528" y="170"/>
      <point x="608" y="298"/>
      <point x="608" y="421" type="curve" smooth="yes"/>
      <point x="608" y="517"/>
      <point x="562" y="575"/>
      <point x="483" y="575" type="curve" smooth="yes"/>
      <point x="369" y="575"/>
      <point x="289" y="447"/>
    </contour>
    <contour>
      <point x="403" y="-10" type="curve" smooth="yes"/>
      <point x="206" y="-10"/>
      <point x="67" y="132"/>
      <point x="67" y="321" type="curve" smooth="yes"/>
      <point x="67" y="554"/>
      <point x="240" y="750"/>
      <point x="496" y="750" type="curve" smooth="yes"/>
      <point x="693" y="750"/>
      <point x="833" y="608"/>
      <point x="833" y="419" type="curve" smooth="yes"/>
      <point x="833" y="186"/>
      <point x="659" y="-10"/>
    </contour>
  </outline>
</glyph>
<glyph name="lozenge" format="2">
  <advance width="600"/>
  <unicode hex="25CA"/>
  <outline>
    <contour>
      <point x="213" y="-10" type="line"/>
      <point x="263" y="-10" type="line"/>
      <point x="503" y="330" type="line"/>
      <point x="383" y="670" type="line"/>
      <point x="333" y="670" type="line"/>
      <point x="93" y="330" type="line"/>
    </contour>
    <contour>
      <point x="221" y="21" type="line"/>
      <point x="268" y="21" type="line"/>
      <point x="150" y="357" type="line"/>
      <point x="143" y="304" type="line"/>
      <point x="378" y="640" type="line"/>
      <point x="330" y="640" type="line"/>
      <point x="446" y="303" type="line"/>
      <point x="453" y="356" type="line"/>
    </contour>
  </outline>
</glyph>
<glyph name="uni2780" format="2">
  <advance width="900"/>
  <unicode hex="2780"/>
  <outline>
    <contour>
      <point x="534" y="190" type="line"/>
      <point x="480" y="215" type="line"/>
      <point x="542" y="573" type="line"/>
      <point x="467" y="573" type="line"/>
      <point x="321" y="484" type="line"/>
      <point x="316" y="454" type="line"/>
      <point x="413" y="495" type="line"/>
      <point x="364" y="215" type="line"/>
      <point x="305" y="190" type="line"/>
      <point x="303" y="180" type="line"/>
      <point x="532" y="180" type="line"/>
    </contour>
    <contour>
      <point x="408" y="21" type="curve" smooth="yes"/>
      <point x="627" y="21"/>
      <point x="795" y="193"/>
      <point x="795" y="416" type="curve" smooth="yes"/>
      <point x="795" y="588"/>
      <point x="671" y="717"/>
      <point x="490" y="717" type="curve" smooth="yes"/>
      <point x="271" y="717"/>
      <point x="105" y="547"/>
      <point x="105" y="324" type="curve" smooth="yes"/>
      <point x="105" y="151"/>
      <point x="228" y="21"/>
    </contour>
    <contour>
      <point x="403" y="-10" type="curve" smooth="yes"/>
      <point x="206" y="-10"/>
      <point x="67" y="132"/>
      <point x="67" y="321" type="curve" smooth="yes"/>
      <point x="67" y="554"/>
      <point x="240" y="750"/>
      <point x="496" y="750" type="curve" smooth="yes"/>
      <point x="693" y="750"/>
      <point x="833" y="608"/>
      <point x="833" y="419" type="curve" smooth="yes"/>
      <point x="833" y="186"/>
      <point x="659" y="-10"/>
    </contour>
  </outline>
</glyph>
<glyph name="uni2781" format="2">
  <advance width="900"/>
  <unicode hex="2781"/>
  <outline>
    <contour>
      <point x="565" y="180" type="line"/>
      <point x="593" y="329" type="line"/>
      <point x="584" y="329" type="line"/>
      <point x="531" y="269" type="line"/>
      <point x="397" y="269" type="line"/>
      <point x="559" y="376"/>
      <point x="604" y="429"/>
      <point x="604" y="488" type="curve" smooth="yes"/>
      <point x="604" y="545"/>
      <point x="562" y="575"/>
      <point x="498" y="575" type="curve" smooth="yes"/>
      <point x="435" y="575"/>
      <point x="406" y="557"/>
      <point x="380" y="540" type="curve" smooth="yes"/>
      <point x="338" y="512"/>
      <point x="319" y="486"/>
      <point x="314" y="460" type="curve" smooth="yes"/>
      <point x="312" y="438"/>
      <point x="318" y="433"/>
      <point x="332" y="433" type="curve" smooth="yes"/>
      <point x="383" y="433" type="line"/>
      <point x="391" y="442" type="line"/>
      <point x="395" y="471" type="line" smooth="yes"/>
      <point x="401" y="514"/>
      <point x="419" y="541"/>
      <point x="448" y="541" type="curve" smooth="yes"/>
      <point x="476" y="541"/>
      <point x="482" y="521"/>
      <point x="482" y="500" type="curve" smooth="yes"/>
      <point x="482" y="432"/>
      <point x="449" y="375"/>
      <point x="285" y="210" type="curve"/>
      <point x="278" y="180" type="line"/>
    </contour>
    <contour>
      <point x="408" y="21" type="curve" smooth="yes"/>
      <point x="627" y="21"/>
      <point x="795" y="193"/>
      <point x="795" y="416" type="curve" smooth="yes"/>
      <point x="795" y="588"/>
      <point x="671" y="717"/>
      <point x="490" y="717" type="curve" smooth="yes"/>
      <point x="271" y="717"/>
      <point x="105" y="547"/>
      <point x="105" y="324" type="curve" smooth="yes"/>
      <point x="105" y="151"/>
      <point x="228" y="21"/>
    </contour>
    <contour>
      <point x="403" y="-10" type="curve" smooth="yes"/>
      <point x="206" y="-10"/>
      <point x="67" y="132"/>
      <point x="67" y="321" type="curve" smooth="yes"/>
      <point x="67" y="554"/>
      <point x="240" y="750"/>
      <point x="496" y="750" type="curve" smooth="yes"/>
      <point x="693" y="750"/>
      <point x="833" y="608"/>
      <point x="833" y="419" type="curve" smooth="yes"/>
      <point x="833" y="186"/>
      <point x="659" y="-10"/>
    </contour>
  </outline>
</glyph>
<glyph name="uni2784" format="2">
  <advance width="900"/>
  <unicode hex="2784"/>
  <outline>
    <contour>
      <point x="402" y="170" type="curve" smooth="yes"/>
      <point x="499" y="170"/>
      <point x="590" y="232"/>
      <point x="590" y="317" type="curve" smooth="yes"/>
      <point x="590" y="393"/>
      <point x="534" y="436"/>
      <point x="441" y="436" type="curve" smooth="yes"/>
      <point x="413" y="436"/>
      <point x="394" y="435"/>
      <point x="381" y="434" type="curve"/>
      <point x="391" y="487" type="line"/>
      <point x="581" y="487" type="line"/>
      <point x="597" y="565" type="line"/>
      <point x="369" y="565" type="line"/>
      <point x="321" y="328" type="line"/>
      <point x="342" y="330"/>
      <point x="353" y="333"/>
      <point x="375" y="333" type="curve" smooth="yes"/>
      <point x="434" y="333"/>
      <point x="466" y="317"/>
      <point x="466" y="260" type="curve" smooth="yes"/>
      <point x="466" y="226"/>
      <point x="450" y="195"/>
      <point x="419" y="195" type="curve" smooth="yes"/>
      <point x="385" y="195"/>
      <point x="376" y="218"/>
      <point x="361" y="257" type="curve" smooth="yes"/>
      <point x="355" y="273" type="line"/>
      <point x="344" y="273" type="line"/>
      <point x="295" y="241" type="line" smooth="yes"/>
      <point x="287" y="236"/>
      <point x="281" y="231"/>
      <point x="280" y="226" type="curve" smooth="yes"/>
      <point x="277" y="205"/>
      <point x="323" y="170"/>
    </contour>
    <contour>
      <point x="408" y="21" type="curve" smooth="yes"/>
      <point x="627" y="21"/>
      <point x="795" y="193"/>
      <point x="795" y="416" type="curve" smooth="yes"/>
      <point x="795" y="588"/>
      <point x="671" y="717"/>
      <point x="490" y="717" type="curve" smooth="yes"/>
      <point x="271" y="717"/>
      <point x="105" y="547"/>
      <point x="105" y="324" type="curve" smooth="yes"/>
      <point x="105" y="151"/>
      <point x="228" y="21"/>
    </contour>
    <contour>
      <point x="403" y="-10" type="curve" smooth="yes"/>
      <point x="206" y="-10"/>
      <point x="67" y="132"/>
      <point x="67" y="321" type="curve" smooth="yes"/>
      <point x="67" y="554"/>
      <point x="240" y="750"/>
      <point x="496" y="750" type="curve" smooth="yes"/>
      <point x="693" y="750"/>
      <point x="833" y="608"/>
      <point x="833" y="419" type="curve" smooth="yes"/>
      <point x="833" y="186"/>
      <point x="659" y="-10"/>
    </contour>
  </outline>
</glyph>
<glyph name="uni2785" format="2">
  <advance width="900"/>
  <unicode hex="2785"/>
  <outline>
    <contour>
      <point x="422" y="170" type="curve" smooth="yes"/>
      <point x="527" y="170"/>
      <point x="581" y="233"/>
      <point x="581" y="313" type="curve" smooth="yes"/>
      <point x="581" y="371"/>
      <point x="553" y="415"/>
      <point x="489" y="415" type="curve" smooth="yes"/>
      <point x="463" y="415"/>
      <point x="440" y="405"/>
      <point x="422" y="386" type="curve"/>
      <point x="447" y="456"/>
      <point x="496" y="521"/>
      <point x="582" y="549" type="curve"/>
      <point x="586" y="575" type="line"/>
      <point x="403" y="554"/>
      <point x="279" y="446"/>
      <point x="279" y="301" type="curve" smooth="yes"/>
      <point x="279" y="215"/>
      <point x="337" y="170"/>
    </contour>
    <contour>
      <point x="422" y="201" type="curve" smooth="yes"/>
      <point x="405" y="201"/>
      <point x="399" y="220"/>
      <point x="399" y="253" type="curve" smooth="yes"/>
      <point x="399" y="283"/>
      <point x="402" y="317"/>
      <point x="411" y="350" type="curve"/>
      <point x="419" y="361"/>
      <point x="427" y="365"/>
      <point x="436" y="365" type="curve" smooth="yes"/>
      <point x="452" y="365"/>
      <point x="461" y="348"/>
      <point x="461" y="318" type="curve" smooth="yes"/>
      <point x="461" y="247"/>
      <point x="449" y="201"/>
    </contour>
    <contour>
      <point x="408" y="21" type="curve" smooth="yes"/>
      <point x="627" y="21"/>
      <point x="795" y="193"/>
      <point x="795" y="416" type="curve" smooth="yes"/>
      <point x="795" y="588"/>
      <point x="671" y="717"/>
      <point x="490" y="717" type="curve" smooth="yes"/>
      <point x="271" y="717"/>
      <point x="105" y="547"/>
      <point x="105" y="324" type="curve" smooth="yes"/>
      <point x="105" y="151"/>
      <point x="228" y="21"/>
    </contour>
    <contour>
      <point x="403" y="-10" type="curve" smooth="yes"/>
      <point x="206" y="-10"/>
      <point x="67" y="132"/>
      <point x="67" y="321" type="curve" smooth="yes"/>
      <point x="67" y="554"/>
      <point x="240" y="750"/>
      <point x="496" y="750" type="curve" smooth="yes"/>
      <point x="693" y="750"/>
      <point x="833" y="608"/>
      <point x="833" y="419" type="curve" smooth="yes"/>
      <point x="833" y="186"/>
      <point x="659" y="-10"/>
    </contour>
  </outline>
</glyph>
<glyph name="uni278A" format="2">
  <advance width="900"/>
  <unicode hex="278A"/>
  <outline>
    <contour>
      <point x="534" y="190" type="line"/>
      <point x="480" y="215" type="line"/>
      <point x="542" y="573" type="line"/>
      <point x="467" y="573" type="line"/>
      <point x="321" y="484" type="line"/>
      <point x="316" y="454" type="line"/>
      <point x="413" y="495" type="line"/>
      <point x="364" y="215" type="line"/>
      <point x="305" y="190" type="line"/>
      <point x="303" y="180" type="line"/>
      <point x="532" y="180" type="line"/>
    </contour>
    <contour>
      <point x="403" y="-10" type="curve" smooth="yes"/>
      <point x="206" y="-10"/>
      <point x="67" y="132"/>
      <point x="67" y="321" type="curve" smooth="yes"/>
      <point x="67" y="554"/>
      <point x="240" y="750"/>
      <point x="496" y="750" type="curve" smooth="yes"/>
      <point x="693" y="750"/>
      <point x="833" y="608"/>
      <point x="833" y="419" type="curve" smooth="yes"/>
      <point x="833" y="186"/>
      <point x="659" y="-10"/>
    </contour>
  </outline>
</glyph>
